<?xml version="1.0" encoding="UTF-8" standalone="no"?>
<svg
   xmlns:inkstitch="http://inkstitch.org/namespace"
   xmlns:dc="http://purl.org/dc/elements/1.1/"
   xmlns:cc="http://creativecommons.org/ns#"
   xmlns:rdf="http://www.w3.org/1999/02/22-rdf-syntax-ns#"
   xmlns:svg="http://www.w3.org/2000/svg"
   xmlns="http://www.w3.org/2000/svg"
   xmlns:sodipodi="http://sodipodi.sourceforge.net/DTD/sodipodi-0.dtd"
   xmlns:inkscape="http://www.inkscape.org/namespaces/inkscape"
   version="1.1"
   id="svg1422"
   width="105mm"
   height="74mm"
   viewBox="0 0 396.85039 279.68505"
   sodipodi:docname="chat trait.svg"
   inkscape:version="1.0.1 (c497b03c, 2020-09-10)">
  <metadata
     id="metadata1428">
    <rdf:RDF>
      <cc:Work
         rdf:about="">
        <dc:format>image/svg+xml</dc:format>
        <dc:type
           rdf:resource="http://purl.org/dc/dcmitype/StillImage" />
        <dc:title></dc:title>
      </cc:Work>
    </rdf:RDF>
    <inkstitch:thread-palette />
  </metadata>
  <defs
     id="defs1426">
    <symbol
       style="display:inline"
       id="inkstitch_satin_start">
      <title
         id="inkstitch_title9432-1">Satin column starting point</title>
      <path
         inkscape:connector-curvature="0"
         id="inkstitch_circle13166-6-2"
         d="M 9.2465269,-4.9265995e-6 C 9.246525,5.1067241 5.1067022,9.2465451 -2.715882e-5,9.2465451 -5.106756,9.2465451 -9.2465782,5.1067241 -9.2465801,-4.9265995e-6 -9.2465799,-5.1067349 -5.1067572,-9.2465579 -2.715882e-5,-9.2465579 c 2.45233855882,0 4.80423565882,0.974187 6.53830095882,2.708252 1.7340652,1.734066 2.708253,4.085963 2.7082531,6.5383009734005 0,0 0,0 0,0"
         style="opacity:1;vector-effect:none;fill:#fafafa;fill-opacity:1;fill-rule:evenodd;stroke:#003399;stroke-width:1.06501234;stroke-linecap:round;stroke-linejoin:miter;stroke-miterlimit:4;stroke-dasharray:3.19503705, 3.19503705;stroke-dashoffset:0;stroke-opacity:1" />
      <path
         inkscape:connector-curvature="0"
         style="opacity:1;vector-effect:none;fill:#000000;fill-opacity:1;fill-rule:evenodd;stroke:none;stroke-width:2.74180555;stroke-linecap:butt;stroke-linejoin:miter;stroke-miterlimit:4;stroke-dasharray:none;stroke-dashoffset:0;stroke-opacity:1"
         d="m 6.5728129,0.00355507 c 0,0 -10.4514,6.03412003 -10.4514,6.03412003 0,0 0,-12.06823 0,-12.06823 0,0 10.4514,6.03410997 10.4514,6.03410997"
         id="inkstitch_path4183-7" />
      <path
         inkscape:connector-curvature="0"
         style="display:inline;opacity:1;fill:none;fill-opacity:1;stroke:#ffffff;stroke-width:0.2;stroke-linejoin:miter;stroke-miterlimit:4;stroke-dasharray:none;stroke-dashoffset:0;stroke-opacity:1;paint-order:fill markers stroke"
         d="m -3.0312502,1.577739 c 0,0 0.25,-3.6875002 0.25,-3.6875002 0,0 1.0312501,3.8437502 1.0312501,3.8437502 0,0 0.34375,-3.6250002 0.34375,-3.6250002 0,0 0.96874997,3.5625002 0.96874997,3.5625002 0,0 0.28125,-3.3125002 0.28125,-3.3125002 0,0 0.9375001,3.3125002 0.9375001,3.3125002 0,0 0.21875,-3.0937502 0.21875,-3.0937502 0,0 1.03125013,2.9687502 1.03125013,2.9687502 0,0 0.0625,-2.7187501 0.0625,-2.7187501 0,0 0.96875,2.4687501 0.96875,2.4687501 0,0 0.15625,-2.18750023 0.15625,-2.18750023"
         id="path31975" />
    </symbol>
    <symbol
       id="inkstitch_ignore_layer">
      <title
         id="title9694">Ignore entire layer when generating stitch plan</title>
      <path
         inkscape:connector-curvature="0"
         style="opacity:1;vector-effect:none;fill:#fafafa;fill-opacity:1;fill-rule:evenodd;stroke:#ff0000;stroke-width:1.06501234;stroke-linecap:round;stroke-linejoin:miter;stroke-miterlimit:4;stroke-dasharray:3.19503705, 3.19503705;stroke-dashoffset:0;stroke-opacity:1"
         d="M 9.2465269,-4.9265995e-6 C 9.246525,5.1067241 5.1067028,9.2465451 -2.615882e-5,9.2465451 -5.1067554,9.2465451 -9.2465782,5.1067241 -9.2465801,-4.9265995e-6 -9.24658,-2.4523429 -8.2723922,-4.8042399 -6.538327,-6.5383059 c 1.7340653,-1.734065 4.0859624,-2.708252 6.53830084118,-2.708252 5.10673015882,0 9.24655285882,4.139823 9.24655305882,9.2465529734005 0,0 0,0 0,0"
         id="inkstitch_path25368-7" />
      <path
         sodipodi:nodetypes="ccccc"
         inkscape:connector-curvature="0"
         style="color:#000000;fill:#d5d5d5;fill-opacity:1;fill-rule:evenodd;stroke:#5a5a5a;stroke-width:0.63330007;stroke-linecap:square;stroke-linejoin:round;stroke-miterlimit:0;stroke-opacity:1"
         d="M 4,4.452769 1.46667,1.286102 H -5.5 l 2.53333,3.166667 z"
         id="use5800" />
      <path
         sodipodi:nodetypes="ccccc"
         inkscape:connector-curvature="0"
         style="color:#000000;opacity:0.5;fill:#d5d5d5;fill-opacity:1;fill-rule:evenodd;stroke:#858585;stroke-width:0.63339424;stroke-linecap:square;stroke-linejoin:round;stroke-miterlimit:0;stroke-opacity:1"
         d="M 4,2.552769 1.46667,-0.613898 H -5.5 l 2.53333,3.166667 z"
         id="use5864" />
      <g
         id="g5771">
        <path
           sodipodi:nodetypes="ccccccccc"
           inkscape:connector-curvature="0"
           style="fill:#aa0000;fill-rule:evenodd;stroke:#aa0000;stroke-width:1px"
           d="m -1.0666699,-5.0472339 h 4.4333333 l 0.6333333,0.6333333 V 0.01943274 L 3.3666634,0.65276607 H -1.0666699 L -1.7000032,0.01943274 V -4.4139006 Z"
           id="path8011" />
        <path
           inkscape:connector-curvature="0"
           id="path8023"
           d="m -0.43333658,-3.8755672 c 0,0 3.16666668,3.16666661 3.16666668,3.16666661"
           style="fill:none;stroke:#ffffff;stroke-width:1.70000005" />
        <path
           inkscape:connector-curvature="0"
           id="path8025"
           d="m 2.7333301,-3.8755672 c 0,0 -3.16666668,3.16666661 -3.16666668,3.16666661"
           style="fill:none;stroke:#ffffff;stroke-width:1.79999995;stroke-linejoin:round" />
      </g>
    </symbol>
  </defs>
  <sodipodi:namedview
     pagecolor="#ffffff"
     bordercolor="#666666"
     borderopacity="1"
     objecttolerance="10"
     gridtolerance="10"
     guidetolerance="10"
     inkscape:pageopacity="0"
     inkscape:pageshadow="2"
     inkscape:window-width="2560"
     inkscape:window-height="1315"
     id="namedview1424"
     showgrid="true"
     units="mm"
     inkscape:snap-grids="false"
     inkscape:snap-to-guides="false"
     inkscape:snap-global="false"
     inkscape:zoom="5.5200887"
     inkscape:cx="187.79394"
     inkscape:cy="126.24252"
     inkscape:window-x="0"
     inkscape:window-y="23"
     inkscape:window-maximized="0"
     inkscape:current-layer="g1430"
     inkscape:document-rotation="0">
    <inkscape:grid
       type="xygrid"
       id="grid1436" />
  </sodipodi:namedview>
  <g
     inkscape:label="Image"
     id="g1430"
     style="display:inline">
    <path
       id="path1549"
       style="display:inline;fill:#00602f;stroke-width:0.590544"
       d="m 243.96094,185.14258 c -0.3426,0.11275 -0.66715,0.27417 -1.02149,0.35351 -0.77084,0.17261 -1.56567,0.27682 -2.36718,0.35157 -1.60304,0.14949 -3.23468,0.18592 -4.75586,0.43945 -1.04454,0.17409 -2.05899,0.54765 -3.11524,0.62305 -1.86435,0.13317 -3.7366,0.0288 -5.60547,0 -4.88094,-0.0751 -9.77346,0.0353 -14.64258,-0.3125 -2.41796,-0.17271 -4.7661,-0.89084 -7.16406,-1.2461 -3.21064,-0.47565 -6.42139,-1.00632 -9.6582,-1.24609 -5.18188,-0.38384 -10.3823,-0.41537 -15.57422,-0.62305 -0.51919,0.10384 -1.02911,0.3125 -1.55859,0.3125 -0.23219,0 -0.39187,-0.2908 -0.62305,-0.3125 -7.82758,-0.73383 -8.61008,-0.55665 -9.49805,-0.63476 -0.88797,-0.0781 -1.88094,-0.41063 -10.12695,-2.16797 -3.40251,-0.72513 -6.80273,-1.3838 -10.14453,-2.23242 -1.6709,-0.42432 -3.32851,-0.89542 -4.96289,-1.44727 -0.19833,-0.067 -0.38827,-0.165 -0.58594,-0.23438 -0.80162,0.67698 -3.0597,0.77975 -13.61133,1.04883 -17.47211,0.44557 -26.98426,1.90051 -40.060544,6.13086 -18.59594,6.01605 -37.046259,19.7181 -48.830078,36.26172 -1.234561,1.73324 0.281488,0.47859 4.511718,-3.73047 17.29203,-17.20549 32.70258,-25.8446 54.72461,-30.67968 5.566704,-1.22222 7.620584,-1.34348 22.369144,-1.33008 19.41904,0.0176 21.52105,0.29296 58.16796,7.62109 34.41551,6.88192 46.62119,8.58295 61.5879,8.58399 28.52969,0.002 52.7819,-8.91913 75.1621,-27.64844 5.58601,-4.67471 15.22628,-14.41108 18.98438,-19.17188 1.6208,-2.05315 1.11237,-1.74133 -3.07812,1.88282 -21.9167,18.95446 -47.25894,28.13423 -81.12305,29.38476 -4.32583,0.15975 -6.00764,0.13989 -7.40039,0.0234 z"
       inkstitch:fill_underlay_angle="90"
       inkstitch:auto_fill="True"
       inkstitch:fill_underlay="True" />
    <path
       id="path1565"
       style="display:inline;fill:#000000;stroke-width:0.590544"
       inkscape:label="Tete"
       d="m 217.30078,25.279297 c -4.09577,4.823523 -6.44578,11.122718 -11.33435,15.296338 -4.90095,2.580398 -10.71852,1.841207 -16.07365,2.385014 -5.64644,0.647123 -9.14932,-4.5156 -12.95918,-7.747046 -2.0562,-2.108603 -7.68184,-7.942665 -7.79916,-1.734624 -1.6161,10.805919 -2.67378,21.68765 -3.81548,32.543732 -0.29725,4.816695 -5.50954,6.181963 -9.52382,6.128969 -2.79623,0.270232 -11.32009,-0.202876 -6.04003,3.764571 5.546,4.943533 11.28926,10.005393 18.08327,13.144471 8.80477,3.150361 18.08293,4.552239 27.26071,6.107877 2.67633,1.259224 5.68036,0.336111 8.53959,0.421129 1.70674,-0.37012 4.32684,0.75596 4.6953,-1.671759 10.30273,-6.666254 22.40194,-10.511725 31.7802,-18.607393 2.30632,-2.546287 6.75179,-6.089186 6.22615,-9.306639 -3.75326,-0.336483 -8.59355,2.902111 -11.51772,-0.686819 -4.5752,-6.698486 -3.9736,-15.401163 -7.83142,-22.450559 -2.90662,-5.78037 -5.47242,-11.796794 -9.00461,-17.223585 l -0.36527,-0.287593 z m -4.53516,31.105469 c 6.89954,-0.936784 7.49311,0.447841 10.61798,2.849609 5.19293,1.402082 4.21334,6.968988 -0.0622,8.899919 -3.76022,2.443838 -8.68864,3.36446 -12.93239,2.486905 -3.75742,-0.838632 -9.30038,-4.589463 -6.42421,-8.906528 2.22474,-2.780393 7.37604,-4.560537 8.80078,-5.329905 1e-5,-6e-6 4e-5,0 4e-5,0 z m -31.69235,0.749332 c 9.62072,-0.625944 3.25901,0.04889 9.68623,0.191965 6.44588,0.143494 8.01325,3.460436 8.17204,8.843403 -2.33682,5.962232 -10.14942,7.189892 -15.62199,5.33267 -3.73364,-1.488415 -6.66906,-4.799152 -9.09242,-8.124611 2.12884,-3.962405 -1.22415,-5.717707 6.85614,-6.243427 z"
       sodipodi:nodetypes="cccccccccccccccccccsccccsssscccs" />
    <path
       id="path1560"
       style="display:inline;fill:#000000;stroke-width:0.590544"
       inkscape:label="Patte"
       d="m 225.70117,171.53711 -61.17578,-1.8457 c 0.94582,0.97772 1.77561,1.89148 1.61523,2.0332 -0.26696,0.23595 -4.804,0.74007 -10.08203,1.11914 -10.22086,0.73407 -12.06512,1.2018 -13.02148,3.30078 -0.1207,0.26489 -0.27573,0.44819 -0.48047,0.62109 0.19767,0.0694 0.38761,0.16741 0.58594,0.23438 1.63438,0.55185 3.29199,1.02295 4.96289,1.44727 3.3418,0.84862 6.74202,1.50729 10.14453,2.23242 8.24601,1.75734 9.23898,2.08985 10.12695,2.16797 0.88797,0.0781 1.67047,-0.0991 9.49805,0.63476 0.23118,0.0217 0.39086,0.3125 0.62305,0.3125 0.52948,0 1.0394,-0.20866 1.55859,-0.3125 5.19192,0.20768 10.39234,0.23921 15.57422,0.62305 3.23681,0.23977 6.44756,0.77044 9.6582,1.24609 2.39796,0.35526 4.74611,1.07339 7.16406,1.2461 4.86914,0.3478 9.76164,0.23741 14.64258,0.3125 1.86887,0.0288 3.74112,0.13317 5.60547,0 1.05625,-0.0754 2.0707,-0.44896 3.11524,-0.62305 1.52118,-0.25353 3.15282,-0.28996 4.75586,-0.43945 0.80151,-0.0747 1.59634,-0.17896 2.36718,-0.35157 0.35434,-0.0793 0.67889,-0.24076 1.02149,-0.35351 -2.00514,-0.16766 -2.47678,-0.65781 -1.50196,-2.13086 2.23452,-3.3766 4.33943,-4.34545 10.11329,-4.66016 4.8311,-0.26333 4.83059,-0.26397 2.0664,-2.11133 -3.42974,-2.2922 -3.49872,-3.36433 -0.28711,-4.47461 2.3548,-0.81405 2.67247,-0.77608 6.42188,0.76368 2.16937,0.89089 4.09586,1.46665 4.28125,1.28125 0.71409,-0.71406 -9.31048,-9.79302 -12.40235,-11.23243 -6.63243,-3.08761 -10.83272,-1.66604 -18.375,6.21485 -4.94387,5.16582 -6.50364,6.06472 -7.97265,4.5957 -0.35173,-0.35172 -0.5462,-0.95597 -0.60352,-1.85156 z" />
    <path
       id="path1575"
       style="display:inline;fill:#000000;stroke-width:0.590544"
       inkscape:label="Corps"
       d="m 207.57422,95.419922 -10.50195,0.453125 c 1.28036,0.708353 1.59977,1.747043 2.03906,3.728515 0.4068,1.834928 0.75218,6.923798 0.76758,11.308598 0.0265,7.52874 -0.0587,8.13748 -1.54883,10.96093 -3.1194,5.91055 -4.45764,5.44478 -6.69727,-2.33203 -3.43084,-11.91312 -7.6455,-17.01952 -11.80078,-14.29687 -4.1478,2.71774 -7.07925,15.84022 -8.28906,37.11328 -0.39462,6.93894 -0.39449,6.93878 -2.55078,6.92578 -0.30406,-0.002 -0.62261,-0.17623 -0.93164,-0.21289 l -3.76563,20.33398 c 0.14567,0.14622 0.0958,0.14987 0.23047,0.28907 l 61.17578,1.8457 c -0.16049,-2.50779 0.89716,-7.65972 3.68945,-18.72266 4.58664,-18.17146 5.76348,-25.44452 5.86915,-36.29492 0.0886,-9.10206 -0.43531,-10.90068 -3.92774,-13.50391 -2.31279,-1.72395 -3.05312,-1.07636 -7.11914,6.22852 -4.74195,8.51923 -7.47452,10.03893 -10.94531,6.08594 -2.50471,-2.85271 -3.49213,-4.92886 -4.83008,-10.16016 -1.10913,-4.33667 -1.39381,-7.738371 -0.86328,-9.749998 z"
       inkstitch:fill_underlay_angle="0"
       inkstitch:angle="20"
       inkstitch:auto_fill="True"
       inkstitch:fill_underlay="True"
       inkstitch:flip="True"
       inkstitch:row_spacing_mm="0.20" />
    <path
       id="path1570"
       style="display:inline;fill:#000000;stroke-width:0.590544"
       inkscape:label="Queue"
       d="m 145.96875,83.330078 c -5.69791,0.575193 -12.79666,4.661432 -20.19141,12.146484 -5.69553,5.765098 -13.05776,15.331408 -17.33398,22.521488 -3.06321,5.15053 -7.08728,14.38268 -6.73242,15.44726 0.11696,0.35087 2.17725,-1.71827 4.57812,-4.59961 9.65569,-11.58796 27.29685,-27.83598 34.38086,-31.666012 8.3645,-4.52234 9.56787,0.27913 4.40235,17.568362 -4.04963,13.55423 -4.51563,15.72501 -4.51563,21.08203 0,9.33562 3.38549,15.58755 12.99219,23.99219 2.7608,2.41535 6.83302,5.98399 9.04883,7.93164 0.69543,0.61127 1.16262,1.11178 1.69726,1.64843 l 3.76563,-20.33398 c -4.80045,-0.56942 -10.06462,-5.08175 -11.94532,-10.59766 -1.54914,-4.54354 -1.40027,-15.40197 0.32032,-23.42773 1.58753,-7.40508 2.27753,-19.303403 1.32226,-22.794923 -1.79406,-6.55731 -6.09115,-9.493162 -11.78906,-8.917969 z"
       inkstitch:angle="45"
       inkstitch:fill_underlay_angle="0" />
    <path
       style="display:inline;fill:#ffe76d;stroke:none;stroke-width:1.26308;stroke-linecap:butt;stroke-linejoin:miter;stroke-miterlimit:4;stroke-dasharray:1.26308, 1.26308;stroke-dashoffset:0;stroke-opacity:1"
       d="m 185.53533,57.411497 c 2.79634,-0.790734 8.04408,10.46897 0.51231,13.264899 -5.51948,2.048954 -7.39496,-11.318694 -0.51231,-13.264899 z"
       id="path1440-3"
       sodipodi:nodetypes="sss"
       inkscape:label="oeil D"
       inkstitch:angle="90"
       inkstitch:fill_underlay_angle="90"
       inkstitch:repeats="2"
       inkstitch:satin_column="False"
       inkstitch:expand_mm="0.3"
       inkstitch:skip_last="False"
       inkstitch:manual_stitch="False"
       inkstitch:row_spacing_mm="0.2" />
    <path
       style="display:inline;fill:none;stroke:#ffe76d;stroke-width:1.26308;stroke-linecap:butt;stroke-linejoin:miter;stroke-miterlimit:4;stroke-dasharray:1.26308, 1.26308;stroke-dashoffset:0;stroke-opacity:1"
       d="m 185.53533,57.411497 c 2.79634,-0.790734 8.04408,10.46897 0.51231,13.264899 -5.51948,2.048954 -7.39496,-11.318694 -0.51231,-13.264899 z"
       id="path1067-5"
       sodipodi:nodetypes="sss"
       inkscape:label="Contouroeil D"
       inkstitch:angle="90"
       inkstitch:fill_underlay_angle="90"
       inkstitch:repeats="2"
       inkstitch:satin_column="False"
       inkstitch:expand_mm="1"
       inkstitch:skip_last="True"
       inkstitch:manual_stitch="False"
       inkstitch:row_spacing_mm="0.2" />
    <path
       style="display:inline;fill:#ffe76d;stroke:none;stroke-width:1.26308;stroke-linecap:butt;stroke-linejoin:miter;stroke-miterlimit:4;stroke-dasharray:1.26308, 1.26308;stroke-dashoffset:0;stroke-opacity:1"
       d="m 216.06767,56.514572 c 2.79634,-0.790734 8.04408,10.468971 0.51231,13.2649 -5.51948,2.048954 -7.39496,-11.318695 -0.51231,-13.2649 z"
       id="path1440"
       sodipodi:nodetypes="sss"
       inkscape:label="oeil g"
       inkstitch:angle="90"
       inkstitch:fill_underlay_angle="90"
       inkstitch:repeats="2"
       inkstitch:satin_column="False"
       inkstitch:expand_mm="0.3"
       inkstitch:skip_last="False"
       inkstitch:manual_stitch="False"
       inkstitch:row_spacing_mm="0.2" />
    <path
       style="display:inline;fill:none;stroke:#ffe76d;stroke-width:1.26308;stroke-linecap:butt;stroke-linejoin:miter;stroke-miterlimit:4;stroke-dasharray:1.26308, 1.26308;stroke-dashoffset:0;stroke-opacity:1"
       d="m 216.06767,56.514572 c 2.79634,-0.790734 8.04408,10.468971 0.51231,13.2649 -5.51948,2.048954 -7.39496,-11.318695 -0.51231,-13.2649 z"
       id="path1067"
       sodipodi:nodetypes="sss"
       inkscape:label="Contouroeil g"
       inkstitch:angle="90"
       inkstitch:fill_underlay_angle="90"
       inkstitch:repeats="2"
       inkstitch:satin_column="False"
       inkstitch:expand_mm="1"
       inkstitch:skip_last="True"
       inkstitch:manual_stitch="False"
       inkstitch:row_spacing_mm="0.2" />
    <path
       id="path1625"
       style="display:inline;fill:none;stroke:#006700;stroke-width:0.590544;stroke-miterlimit:4;stroke-dasharray:0.590544, 0.590544;stroke-dashoffset:0"
       d="m 243.96094,185.14258 c -0.3426,0.11275 -0.66715,0.27417 -1.02149,0.35351 -0.77084,0.17261 -1.56567,0.27682 -2.36718,0.35157 -1.60304,0.14949 -3.23468,0.18592 -4.75586,0.43945 -1.04454,0.17409 -2.05899,0.54765 -3.11524,0.62305 -1.86435,0.13317 -3.7366,0.0288 -5.60547,0 -4.88094,-0.0751 -9.77346,0.0353 -14.64258,-0.3125 -2.41796,-0.17271 -4.7661,-0.89084 -7.16406,-1.2461 -3.21064,-0.47565 -6.42139,-1.00632 -9.6582,-1.24609 -5.18188,-0.38384 -10.3823,-0.41537 -15.57422,-0.62305 -0.51919,0.10384 -1.02911,0.3125 -1.55859,0.3125 -0.23219,0 -0.39187,-0.2908 -0.62305,-0.3125 -7.82758,-0.73383 -8.61008,-0.55665 -9.49805,-0.63476 -0.88797,-0.0781 -1.88094,-0.41063 -10.12695,-2.16797 -3.40251,-0.72513 -6.80273,-1.3838 -10.14453,-2.23242 -1.6709,-0.42432 -3.32851,-0.89542 -4.96289,-1.44727 -0.19833,-0.067 -0.38827,-0.165 -0.58594,-0.23438 -0.80162,0.67698 -3.0597,0.77975 -13.61133,1.04883 -17.47211,0.44557 -26.98426,1.90051 -40.060544,6.13086 -18.59594,6.01605 -37.046259,19.7181 -48.830078,36.26172 -1.234561,1.73324 0.281488,0.47859 4.511718,-3.73047 17.29203,-17.20549 32.70258,-25.8446 54.72461,-30.67968 5.566704,-1.22222 7.620584,-1.34348 22.369144,-1.33008 19.41904,0.0176 21.52105,0.29296 58.16796,7.62109 34.41551,6.88192 46.62119,8.58295 61.5879,8.58399 28.52969,0.002 52.7819,-8.91913 75.1621,-27.64844 5.58601,-4.67471 15.22628,-14.41108 18.98438,-19.17188 1.6208,-2.05315 1.11237,-1.74133 -3.07812,1.88282 -21.9167,18.95446 -47.25894,28.13423 -81.12305,29.38476 -4.32583,0.15975 -6.00764,0.13989 -7.40039,0.0234 z"
       inkstitch:fill_underlay_angle="90"
       inkstitch:repeats="2"
       sodipodi:insensitive="true" />
    <path
       id="path1633"
       style="display:inline;fill:none;stroke:#000000;stroke-width:0.590544;stroke-miterlimit:4;stroke-dasharray:0.590544, 0.590544;stroke-dashoffset:0"
       inkscape:label="Tete"
       d="m 217.30078,25.279297 c -4.09577,4.823523 -6.44578,11.122718 -11.33435,15.296338 -4.90095,2.580398 -10.71852,1.841207 -16.07365,2.385014 -5.64644,0.647123 -9.14932,-4.5156 -12.95918,-7.747046 -2.0562,-2.108603 -7.68184,-7.942665 -7.79916,-1.734624 -1.6161,10.805919 -2.67378,21.68765 -3.81548,32.543732 -0.29725,4.816695 -5.50954,6.181963 -9.52382,6.128969 -2.79623,0.270232 -11.32009,-0.202876 -6.04003,3.764571 5.546,4.943533 11.28926,10.005393 18.08327,13.144471 8.80477,3.150361 18.08293,4.552239 27.26071,6.107877 2.67633,1.259224 5.68036,0.336111 8.53959,0.421129 1.70674,-0.37012 4.32684,0.75596 4.6953,-1.671759 10.30273,-6.666254 22.40194,-10.511725 31.7802,-18.607393 2.30632,-2.546287 6.75179,-6.089186 6.22615,-9.306639 -3.75326,-0.336483 -8.59355,2.902111 -11.51772,-0.686819 -4.5752,-6.698486 -3.9736,-15.401163 -7.83142,-22.450559 -2.90662,-5.78037 -5.47242,-11.796794 -9.00461,-17.223585 l -0.36527,-0.287593 z m -4.53516,31.105469 c 6.89954,-0.936784 7.49311,0.447841 10.61798,2.849609 5.19293,1.402082 4.21334,6.968988 -0.0622,8.899919 -3.76022,2.443838 -8.68864,3.36446 -12.93239,2.486905 -3.75742,-0.838632 -9.30038,-4.589463 -6.42421,-8.906528 2.22474,-2.780393 7.37604,-4.560537 8.80078,-5.329905 1e-5,-6e-6 4e-5,0 4e-5,0 z m -31.69235,0.749332 c 9.62072,-0.625944 3.25901,0.04889 9.68623,0.191965 6.44588,0.143494 8.01325,3.460436 8.17204,8.843403 -2.33682,5.962232 -10.14942,7.189892 -15.62199,5.33267 -3.73364,-1.488415 -6.66906,-4.799152 -9.09242,-8.124611 2.12884,-3.962405 -1.22415,-5.717707 6.85614,-6.243427 z"
       sodipodi:nodetypes="cccccccccccccccccccsccccsssscccs"
       inkstitch:repeats="2" />
    <path
       id="path1629"
       style="display:inline;fill:none;stroke:#000000;stroke-width:0.590544;stroke-miterlimit:4;stroke-dasharray:0.590544, 0.590544;stroke-dashoffset:0"
       inkscape:label="Corps"
       d="m 207.57422,95.419922 -10.50195,0.453125 c 1.28036,0.708353 1.59977,1.747043 2.03906,3.728515 0.4068,1.834928 0.75218,6.923798 0.76758,11.308598 0.0265,7.52874 -0.0587,8.13748 -1.54883,10.96093 -3.1194,5.91055 -4.45764,5.44478 -6.69727,-2.33203 -3.43084,-11.91312 -7.6455,-17.01952 -11.80078,-14.29687 -4.1478,2.71774 -7.07925,15.84022 -8.28906,37.11328 -0.39462,6.93894 -0.39449,6.93878 -2.55078,6.92578 -0.30406,-0.002 -0.62261,-0.17623 -0.93164,-0.21289 l -3.76563,20.33398 c 0.14567,0.14622 0.0958,0.14987 0.23047,0.28907 l 61.17578,1.8457 c -0.16049,-2.50779 0.89716,-7.65972 3.68945,-18.72266 4.58664,-18.17146 5.76348,-25.44452 5.86915,-36.29492 0.0886,-9.10206 -0.43531,-10.90068 -3.92774,-13.50391 -2.31279,-1.72395 -3.05312,-1.07636 -7.11914,6.22852 -4.74195,8.51923 -7.47452,10.03893 -10.94531,6.08594 -2.50471,-2.85271 -3.49213,-4.92886 -4.83008,-10.16016 -1.10913,-4.33667 -1.39381,-7.738371 -0.86328,-9.749998 z"
       inkstitch:fill_underlay_angle="45"
       inkstitch:angle="90"
       inkstitch:repeats="2" />
    <path
       id="path1627"
       style="display:inline;fill:none;stroke:#000000;stroke-width:0.590544;stroke-miterlimit:4;stroke-dasharray:0.590544, 0.590544;stroke-dashoffset:0"
       inkscape:label="Patte"
       d="m 225.70117,171.53711 -61.17578,-1.8457 c 0.94582,0.97772 1.77561,1.89148 1.61523,2.0332 -0.26696,0.23595 -4.804,0.74007 -10.08203,1.11914 -10.22086,0.73407 -12.06512,1.2018 -13.02148,3.30078 -0.1207,0.26489 -0.27573,0.44819 -0.48047,0.62109 0.19767,0.0694 0.38761,0.16741 0.58594,0.23438 1.63438,0.55185 3.29199,1.02295 4.96289,1.44727 3.3418,0.84862 6.74202,1.50729 10.14453,2.23242 8.24601,1.75734 9.23898,2.08985 10.12695,2.16797 0.88797,0.0781 1.67047,-0.0991 9.49805,0.63476 0.23118,0.0217 0.39086,0.3125 0.62305,0.3125 0.52948,0 1.0394,-0.20866 1.55859,-0.3125 5.19192,0.20768 10.39234,0.23921 15.57422,0.62305 3.23681,0.23977 6.44756,0.77044 9.6582,1.24609 2.39796,0.35526 4.74611,1.07339 7.16406,1.2461 4.86914,0.3478 9.76164,0.23741 14.64258,0.3125 1.86887,0.0288 3.74112,0.13317 5.60547,0 1.05625,-0.0754 2.0707,-0.44896 3.11524,-0.62305 1.52118,-0.25353 3.15282,-0.28996 4.75586,-0.43945 0.80151,-0.0747 1.59634,-0.17896 2.36718,-0.35157 0.35434,-0.0793 0.67889,-0.24076 1.02149,-0.35351 -2.00514,-0.16766 -2.47678,-0.65781 -1.50196,-2.13086 2.23452,-3.3766 4.33943,-4.34545 10.11329,-4.66016 4.8311,-0.26333 4.83059,-0.26397 2.0664,-2.11133 -3.42974,-2.2922 -3.49872,-3.36433 -0.28711,-4.47461 2.3548,-0.81405 2.67247,-0.77608 6.42188,0.76368 2.16937,0.89089 4.09586,1.46665 4.28125,1.28125 0.71409,-0.71406 -9.31048,-9.79302 -12.40235,-11.23243 -6.63243,-3.08761 -10.83272,-1.66604 -18.375,6.21485 -4.94387,5.16582 -6.50364,6.06472 -7.97265,4.5957 -0.35173,-0.35172 -0.5462,-0.95597 -0.60352,-1.85156 z"
       inkstitch:repeats="2" />
    <path
       id="path1631"
       style="display:inline;fill:none;stroke:#000000;stroke-width:0.590544;stroke-miterlimit:4;stroke-dasharray:0.590544, 0.590544;stroke-dashoffset:0"
       inkscape:label="Queue"
       d="m 145.96875,83.330078 c -5.69791,0.575193 -12.79666,4.661432 -20.19141,12.146484 -5.69553,5.765098 -13.05776,15.331408 -17.33398,22.521488 -3.06321,5.15053 -7.08728,14.38268 -6.73242,15.44726 0.11696,0.35087 2.17725,-1.71827 4.57812,-4.59961 9.65569,-11.58796 27.29685,-27.83598 34.38086,-31.666012 8.3645,-4.52234 9.56787,0.27913 4.40235,17.568362 -4.04963,13.55423 -4.51563,15.72501 -4.51563,21.08203 0,9.33562 3.38549,15.58755 12.99219,23.99219 2.7608,2.41535 6.83302,5.98399 9.04883,7.93164 0.69543,0.61127 1.16262,1.11178 1.69726,1.64843 l 3.76563,-20.33398 c -4.80045,-0.56942 -10.06462,-5.08175 -11.94532,-10.59766 -1.54914,-4.54354 -1.40027,-15.40197 0.32032,-23.42773 1.58753,-7.40508 2.27753,-19.303403 1.32226,-22.794923 -1.79406,-6.55731 -6.09115,-9.493162 -11.78906,-8.917969 z"
       inkstitch:angle="45"
       inkstitch:fill_underlay_angle="0"
       inkstitch:repeats="2" />
  </g>
</svg>
