<?xml version="1.0" encoding="UTF-8" standalone="no"?>
<svg
   xmlns:inkstitch="http://inkstitch.org/namespace"
   xmlns:dc="http://purl.org/dc/elements/1.1/"
   xmlns:cc="http://creativecommons.org/ns#"
   xmlns:rdf="http://www.w3.org/1999/02/22-rdf-syntax-ns#"
   xmlns:svg="http://www.w3.org/2000/svg"
   xmlns="http://www.w3.org/2000/svg"
   xmlns:sodipodi="http://sodipodi.sourceforge.net/DTD/sodipodi-0.dtd"
   xmlns:inkscape="http://www.inkscape.org/namespaces/inkscape"
   version="1.1"
   id="svg1422"
   width="105mm"
   height="74mm"
   viewBox="0 0 396.85039 279.68505"
   sodipodi:docname="chat3 contour.svg"
   inkscape:version="1.0.1 (c497b03c, 2020-09-10)">
  <metadata
     id="metadata1428">
    <rdf:RDF>
      <cc:Work
         rdf:about="">
        <dc:format>image/svg+xml</dc:format>
        <dc:type
           rdf:resource="http://purl.org/dc/dcmitype/StillImage" />
        <dc:title />
      </cc:Work>
    </rdf:RDF>
    <inkstitch:thread-palette />
  </metadata>
  <defs
     id="defs1426">
    <symbol
       style="display:inline"
       id="inkstitch_satin_start">
      <title
         id="inkstitch_title9432-1">Satin column starting point</title>
      <path
         inkscape:connector-curvature="0"
         id="inkstitch_circle13166-6-2"
         d="M 9.2465269,-4.9265995e-6 C 9.246525,5.1067241 5.1067022,9.2465451 -2.715882e-5,9.2465451 -5.106756,9.2465451 -9.2465782,5.1067241 -9.2465801,-4.9265995e-6 -9.2465799,-5.1067349 -5.1067572,-9.2465579 -2.715882e-5,-9.2465579 c 2.45233855882,0 4.80423565882,0.974187 6.53830095882,2.708252 1.7340652,1.734066 2.708253,4.085963 2.7082531,6.5383009734005 0,0 0,0 0,0"
         style="opacity:1;vector-effect:none;fill:#fafafa;fill-opacity:1;fill-rule:evenodd;stroke:#003399;stroke-width:1.06501234;stroke-linecap:round;stroke-linejoin:miter;stroke-miterlimit:4;stroke-dasharray:3.19503705, 3.19503705;stroke-dashoffset:0;stroke-opacity:1" />
      <path
         inkscape:connector-curvature="0"
         style="opacity:1;vector-effect:none;fill:#000000;fill-opacity:1;fill-rule:evenodd;stroke:none;stroke-width:2.74180555;stroke-linecap:butt;stroke-linejoin:miter;stroke-miterlimit:4;stroke-dasharray:none;stroke-dashoffset:0;stroke-opacity:1"
         d="m 6.5728129,0.00355507 c 0,0 -10.4514,6.03412003 -10.4514,6.03412003 0,0 0,-12.06823 0,-12.06823 0,0 10.4514,6.03410997 10.4514,6.03410997"
         id="inkstitch_path4183-7" />
      <path
         inkscape:connector-curvature="0"
         style="display:inline;opacity:1;fill:none;fill-opacity:1;stroke:#ffffff;stroke-width:0.2;stroke-linejoin:miter;stroke-miterlimit:4;stroke-dasharray:none;stroke-dashoffset:0;stroke-opacity:1;paint-order:fill markers stroke"
         d="m -3.0312502,1.577739 c 0,0 0.25,-3.6875002 0.25,-3.6875002 0,0 1.0312501,3.8437502 1.0312501,3.8437502 0,0 0.34375,-3.6250002 0.34375,-3.6250002 0,0 0.96874997,3.5625002 0.96874997,3.5625002 0,0 0.28125,-3.3125002 0.28125,-3.3125002 0,0 0.9375001,3.3125002 0.9375001,3.3125002 0,0 0.21875,-3.0937502 0.21875,-3.0937502 0,0 1.03125013,2.9687502 1.03125013,2.9687502 0,0 0.0625,-2.7187501 0.0625,-2.7187501 0,0 0.96875,2.4687501 0.96875,2.4687501 0,0 0.15625,-2.18750023 0.15625,-2.18750023"
         id="path31975" />
    </symbol>
    <symbol
       id="inkstitch_ignore_layer">
      <title
         id="title9694">Ignore entire layer when generating stitch plan</title>
      <path
         inkscape:connector-curvature="0"
         style="opacity:1;vector-effect:none;fill:#fafafa;fill-opacity:1;fill-rule:evenodd;stroke:#ff0000;stroke-width:1.06501234;stroke-linecap:round;stroke-linejoin:miter;stroke-miterlimit:4;stroke-dasharray:3.19503705, 3.19503705;stroke-dashoffset:0;stroke-opacity:1"
         d="M 9.2465269,-4.9265995e-6 C 9.246525,5.1067241 5.1067028,9.2465451 -2.615882e-5,9.2465451 -5.1067554,9.2465451 -9.2465782,5.1067241 -9.2465801,-4.9265995e-6 -9.24658,-2.4523429 -8.2723922,-4.8042399 -6.538327,-6.5383059 c 1.7340653,-1.734065 4.0859624,-2.708252 6.53830084118,-2.708252 5.10673015882,0 9.24655285882,4.139823 9.24655305882,9.2465529734005 0,0 0,0 0,0"
         id="inkstitch_path25368-7" />
      <path
         sodipodi:nodetypes="ccccc"
         inkscape:connector-curvature="0"
         style="color:#000000;fill:#d5d5d5;fill-opacity:1;fill-rule:evenodd;stroke:#5a5a5a;stroke-width:0.63330007;stroke-linecap:square;stroke-linejoin:round;stroke-miterlimit:0;stroke-opacity:1"
         d="M 4,4.452769 1.46667,1.286102 H -5.5 l 2.53333,3.166667 z"
         id="use5800" />
      <path
         sodipodi:nodetypes="ccccc"
         inkscape:connector-curvature="0"
         style="color:#000000;opacity:0.5;fill:#d5d5d5;fill-opacity:1;fill-rule:evenodd;stroke:#858585;stroke-width:0.63339424;stroke-linecap:square;stroke-linejoin:round;stroke-miterlimit:0;stroke-opacity:1"
         d="M 4,2.552769 1.46667,-0.613898 H -5.5 l 2.53333,3.166667 z"
         id="use5864" />
      <g
         id="g5771">
        <path
           sodipodi:nodetypes="ccccccccc"
           inkscape:connector-curvature="0"
           style="fill:#aa0000;fill-rule:evenodd;stroke:#aa0000;stroke-width:1px"
           d="m -1.0666699,-5.0472339 h 4.4333333 l 0.6333333,0.6333333 V 0.01943274 L 3.3666634,0.65276607 H -1.0666699 L -1.7000032,0.01943274 V -4.4139006 Z"
           id="path8011" />
        <path
           inkscape:connector-curvature="0"
           id="path8023"
           d="m -0.43333658,-3.8755672 c 0,0 3.16666668,3.16666661 3.16666668,3.16666661"
           style="fill:none;stroke:#ffffff;stroke-width:1.70000005" />
        <path
           inkscape:connector-curvature="0"
           id="path8025"
           d="m 2.7333301,-3.8755672 c 0,0 -3.16666668,3.16666661 -3.16666668,3.16666661"
           style="fill:none;stroke:#ffffff;stroke-width:1.79999995;stroke-linejoin:round" />
      </g>
    </symbol>
  </defs>
  <sodipodi:namedview
     pagecolor="#ffffff"
     bordercolor="#666666"
     borderopacity="1"
     objecttolerance="10"
     gridtolerance="10"
     guidetolerance="10"
     inkscape:pageopacity="0"
     inkscape:pageshadow="2"
     inkscape:window-width="2560"
     inkscape:window-height="1315"
     id="namedview1424"
     showgrid="true"
     units="mm"
     inkscape:snap-grids="false"
     inkscape:snap-to-guides="false"
     inkscape:snap-global="false"
     inkscape:zoom="5.5200887"
     inkscape:cx="164.6695"
     inkscape:cy="123.34401"
     inkscape:window-x="0"
     inkscape:window-y="23"
     inkscape:window-maximized="0"
     inkscape:current-layer="g1430"
     inkscape:document-rotation="0">
    <inkscape:grid
       type="xygrid"
       id="grid1436" />
  </sodipodi:namedview>
  <g
     inkscape:label="Image"
     id="g1430"
     style="display:inline">
    <path
       id="path1549"
       style="display:inline;fill:#00602f;stroke-width:0.590544"
       d="m 243.96094,185.14258 c -0.3426,0.11275 -0.66715,0.27417 -1.02149,0.35351 -0.77084,0.17261 -1.56567,0.27682 -2.36718,0.35157 -1.60304,0.14949 -3.23468,0.18592 -4.75586,0.43945 -1.04454,0.17409 -2.05899,0.54765 -3.11524,0.62305 -1.86435,0.13317 -3.7366,0.0288 -5.60547,0 -4.88094,-0.0751 -9.77346,0.0353 -14.64258,-0.3125 -2.41796,-0.17271 -4.7661,-0.89084 -7.16406,-1.2461 -3.21064,-0.47565 -6.42139,-1.00632 -9.6582,-1.24609 -5.18188,-0.38384 -10.3823,-0.41537 -15.57422,-0.62305 -0.51919,0.10384 -1.02911,0.3125 -1.55859,0.3125 -0.23219,0 -0.39187,-0.2908 -0.62305,-0.3125 -7.82758,-0.73383 -8.61008,-0.55665 -9.49805,-0.63476 -0.88797,-0.0781 -1.88094,-0.41063 -10.12695,-2.16797 -3.40251,-0.72513 -6.80273,-1.3838 -10.14453,-2.23242 -1.6709,-0.42432 -3.32851,-0.89542 -4.96289,-1.44727 -0.19833,-0.067 -0.38827,-0.165 -0.58594,-0.23438 -0.80162,0.67698 -3.0597,0.77975 -13.61133,1.04883 -17.47211,0.44557 -26.98426,1.90051 -40.060544,6.13086 -18.59594,6.01605 -37.046259,19.7181 -48.830078,36.26172 -1.234561,1.73324 0.281488,0.47859 4.511718,-3.73047 17.29203,-17.20549 32.70258,-25.8446 54.72461,-30.67968 5.566704,-1.22222 7.620584,-1.34348 22.369144,-1.33008 19.41904,0.0176 21.52105,0.29296 58.16796,7.62109 34.41551,6.88192 46.62119,8.58295 61.5879,8.58399 28.52969,0.002 52.7819,-8.91913 75.1621,-27.64844 5.58601,-4.67471 15.22628,-14.41108 18.98438,-19.17188 1.6208,-2.05315 1.11237,-1.74133 -3.07812,1.88282 -21.9167,18.95446 -47.25894,28.13423 -81.12305,29.38476 -4.32583,0.15975 -6.00764,0.13989 -7.40039,0.0234 z"
       inkstitch:fill_underlay_angle="90"
       inkstitch:auto_fill="True"
       inkstitch:fill_underlay="True" />
    <path
       d="m 216.18411,24.406461 -1.46244,1.870982 -0.0522,0.07128 -1.34895,1.967163 -0.0297,0.04516 -2.54319,4.030051 -2.65105,3.850942 -1.4424,1.705625 -1.48741,1.431422 -1.56098,0.682374 -1.78851,0.517583 -1.87695,0.337936 -1.94581,0.201324 -4.08533,0.187631 -0.0179,9.35e-4 -4.03507,0.236444 -1.80353,-0.01301 -1.54143,-0.390566 -1.47684,-0.720191 -1.4277,-0.991014 -2.87515,-2.593654 -2.81606,-2.644203 -2.05805,-2.022293 -0.0761,-0.06956 -1.27073,-1.078716 -0.12088,-0.09193 -1.28622,-0.873644 -0.12856,-0.0777 -0.13606,-0.06366 -1.19534,-0.483801 -0.13976,-0.04825 -0.14404,-0.03343 -0.14673,-0.01824 -0.53035,-0.03797 -0.16059,-0.0024 -0.15983,0.01581 -0.15702,0.03379 -0.46773,0.128781 -0.13918,0.04619 -0.13367,0.06032 -0.12671,0.07381 -0.11842,0.08651 -0.39182,0.318627 -0.0979,0.08743 -0.0894,0.09611 -0.0801,0.103962 -0.0702,0.110926 -0.30262,0.531568 -0.0566,0.110324 -0.0467,0.114844 -0.0365,0.118488 -0.20012,0.767607 -0.0258,0.119883 -0.0153,0.121662 -0.0811,0.987979 -1.11225,8.078725 -0.003,0.02577 -0.96855,8.136395 -0.002,0.01784 -1.72344,16.2266 -0.2762,1.380117 -0.52746,0.989371 -0.78313,0.810518 -1.03295,0.661048 -1.2425,0.505331 -1.38251,0.344001 -1.44163,0.187985 -1.48077,0.04833 -0.025,0.001 -2.86578,0.144156 -0.0301,0.0018 -1.66604,0.119344 -0.11298,0.01266 -1.51633,0.231881 -0.13219,0.02671 -0.12906,0.03915 -1.13775,0.405188 -0.14645,0.06161 -0.13864,0.07762 -0.12908,0.09264 -0.35539,0.286575 -0.11369,0.102268 -0.102,0.113921 -0.0891,0.124246 -0.0752,0.133127 -0.17493,0.352691 -0.0515,0.116745 -0.0408,0.120903 -0.0297,0.124082 -0.0185,0.126253 -0.007,0.127402 0.004,0.127519 0.0342,0.426402 0.0191,0.14454 0.0339,0.141813 0.0482,0.137586 0.0621,0.131903 0.27184,0.507709 0.0795,0.130946 0.0932,0.121601 0.10575,0.110836 1.37115,1.289727 0.0357,0.03244 4.20963,3.697953 0.0408,0.03448 4.36338,3.550983 0.0828,0.06247 4.59738,3.212648 0.0928,0.05962 2.41152,1.419647 0.0798,0.04361 2.50011,1.2633 0.0949,0.04362 0.0978,0.03652 3.3229,1.103121 0.0567,0.01751 0.40935,0.117113 2.95128,0.844347 0.068,0.01765 6.80745,1.587151 0.0609,0.01279 6.87739,1.28814 0.0242,0.0043 6.78985,1.15002 1.40036,0.4573 0.093,0.02511 0.578,0.43715 0.30888,0.450192 0.29087,0.782384 0.28268,1.151118 0.51425,4.553616 0.23404,6.52747 -0.0209,4.41898 -0.17298,2.58257 -0.40388,1.61191 -0.79151,1.6702 -1.02517,1.7993 -0.79884,1.09216 -0.24688,0.19919 -1.9e-4,-1.5e-4 -0.53787,-0.9141 -0.68997,-1.74933 -0.78734,-2.52568 -0.003,-0.009 -1.32166,-4.14636 -0.0327,-0.0916 -1.38526,-3.49625 -0.0539,-0.11957 -1.43898,-2.83415 -0.0953,-0.16049 -1.48282,-2.16008 -0.0851,-0.11163 -0.0957,-0.10266 -1.51678,-1.47403 -0.11547,-0.10068 -0.12566,-0.0876 -0.76804,-0.476 -0.11418,-0.0637 -0.11957,-0.0529 -0.77282,-0.3 -0.14389,-0.0472 -0.14811,-0.0316 -0.77637,-0.12249 -0.16135,-0.0161 -0.16212,0.002 -0.77868,0.0565 -0.1564,0.0201 -0.15319,0.0374 -0.77976,0.237 -0.13207,0.0474 -0.12674,0.0602 -0.7796,0.419 -0.11987,0.0723 -0.11215,0.0837 -0.76333,0.63096 -0.0946,0.0856 -0.0865,0.0938 -0.73409,0.87151 -0.081,0.10583 -0.0707,0.11297 -1.37747,2.4515 -0.0505,0.0988 -0.0427,0.10251 -1.25159,3.37411 -0.0421,0.13342 -1.1198,4.27031 -0.0212,0.0935 -0.98207,5.14009 -0.0115,0.0693 -0.83844,5.98345 -0.006,0.0538 -0.68887,6.8004 -0.004,0.0435 -0.5334,7.59093 -4.7e-4,0.007 -0.25698,3.93729 -0.2761,1.61031 -0.50002,0.0403 -0.71927,-0.16436 -0.016,-0.004 -1.69728,-0.36727 -1.60567,-0.64467 -1.59648,-0.9298 -1.53143,-1.18439 -1.41347,-1.40363 -1.24588,-1.58474 -1.03212,-1.72604 -0.77555,-1.8255 -0.45574,-1.80085 -0.32605,-2.33896 -0.18167,-2.75391 -0.032,-3.02612 0.38671,-6.51413 0.41148,-3.19748 0.56456,-3.08772 0.005,-0.0267 0.79576,-4.87748 0.21492,-1.31725 0.0127,-0.1004 0.60401,-6.67032 0.005,-0.0974 0.12723,-5.936524 -0.002,-0.114142 -0.13708,-2.31516 -0.0172,-0.151554 -0.28256,-1.678193 -0.0241,-0.11414 -0.0334,-0.111773 -0.78795,-2.289451 -0.0814,-0.19013 -1.00969,-1.951233 -0.0595,-0.103953 -0.0681,-0.09856 -1.21851,-1.614309 -0.0857,-0.103027 -0.0951,-0.09447 -1.41443,-1.278679 -0.11036,-0.09011 -0.11885,-0.07858 -1.59742,-0.944343 -0.126,-0.06619 -0.132,-0.05322 -1.7675,-0.611301 -0.12828,-0.03769 -0.13126,-0.02544 -1.92465,-0.279553 -0.119,-0.01218 -0.11959,-0.0021 -2.0689,0.0509 -0.20639,0.02025 -2.20022,0.380059 -0.17262,0.04109 -2.31861,0.707904 -0.14242,0.05196 -2.42404,1.034434 -0.11742,0.05663 -2.51653,1.359649 -0.0975,0.0578 -2.59606,1.683548 -0.0817,0.05717 -2.66266,2.006133 -0.0693,0.05571 -2.7163,2.327402 -0.0595,0.05396 -2.75699,2.647355 -0.0651,0.06673 -4.5099,4.940031 -0.0544,0.06322 -4.68934,5.78635 -0.0433,0.0562 -4.42322,6.05353 -0.0459,0.0667 -3.71153,5.74159 -0.057,0.0964 -2.39414,4.43681 -0.0365,0.0726 -2.25385,4.81905 -0.033,0.0764 -1.61296,4.05294 -0.0419,0.12078 -0.40971,1.38031 -0.0344,0.14271 -0.0195,0.14551 -0.0618,0.75815 -0.005,0.13633 0.009,0.13612 0.0216,0.13467 0.0345,0.13197 0.047,0.12803 0.0591,0.12293 0.0707,0.11667 0.0815,0.10935 0.0917,0.10099 0.10095,0.0917 0.10931,0.0816 0.11664,0.0707 0.1229,0.0592 0.12802,0.0471 0.13195,0.0345 0.13466,0.0217 0.13612,0.009 0.13633,-0.004 0.13526,-0.0175 0.13296,-0.0305 0.1294,-0.0431 0.42706,-0.16548 0.12069,-0.0533 0.1152,-0.0643 0.10872,-0.0748 0.10129,-0.0846 1.00555,-0.92225 0.0978,-0.0989 3.14552,-3.51188 0.0115,-0.013 3.94158,-4.51065 4.45764,-4.73261 4.77569,-4.77526 4.87255,-4.61336 4.74787,-4.24749 4.39875,-3.67623 3.81483,-2.89385 2.97832,-1.89781 2.59292,-1.158945 0.90058,-0.224237 0.65967,-0.0364 0.38907,0.0861 0.23427,0.149951 0.22518,0.300833 0.22125,0.595748 0.14673,0.940366 0.0228,1.247744 -0.39656,3.51117 -1.00696,4.66112 -1.62342,5.85537 -2.41124,8.24946 -0.0132,0.0482 -1.36242,5.35604 -0.0264,0.12831 -0.60312,3.81907 -0.0164,0.16825 -0.13609,3.64799 7e-4,0.1219 0.16423,3.36654 m 79.11222,-113.113543 -1.43521,1.836155 -1.30866,1.90841 -2.54388,4.031143 -0.0312,0.04729 -2.70695,3.932149 -0.0852,0.111524 -1.53476,1.814842 -0.0994,0.106029 -1.72258,1.657733 -0.0941,0.08289 -0.1011,0.07424 -0.10727,0.06501 -0.11259,0.05528 -1.87815,0.821022 -0.17371,0.0628 -1.94796,0.56373 -0.14286,0.03344 -2.0016,0.360379 -0.10528,0.0149 -2.03907,0.210972 -0.0808,0.006 -4.11688,0.18908 -4.07266,0.238647 -0.0931,0.0024 -2.02171,-0.01459 -0.17026,-0.0115 -0.16763,-0.03188 -1.84946,-0.468616 -0.13913,-0.04297 -0.13399,-0.05702 -1.70592,-0.831904 -0.0956,-0.05122 -0.0914,-0.05838 -1.59112,-1.104451 -0.14116,-0.111921 -2.95268,-2.663587 -0.0208,-0.01916 -2.8381,-2.664901 -0.0232,-0.02229 -2.03272,-1.997401 -1.17343,-0.996111 -1.09853,-0.746161 -0.84592,-0.342376 -0.0461,0.081 -0.1219,0.467563 -0.0743,0.904187 -0.008,0.07729 -1.11578,8.104382 -0.96596,8.114578 -1.72935,16.282346 -0.0196,0.128443 -0.3299,1.648443 -0.0336,0.133865 -0.0465,0.129957 -0.0589,0.124818 -0.71903,1.348693 -0.0672,0.113034 -0.0774,0.106323 -0.0869,0.0987 -1.03652,1.072772 -0.12154,0.111934 -0.13375,0.09703 -1.28238,0.820678 -0.11229,0.06482 -0.11774,0.05429 -1.45661,0.592411 -0.19173,0.06249 -1.55923,0.387972 -0.15896,0.03004 -1.59021,0.207361 -0.13703,0.01114 -1.53706,0.05017 -2.83825,0.142771 -1.59428,0.114203 -1.32632,0.202825 -0.20107,0.07161 0.81564,0.7672 4.17145,3.664416 4.30243,3.501377 4.5096,3.151307 2.32474,1.368558 2.36613,1.195601 3.19546,1.06081 3.29829,0.943628 0.51567,0.120227 6.22724,1.451876 6.83471,1.280145 6.88121,1.165494 0.10257,0.0213 0.10071,0.02882 1.35995,0.444101 1.40205,0.152381 0.13943,0.02223 0.13653,0.03599 0.13227,0.0494 0.1267,0.06231 0.11987,0.07461 0.11185,0.08616 0.10273,0.09687 0.0926,0.106605 0.0815,0.115288 0.0696,0.122825 0.0571,0.129145 0.0439,0.134181 0.0304,0.137888 0.0165,0.140225 0.002,0.141171 -0.0116,0.140715 -0.0255,0.138864 -0.0392,0.135635 -0.011,0.02755 0.0983,0.143229 0.0893,0.149063 0.0704,0.158877 0.38025,1.022776 0.048,0.155902 0.32388,1.318901 0.0319,0.178955 0.53057,4.698102 0.008,0.10826 0.23701,6.61051 9e-4,0.0575 -0.0213,4.49179 -0.003,0.088 -0.1844,2.75317 -0.0141,0.12575 -0.0252,0.124 -0.46878,1.87092 -0.0406,0.13357 -0.0535,0.12893 -0.87438,1.84506 -0.0493,0.0947 -1.09152,1.91575 -0.0875,0.13508 -0.95598,1.30701 -0.0768,0.096 -0.0849,0.089 -0.0923,0.0813 -0.85186,0.68732 -0.11856,0.0859 -0.1268,0.0733 -0.13367,0.0598 -0.13913,0.0457 -0.39672,0.10785 -0.13786,0.0302 -0.14018,0.0163 -0.14111,0.002 -0.14064,-0.0117 -0.38247,-0.0512 -0.14957,-0.0283 -0.14567,-0.0441 -0.14009,-0.0595 -0.13291,-0.0742 -0.12419,-0.088 -0.73795,-0.58491 -0.0985,-0.0858 -0.0902,-0.0944 -0.0811,-0.10236 -0.0713,-0.10939 -0.72815,-1.23746 -0.0523,-0.0975 -0.0446,-0.10127 -0.74978,-1.90096 -0.0346,-0.0982 -0.8015,-2.5711 -1.30551,-4.09567 -1.34314,-3.38996 -1.36693,-2.69223 -1.35018,-1.96687 -1.30542,-1.26863 -0.52577,-0.32585 -0.50878,-0.1975 -0.46519,-0.0734 -0.45815,0.0333 -0.49344,0.14997 -0.53181,0.28583 -0.55645,0.45995 -0.56554,0.67141 -1.25747,2.23793 -1.18853,3.20411 -1.08986,4.15616 -0.96648,5.05846 -0.8298,5.9218 -0.68394,6.7517 -0.53162,7.56564 -0.26158,4.00783 -0.0174,0.14721 -0.35296,2.05852 -0.0262,0.12081 -0.0366,0.11806 -0.0468,0.11443 -0.0565,0.10992 -0.2854,0.49987 -0.0733,0.11515 -0.0841,0.10756 -0.094,0.099 -0.1031,0.0895 -0.11122,0.0791 -0.39787,0.25517 -0.12038,0.0691 -0.12656,0.057 -0.13154,0.0444 -0.13524,0.0313 -0.13765,0.0179 -1.25275,0.10088 -0.14398,0.004 -0.14366,-0.0104 -0.14187,-0.0249 -0.92366,-0.21107 -1.80639,-0.39088 -0.11563,-0.0302 -0.11268,-0.0398 -1.81279,-0.72782 -0.18522,-0.0905 -1.76609,-1.02858 -0.15378,-0.1036 -1.67431,-1.29489 -0.13161,-0.11546 -1.53745,-1.52675 -0.11552,-0.12972 -1.3555,-1.72418 -0.10221,-0.14857 -1.12846,-1.88716 -0.088,-0.17319 -0.85635,-2.01568 -0.0387,-0.1019 -0.0308,-0.10458 -0.50158,-1.98197 -0.0297,-0.15204 -0.34387,-2.46679 -0.0105,-0.10239 -0.18764,-2.84442 -0.003,-0.0783 -0.0329,-3.11485 0.002,-0.099 0.38272,-6.44683 0.01,-0.16535 0.009,-0.0969 0.42247,-3.28294 0.0115,-0.074 0.56886,-3.11125 1.00035,-6.13139 0.59503,-6.57126 0.12496,-5.830587 -0.1292,-2.181892 -0.25046,-1.487552 -0.71615,-2.080824 -0.90685,-1.752487 -1.06515,-1.411133 -1.20859,-1.092594 -1.35132,-0.798858 -1.5057,-0.520756 -1.67321,-0.243031 -1.84506,0.04539 -2.01017,0.34723 -2.16098,0.659779 -2.29421,0.979027 -2.40923,1.301681 -2.50663,1.625553 -2.58728,1.949342 -2.65202,2.272322 -2.69439,2.587239 -4.45033,4.874791 -4.64074,5.72638 -4.37839,5.99218 -3.65912,5.6605 -2.34821,4.35171 -2.219,4.74452 -0.16885,0.4243 0.29951,-0.33441 3.95328,-4.52403 0.0355,-0.0392 4.49033,-4.76731 0.0296,-0.0305 4.80438,-4.80393 0.0277,-0.027 4.90112,-4.64041 0.0295,-0.0271 4.78057,-4.27676 0.0361,-0.0312 4.44273,-3.71297 0.0523,-0.0417 3.88759,-2.94906 0.0949,-0.06609 3.11516,-1.985001 0.18329,-0.09867 2.80256,-1.252644 0.11615,-0.04589 0.11975,-0.03549 1.15242,-0.286945 0.13124,-0.02617 0.13313,-0.01367 0.98806,-0.05452 0.12889,-0.0012 0.12847,0.01047 0.12698,0.0221 0.82487,0.182551 0.12028,0.03222 0.11699,0.04266 0.1128,0.05276 0.10773,0.06246 0.66283,0.424252 0.10389,0.07326 0.0969,0.08227 0.0891,0.09063 0.0807,0.09825 0.50195,0.670587 0.0759,0.112257 0.0649,0.118996 0.0532,0.124648 0.34224,0.921556 0.0428,0.135653 0.0289,0.139257 0.18368,1.177161 0.0167,0.192597 0.0263,1.437405 -0.009,0.18498 -0.41496,3.67406 -0.023,0.14021 -1.03062,4.77063 -0.0196,0.0794 -1.63698,5.90428 -0.005,0.019 -2.40699,8.23493 -1.34009,5.26826 -0.57968,3.67066 -0.13066,3.50242 0.16126,3.30561 m 50.95796,-98.483877 0.24872,4.244688 m -9.02984,-5.830269 -2.55027,3.402253 m -17.55182,13.857476 4.22818,0.449078 m 2.00553,35.398003 1.20727,-4.076979 m 25.62004,30.987957 3.93985,1.59901 m -9.67795,-7.967 -3.953,1.56623 m -15.93936,6.64625 4.17642,0.79796 m -17.50999,-5.09731 -4.18263,-0.76476 m -36.96231,-13.75207 3.30338,2.67711 m 3.1363,9.04603 -2.92335,-3.08759 m 19.83383,12.07502 4.12074,1.0482"
       id="path1"
       style="fill:none;stroke:#000000;stroke-width:1px"
       inkstitch:satin_column="true" />
    <path
       d="m 139.32224,139.42603 0.51486,3.13881 0.042,0.18077 0.8987,2.97243 0.0685,0.18093 1.31579,2.86743 0.0865,0.16045 1.7661,2.82379 0.0904,0.12821 2.24965,2.84152 0.0822,0.0949 2.76643,2.92061 0.0677,0.0668 3.31643,3.06105 0.0271,0.0243 9.02159,7.90776 1.60667,1.56045 0.17433,0.21866 0.0647,0.0755 0.0514,0.0559 -0.72925,0.11668 -6.86826,0.60864 -6.20976,0.53006 -0.10505,0.0129 -3.77288,0.60828 -0.10821,0.0218 -0.10618,0.0302 -1.19116,0.38899 -0.13025,0.0497 -0.12473,0.0623 -0.84464,0.47521 -0.10861,0.0677 -0.10205,0.0773 -0.0947,0.0862 -0.58588,0.58367 -0.0835,0.0908 -0.0753,0.0977 -0.0665,0.10385 -0.36773,0.63319 -0.42304,0.54684 -0.0789,0.11301 -0.0676,0.12015 -0.0556,0.12614 -0.0431,0.13094 -0.0302,0.13451 -0.017,0.13681 -0.004,0.13781 0.01,0.1375 0.0231,0.13589 0.0362,0.13301 0.049,0.12886 0.0613,0.12349 0.073,0.11695 0.084,0.10932 0.0942,0.10063 0.10354,0.091 0.1119,0.0805 0.11918,0.0693 0.12535,0.0574 0.58594,0.23438 0.1296,0.0447 4.96289,1.44727 0.0788,0.0205 5.04949,1.16252 0.0267,0.006 5.08901,1.06863 7.81674,1.71238 0.0291,0.006 2.30421,0.45428 0.11297,0.0176 0.11402,0.008 2.11607,0.0704 7.02734,0.53846 0.0509,0.0269 0.0541,0.0271 0.31191,0.14811 0.12908,0.0537 0.13374,0.0407 0.1371,0.0273 0.13912,0.0137 0.13979,-1e-4 0.1391,-0.0139 0.78315,-0.11731 0.13601,-0.0272 0.58309,-0.14677 7.5806,0.23884 7.72774,0.37488 4.76979,0.52696 4.76245,0.70312 3.54357,0.6855 0.0528,0.009 3.58952,0.5546 0.16637,0.0157 7.31687,0.25852 0.0396,8.4e-4 7.31559,0.0539 2.79431,0.0605 h 0.0614 l 2.80104,-0.0607 0.1077,-0.006 0.1069,-0.0146 1.56201,-0.27452 0.065,-0.013 1.47644,-0.3313 2.24441,-0.24741 2.38396,-0.17886 0.10217,-0.0114 2.36718,-0.35157 0.12911,-0.0254 0.1262,-0.0372 1.02149,-0.35351 0.12894,-0.0518 0.12325,-0.0642 0.11636,-0.076 0.10837,-0.087 0.0993,-0.0972 0.0893,-0.10645 0.0785,-0.11469 0.0669,-0.12183 0.0546,-0.12779 0.0418,-0.13252 0.0286,-0.13598 0.0152,-0.13813 0.002,-0.13896 -0.012,-0.13845 -0.0255,-0.1366 -0.0388,-0.13345 -0.0516,-0.12901 -0.0641,-0.12334 -0.0758,-0.11646 -0.0868,-0.10849 -0.0971,-0.0994 -0.10633,-0.0895 -0.11458,-0.0786 -0.12174,-0.067 -0.12771,-0.0548 -0.13246,-0.042 -0.13594,-0.0288 -0.45437,-0.0733 0.66559,-0.91737 0.74549,-0.81387 0.77399,-0.62585 0.8694,-0.48992 1.04645,-0.38898 1.27209,-0.2959 3.587,-0.3741 2.72276,-0.17943 0.12471,-0.0138 0.123,-0.0248 1.13173,-0.28045 0.13006,-0.0389 0.12574,-0.0512 0.12026,-0.063 0.11369,-0.0742 0.10606,-0.0847 0.0975,-0.0945 0.088,-0.1034 0.0777,-0.11134 0.0667,-0.11826 0.0551,-0.1241 0.0429,-0.1288 0.0304,-0.13231 0.0176,-0.13461 0.0197,-0.23925 0.004,-0.14645 -0.0107,-0.14614 -0.0257,-0.14425 -0.0405,-0.14082 -0.0548,-0.1359 -0.0685,-0.12951 -0.0815,-0.12174 -0.0937,-0.11268 -0.31209,-0.33821 -0.10755,-0.10482 -0.11803,-0.0929 -1.49539,-1.05303 -1.78759,-1.38896 -0.0404,-0.05 1.20624,-0.56883 1.203,-0.3607 0.8313,-0.0411 1.18797,0.30596 2.17383,0.85194 0.0347,0.0131 2.88461,1.04423 0.13641,0.0418 0.95454,0.24032 0.11752,0.0243 0.11916,0.0143 0.11994,0.004 0.44208,-0.003 0.1423,-0.008 0.14076,-0.0225 0.13778,-0.0365 0.13342,-0.0502 0.12771,-0.0633 0.1207,-0.0758 0.11248,-0.0876 0.10312,-0.0984 0.0927,-0.10827 0.0814,-0.11703 0.0692,-0.12461 0.0563,-0.13093 0.0429,-0.13593 0.029,-0.13955 0.0149,-0.14177 0.0124,-0.228 10e-4,-0.12838 -0.0105,-0.12796 -0.022,-0.12649 -0.0334,-0.12397 -0.0445,-0.12044 -0.0552,-0.11593 -0.21344,-0.40062 -0.071,-0.1188 -0.0822,-0.11132 -1.00074,-1.22527 -0.10719,-0.11718 -3.57213,-3.49032 -0.075,-0.0682 -4.28574,-3.62632 -0.0745,-0.0589 -1.89276,-1.39528 -0.11384,-0.0757 -1.4499,-0.86662 -0.10098,-0.0549 -0.10509,-0.0466 -2.38443,-0.94267 -0.1047,-0.0367 -0.10724,-0.0284 -2.22409,-0.49709 -0.14417,-0.0245 -0.14593,-0.01 -2.1314,-0.0286 -0.1625,0.007 -0.1606,0.0257 -2.10639,0.46265 -0.14369,0.0396 -0.13873,0.0545 -2.14904,0.97679 -0.10353,0.0523 -0.0989,0.0606 -2.25935,1.5138 -0.1295,0.098 -2.43733,2.07365 -0.0788,0.0723 -2.68298,2.65636 -0.002,0.002 -3.06369,3.04325 -1.95991,1.52291 -0.45766,0.20311 -0.17885,0.0192 -0.0835,-0.0263 -0.13881,-0.10782 -0.14814,-0.25944 -0.12377,-0.73069 0.1048,-2.19123 0.60158,-3.60711 1.16347,-5.27736 1.77304,-7.22363 0.002,-0.007 2.83719,-11.81133 0.0128,-0.0588 1.77775,-9.08152 0.0123,-0.0729 0.56011,-3.94118 0.007,-0.0581 0.37746,-3.76764 0.006,-0.083 0.31663,-7.69324 0.001,-0.0799 -0.0852,-5.58383 -0.007,-0.11768 -0.19776,-2.00241 -0.0236,-0.15317 -0.33802,-1.60276 -0.0286,-0.11244 -0.0377,-0.10972 -0.50588,-1.29813 -0.0582,-0.12976 -0.0709,-0.12327 -0.70134,-1.08851 -0.0769,-0.10787 -0.0866,-0.10022 -0.92443,-0.97391 -0.13447,-0.12447 -1.17512,-0.95434 -0.11601,-0.0848 -0.80315,-0.52695 -0.14618,-0.0839 -0.15512,-0.066 -0.71313,-0.25439 -0.11994,-0.0369 -0.12273,-0.0261 -0.12456,-0.0152 -0.12541,-0.004 -0.12528,0.007 -0.68052,0.0684 -0.12869,0.0189 -0.12641,0.0307 -0.12307,0.0421 -0.11869,0.0532 -0.11331,0.0639 -0.7053,0.4414 -0.10602,0.0733 -0.0989,0.0826 -0.091,0.0912 -0.78748,0.86462 -0.11717,0.1472 -0.92707,1.33806 -0.0598,0.094 -2.50078,4.29446 -1.66253,2.82394 -1.45825,2.12217 -1.26167,1.44216 -1.01875,0.77971 -0.73454,0.24742 -0.6336,-0.0737 -0.82943,-0.46457 -1.07133,-1.02968 -1.49902,-1.89809 -1.12477,-1.95132 -0.94706,-2.41665 -0.93655,-3.28671 -0.65593,-2.97277 -0.35073,-2.543558 -0.0563,-2.045628 0.18847,-1.356166 9.6e-4,-0.0011 0.076,-0.100751 0.30519,-0.444206 0.0797,-0.130542 0.0652,-0.138367 0.0499,-0.144581 0.0292,-0.10242 3.43393,-2.076145 4.00827,-2.174878 8.22596,-4.177662 0.0191,-0.0099 4.08304,-2.152273 0.0478,-0.02641 3.98679,-2.30214 0.0724,-0.04477 3.83762,-2.534868 0.0934,-0.06726 3.63553,-2.850459 0.14133,-0.126993 2.01979,-2.075923 0.0237,-0.02494 2.15547,-2.32571 0.0912,-0.108921 0.92027,-1.217793 0.10017,-0.151928 0.7042,-1.23376 0.0645,-0.127527 0.0513,-0.133372 0.40478,-1.234236 0.0373,-0.13612 0.0235,-0.13915 0.01,-0.140799 0.022,-1.219218 -0.005,-0.141898 -0.0187,-0.140731 -0.0327,-0.138153 -0.0464,-0.134187 -0.0596,-0.128876 -0.0722,-0.122271 -0.084,-0.11444 -0.0951,-0.105461 -0.10512,-0.09542 -0.11414,-0.08443 -0.12201,-0.07259 -0.12866,-0.06001 -0.13402,-0.04684 -0.13804,-0.0332 -0.14066,-0.01922 -0.14188,-0.0051 -1.45256,0.02105 -0.19545,0.01641 -1.51926,0.234264 -0.0624,0.01106 -3.02591,0.606183 -1.30366,0.12322 -1.09826,-0.100923 -0.9043,-0.360386 -0.82157,-0.728066 -1.32911,-2.31516 -1.05851,-2.594072 -0.83002,-2.746243 -0.70464,-2.86876 -5.7e-4,-0.0023 -1.43912,-5.816521 -0.0326,-0.111825 -0.9514,-2.82586 -0.0571,-0.143255 -1.25649,-2.71382 -0.0124,-0.02608 -4.26737,-8.744897 -0.017,-0.03372 -2.24828,-4.311804 -0.0398,-0.07123 -2.48826,-4.167908 -0.0716,-0.108267 -0.0812,-0.101268 -0.0901,-0.09342 -0.0982,-0.08479 -0.36524,-0.287109 -0.12544,-0.08806 -0.13421,-0.074 -0.14142,-0.05908 -0.14697,-0.04347 -0.32031,-0.07616 m -75.50914,115.066778 0.4998,3.04705 0.84373,2.79062 1.23727,2.6963 1.67601,2.67975 2.16187,2.73064 2.69047,2.84043 3.2681,3.01644 9.03514,7.91965 0.0532,0.0491 1.69726,1.64843 0.12074,0.13316 0.19946,0.25018 1.18878,1.29347 0.0977,0.11859 0.34108,0.46312 0.0823,0.12502 0.0686,0.133 0.0542,0.13949 0.0392,0.14444 0.0517,0.23998 0.0222,0.13355 0.009,0.13505 -0.004,0.13533 -0.0165,0.13437 -0.0292,0.13217 -0.0417,0.12879 -0.0538,0.12422 -0.0654,0.11851 -0.0764,0.11173 -0.0867,0.10394 -0.0963,0.0952 -0.10491,0.0856 -0.11259,0.0752 -0.11925,0.0641 -0.12482,0.0524 -0.12924,0.0403 -0.13251,0.0277 -3.16186,0.5059 -0.0988,0.0123 -6.92016,0.61324 -0.005,4e-4 -6.15927,0.52576 -3.61138,0.58224 -0.95296,0.31121 -0.55425,0.31183 -0.0385,0.0383 3.60034,1.04993 4.99647,1.15031 5.08165,1.06708 0.012,0.003 7.8082,1.71051 2.17716,0.42923 2.03213,0.0676 0.0611,0.003 7.35138,0.56329 0.14389,0.0185 0.14124,0.0331 0.13712,0.0473 0.13156,0.0611 0.18682,0.0987 0.27866,-0.0417 0.7081,-0.17824 0.12871,-0.0261 0.13057,-0.0141 0.13132,-0.002 7.79088,0.24547 0.024,9.6e-4 7.78334,0.37758 0.087,0.007 4.83891,0.53459 0.0514,0.007 4.81929,0.71151 0.0622,0.0106 3.54824,0.68641 3.48033,0.53773 7.21342,0.25486 7.3059,0.0538 0.0202,2.9e-4 2.77372,0.0601 2.66223,-0.0577 1.42286,-0.25006 1.52089,-0.34127 0.15503,-0.0259 2.34723,-0.25874 0.0493,-0.005 2.35734,-0.17686 0.22109,-0.0328 -0.0378,-0.25603 -0.0137,-0.14199 6.6e-4,-0.14265 0.015,-0.14186 0.0292,-0.13963 0.0431,-0.136 0.0565,-0.13097 0.45854,-0.93082 0.0577,-0.10563 0.0665,-0.10036 0.83929,-1.15678 0.10204,-0.125 0.87166,-0.95161 0.0743,-0.0753 0.0797,-0.0695 0.94853,-0.76698 0.0949,-0.0704 0.10045,-0.0623 1.06992,-0.60291 0.0991,-0.0508 0.10283,-0.0429 1.23583,-0.45938 0.17273,-0.052 1.44625,-0.33641 0.17408,-0.0292 3.70182,-0.38608 0.0538,-0.005 0.68837,-0.0454 -1.3418,-1.04258 -0.12288,-0.10738 -0.10973,-0.12079 -0.50145,-0.62031 -0.0734,-0.0993 -0.0645,-0.10533 -0.055,-0.11054 -0.0452,-0.11491 -0.1892,-0.55017 -0.0378,-0.12995 -0.0253,-0.13297 -0.0125,-0.13477 4.2e-4,-0.13535 0.0133,-0.13469 0.0261,-0.13281 0.12212,-0.49476 0.0426,-0.14076 0.057,-0.13559 0.0707,-0.12895 0.0837,-0.12094 0.0958,-0.11161 0.43249,-0.4541 0.0944,-0.0904 0.10237,-0.0813 0.10943,-0.0716 0.11556,-0.0612 1.79235,-0.84522 0.0973,-0.0415 0.10014,-0.0342 1.46959,-0.44063 0.1668,-0.0392 0.17031,-0.0188 1.21837,-0.0602 0.14235,1.2e-4 0.14163,0.0144 0.13946,0.0285 1.47986,0.38113 0.16368,0.0529 1.86966,0.73274 -1.57969,-1.54351 -4.21074,-3.56286 -1.79944,-1.32648 -1.29225,-0.77239 -2.17386,-0.85943 -1.97227,-0.4408 -1.82114,-0.0245 -1.80056,0.39548 -1.90694,0.86675 -2.09519,1.40382 -2.33464,1.98628 -2.64414,2.61791 -3.12401,3.10317 -0.12921,0.11362 -2.16456,1.68193 -0.14198,0.0971 -0.15271,0.0792 -0.81865,0.36332 -0.13702,0.0525 -0.1417,0.038 -0.14488,0.0232 -0.69437,0.0746 -0.14585,0.008 -0.14591,-0.007 -0.14442,-0.022 -0.14139,-0.0367 -0.60867,-0.19193 -0.1181,-0.0431 -0.11382,-0.0534 -0.10865,-0.0633 -0.10261,-0.0726 -0.56156,-0.43618 -0.10525,-0.0903 -0.0959,-0.10019 -0.0856,-0.10908 -0.0746,-0.11694 -0.41216,-0.72183 -0.0569,-0.11058 -0.047,-0.11514 -0.0367,-0.1188 -0.0261,-0.12157 -0.19136,-1.12973 -0.0174,-0.15171 -9.3e-4,-0.1527 0.1161,-2.42766 0.0177,-0.16545 0.62133,-3.72549 0.0139,-0.072 1.17497,-5.32957 0.008,-0.0327 1.77621,-7.23653 2.82934,-11.77867 1.76488,-9.01574 0.55078,-3.8756 0.3704,-3.69709 0.31328,-7.6117 -0.0837,-5.48489 -0.18433,-1.86649 -0.298,-1.41303 -0.41181,-1.05675 -0.55205,-0.8568 -0.76974,-0.81095 -1.04799,-0.85109 -0.60131,-0.39452 -0.25304,-0.0903 -0.0336,0.003 -0.25967,0.16251 -0.59298,0.65106 -0.84165,1.21478 -2.47444,4.24924 -0.003,0.006 -1.68941,2.86959 -0.0532,0.0836 -1.53323,2.23128 -0.1014,0.13054 -1.40924,1.61085 -0.0979,0.10125 -0.10743,0.091 -1.31746,1.00833 -0.1281,0.0874 -0.13688,0.0729 -0.14402,0.0575 -1.25787,0.42369 -0.1504,0.0416 -0.15407,0.0248 -0.15586,0.008 -0.15576,-0.009 -1.23049,-0.14305 -0.13794,-0.023 -0.13501,-0.0365 -0.13076,-0.0496 -0.12523,-0.0622 -1.2353,-0.6919 -0.10249,-0.0633 -0.0967,-0.0717 -0.0903,-0.0797 -1.27231,-1.22286 -0.13014,-0.14343 -1.62323,-2.05536 -0.11565,-0.17063 -1.22935,-2.13275 -0.0494,-0.0936 -0.0423,-0.097 -1.01059,-2.57873 -0.0435,-0.12874 -0.96693,-3.39332 -0.021,-0.083 -0.67741,-3.07008 -0.02,-0.11178 -0.3691,-2.676806 -0.0128,-0.154613 -0.0617,-2.240861 0.002,-0.117309 0.0113,-0.116773 0.0692,-0.497655 -0.001,-0.0013 -0.098,-0.09992 -0.0876,-0.109095 -0.0764,-0.117203 -0.0645,-0.124169 -0.0519,-0.129924 -0.0389,-0.134413 -0.0254,-0.137592 -0.0118,-0.139431 0.002,-0.139909 0.0158,-0.139025 0.0295,-0.136786 0.0428,-0.133213 0.0557,-0.128341 0.0681,-0.12222 0.0798,-0.114906 0.0908,-0.106474 0.10084,-0.097 0.10992,-0.08659 0.11792,-0.07533 0.12477,-0.06333 0.13041,-0.05072 0.28832,-0.09604 0.0275,-0.01933 0.0295,-0.04299 0.11859,-0.415362 0.0423,-0.125691 0.0539,-0.121182 0.065,-0.115614 0.0755,-0.109032 0.0854,-0.101495 0.0945,-0.09307 0.10277,-0.08383 0.11017,-0.07386 3.93887,-2.381433 0.0574,-0.03288 4.05429,-2.19985 0.0342,-0.01794 8.23356,-4.181523 4.04934,-2.13451 3.92625,-2.267179 3.75404,-2.479665 3.51529,-2.756186 1.94141,-1.995352 2.09542,-2.260924 0.82242,-1.088301 0.58789,-1.029986 0.13048,-0.397849 -1.12611,0.173642 -3.0668,0.614374 -0.14503,0.02132 -1.50824,0.142557 -0.13153,0.0063 -0.13154,-0.0059 -1.43418,-0.131791 -0.13451,-0.0189 -0.13207,-0.03168 -0.12844,-0.04418 -1.32494,-0.528029 -0.11175,-0.05024 -0.107,-0.0597 -0.10143,-0.06872 -0.0951,-0.07722 -1.18051,-1.046155 -0.10902,-0.107684 -0.0968,-0.118824 -0.0834,-0.128576 -1.49188,-2.598677 -0.0831,-0.170185 -1.11953,-2.743615 -0.0444,-0.125425 -0.86008,-2.845724 -0.0197,-0.07197 -0.71326,-2.903839 -1.42483,-5.758775 -0.90816,-2.697435 -1.21798,-2.630642 -4.25274,-8.714944 -2.22068,-4.258869 -2.28013,-3.81929 -0.0526,-0.08811 0.0708,0.05567 m -68.95652,130.864978 3.08697,-2.92401 m 3.7837,16.21869 0.36163,4.23656 m 11.35855,9.61959 0.82244,-4.17167 m 37.81458,7.0143 0.80757,-4.17457 m 14.05639,5.65063 0.0313,-4.25185 m 32.1839,-4.21804 -0.43466,-4.2297 m -5.66287,-17.29503 0.1421,4.24959 m -9.94815,0.56379 2.75526,3.23848 m -5.92432,-21.20321 -4.13436,-0.99311 m -8.36607,-33.90824 3.50437,2.40804 m 4.46659,-27.98101 -1.98272,-3.761389 m 1.81046,-40.385249 -3.82127,1.864714"
       id="path2"
       style="fill:none;stroke:#000000;stroke-width:1px"
       inkstitch:satin_column="true" />
    <path
       d="m 216.70288,57.501694 1.85664,0.256009 1.21439,0.517007 1.20728,0.857372 1.51798,1.21044 0.10394,0.07544 0.11034,0.06572 0.11584,0.05546 1.44607,0.613464 0.74321,0.667492 0.36955,0.73736 0.0819,0.835459 -0.21529,0.929032 -0.53333,0.948202 -0.84606,0.867974 -1.2764,0.777733 -1.38533,0.800586 -1.42224,0.641189 -1.48844,0.506007 -1.53181,0.36609 -1.5519,0.222278 -1.54847,0.07549 -1.5939,-0.07674 m 5.01328,-14.757148 2.04411,0.281858 0.12332,0.0226 0.12085,0.03341 0.11741,0.04396 1.52925,0.651055 0.13673,0.0671 0.12874,0.08139 1.36415,0.968778 0.063,0.04742 1.39721,1.114136 1.48519,0.630063 0.14012,0.06878 0.13171,0.08377 0.12169,0.09774 1.11886,1.004861 0.0944,0.09314 0.0853,0.101556 0.0754,0.109085 0.0649,0.115657 0.60768,1.212504 0.0528,0.118741 0.0417,0.123083 0.0303,0.126389 0.0186,0.128632 0.13017,1.328721 0.007,0.1535 -0.01,0.153321 -0.0265,0.151339 -0.31366,1.35351 -0.0365,0.129371 -0.0486,0.125328 -0.0603,0.120159 -0.72382,1.286874 -0.0649,0.104417 -0.0736,0.09841 -0.0819,0.09166 -1.10031,1.12881 -0.0862,0.08134 -0.0927,0.07385 -0.0985,0.06585 -1.44313,0.87932 -0.0283,0.0168 -1.46127,0.844477 -0.12666,0.06494 -1.54917,0.698412 -0.12632,0.04981 -1.61531,0.549139 -0.12675,0.0366 -1.65972,0.396658 -0.12849,0.0245 -1.68239,0.240968 -0.13193,0.01264 -1.68332,0.08207 -0.13717,4.2e-5 -1.66249,-0.08004 m 5.28697,-13.992739 0.5808,-4.212114 m 6.21626,7.802557 2.84112,-3.163425 m -4.81885,7.700017 2.12752,3.68143 m -9.76308,-1.315963 0.20706,4.246924"
       id="path3"
       style="fill:none;stroke:#000000;stroke-width:1px"
       inkstitch:satin_column="true" />
    <path
       d="m 212.22089,69.465109 -1.51887,-0.230049 -1.28482,-0.389429 -1.34841,-0.613572 -1.27327,-0.799708 -1.06105,-0.928629 -0.73344,-0.979147 -0.37687,-1.022027 -0.0323,-0.404813 0.0589,-0.48301 0.17491,-0.526927 0.28966,-0.524425 0.75949,-0.789025 1.00225,-0.782682 2.4483,-1.439953 3.82471,-1.782429 2.01613,-0.213665 0.82704,-0.01924 0.93622,-0.02178 0.1377,-0.0099 0.13608,-0.02328 0.13318,-0.03641 0.12899,-0.04919 0.1236,-0.06151 0.11703,-0.07325 0.10935,-0.08428 0.10063,-0.09452 0.0909,-0.103865 0.0804,-0.112222 0.0691,-0.119513 0.0572,-0.125671 0.0447,-0.130636 0.0317,-0.134362 0.0185,-0.136813 0.005,-0.137965 -0.008,-0.137809 -0.0217,-0.136345 -0.0349,-0.133587 -0.0477,-0.129562 -0.0601,-0.124308 -0.0719,-0.117873 -0.083,-0.110321 -0.0934,-0.101721 -0.1028,-0.09216 -0.11127,-0.08172 -0.11871,-0.0705 -0.12499,-0.05862 -0.13011,-0.04618 -0.13399,-0.0333 -0.13658,-0.02011 -0.1379,-0.0067 h -4e-5 m -5.10008,17.587457 -1.61994,-0.245356 -0.19887,-0.04495 -1.47278,-0.446403 -0.1759,-0.06634 -1.52056,-0.69191 -0.16682,-0.08982 -1.44876,-0.909932 -0.0924,-0.06329 -0.0872,-0.0704 -1.25739,-1.100468 -0.10614,-0.103163 -0.0948,-0.11367 -0.94645,-1.26352 -0.0766,-0.113296 -0.0653,-0.120153 -0.0535,-0.125892 -0.51592,-1.399086 -0.0392,-0.123202 -0.0278,-0.126256 -0.0161,-0.12826 -0.0591,-0.741792 -0.004,-0.142251 0.0101,-0.141952 0.0933,-0.765376 0.024,-0.139018 0.0377,-0.13594 0.26075,-0.785524 0.0468,-0.121787 0.0578,-0.116973 0.44311,-0.802238 0.0644,-0.105474 0.0734,-0.09946 0.0817,-0.09269 0.95846,-0.995748 0.14879,-0.13416 1.15487,-0.901863 0.15381,-0.104628 2.58706,-1.521562 0.11984,-0.06298 4.10039,-1.910904 0.14488,-0.05804 0.15038,-0.04176 0.15406,-0.02497 2.30925,-0.244729 0.1164,-0.0075 1.82161,-0.04238 4.1e-4,0.01749 0.0325,2.795832 m -4.85694,11.226855 -0.63675,4.204022 m -5.48192,-7.354401 -3.40311,2.549123 m 5.92511,-7.226742 -2.15558,-3.665064 m 9.20532,1.029043 -0.0989,-4.250818"
       id="path4"
       style="fill:none;stroke:#000000;stroke-width:1px"
       inkstitch:satin_column="true" />
    <path
       d="m 185.71127,58.297844 1.01425,0.02213 0.30441,0.0841 0.12251,0.02807 0.89631,0.163883 0.18326,0.0213 2.42746,0.122902 2.0428,0.186496 1.50163,0.409457 1.0927,0.589411 0.79531,0.756527 0.59528,0.971554 0.43135,1.242534 0.27203,1.527577 0.10175,1.475873 -0.30284,0.643188 -0.4906,0.75835 -1.32653,1.372129 -1.60608,1.019816 -1.85909,0.706634 -2.13491,0.411632 m -3.99916,-15.347536 1.19068,0.02598 0.11677,0.0074 0.11577,0.01699 0.11397,0.02648 0.41386,0.114342 0.7435,0.135943 2.36378,0.119677 0.0572,0.0041 2.19529,0.200418 0.12297,0.01668 0.12103,0.02737 1.77859,0.484975 0.15343,0.05141 0.14658,0.06857 1.40254,0.756547 0.10772,0.06442 0.10159,0.07369 0.0947,0.08239 1.06717,1.015133 0.0854,0.08865 0.0774,0.09573 0.0688,0.102083 0.77246,1.260733 0.0727,0.134307 0.0578,0.141344 0.51842,1.493348 0.0325,0.107049 0.024,0.109278 0.30505,1.712977 0.0186,0.151007 0.13235,1.91962 0.003,0.144165 -0.0121,0.143682 -0.0266,0.141712 -0.0409,0.138275 -0.0547,0.133408 -0.50042,1.06283 -0.0923,0.16609 -0.61734,0.954267 -0.0803,0.111796 -0.0907,0.103481 -1.5396,1.59252 -0.12337,0.113358 -0.13588,0.09801 -1.86982,1.187288 -0.12483,0.07067 -0.13134,0.05769 -2.10843,0.801404 -0.11617,0.0385 -0.11907,0.02834 -2.25541,0.434867 m -2.5643,-14.333955 0.76476,-4.182628 m 6.72323,5.764608 2.93055,-3.080769 m -1.76673,8.701979 3.57004,2.309547 m -9.4392,1.170549 0.805,4.175071"
       id="path5"
       style="fill:none;stroke:#000000;stroke-width:1px"
       inkstitch:satin_column="true" />
    <path
       d="m 189.98687,70.786796 -2.20927,0.08383 -2.07111,-0.218686 -1.91696,-0.489946 -1.1713,-0.549947 -1.14314,-0.698914 -2.23334,-1.82225 -2.02777,-2.171644 -1.37165,-1.761608 0.258,-0.62174 0.0433,-0.119149 0.0325,-0.122542 0.25884,-1.188752 0.0186,-0.103981 0.12945,-0.919601 0.1296,-0.485342 0.14833,-0.198586 0.53415,-0.284675 1.38438,-0.320856 2.40488,-0.24421 4.63481,-0.252103 m 4.27517,15.323314 -2.31078,0.08768 -0.20257,-0.0068 -2.27454,-0.240165 -0.20214,-0.03631 -2.14668,-0.548659 -0.12784,-0.03918 -0.12357,-0.05105 -1.36323,-0.640063 -0.13695,-0.07373 -1.2917,-0.789751 -0.15671,-0.11106 -2.38231,-1.943795 -0.13991,-0.130866 -2.13663,-2.28824 -0.0824,-0.09654 -1.9179,-2.463151 -0.0782,-0.111085 -0.0672,-0.118066 -0.0556,-0.123962 -0.0435,-0.12872 -0.031,-0.132294 -0.0182,-0.134652 -0.005,-0.135774 0.008,-0.135646 0.0208,-0.134273 0.0335,-0.131666 0.046,-0.127848 0.52571,-1.266854 0.22054,-1.012863 0.13405,-0.952352 0.0342,-0.168104 0.22221,-0.83211 0.0409,-0.12843 0.0529,-0.123961 0.0645,-0.11837 0.0754,-0.11171 0.50118,-0.671015 0.0999,-0.119436 0.11238,-0.107761 0.12352,-0.09478 0.13317,-0.08066 0.97835,-0.521405 0.11159,-0.05336 0.11583,-0.04342 0.11916,-0.03316 1.65371,-0.383279 0.17682,-0.02935 2.52727,-0.256637 0.0662,-0.0052 4.66797,-0.253907 m 3.60303,14.639263 0.16122,4.248912 m -6.95351,-5.659368 -2.21795,3.62766 m -3.22335,-8.786657 -3.3549,2.612255 m 4.95791,-6.594974 -0.96003,-4.142171"
       id="path6"
       style="fill:none;stroke:#000000;stroke-width:1px"
       inkstitch:satin_column="true" />
    <path
       style="display:inline;fill:#ffe76d;stroke:none;stroke-width:1.26308;stroke-linecap:butt;stroke-linejoin:miter;stroke-miterlimit:4;stroke-dasharray:1.26308, 1.26308;stroke-dashoffset:0;stroke-opacity:1"
       d="m 185.53533,57.411497 c 2.79634,-0.790734 8.04408,10.46897 0.51231,13.264899 -5.51948,2.048954 -7.39496,-11.318694 -0.51231,-13.264899 z"
       id="path1440-3"
       sodipodi:nodetypes="sss"
       inkscape:label="oeil D"
       inkstitch:angle="90"
       inkstitch:fill_underlay_angle="90"
       inkstitch:repeats="2"
       inkstitch:satin_column="False"
       inkstitch:expand_mm="0.3"
       inkstitch:skip_last="False"
       inkstitch:manual_stitch="False"
       inkstitch:row_spacing_mm="0.2" />
    <path
       style="display:inline;fill:#ffe76d;stroke:none;stroke-width:1.26308;stroke-linecap:butt;stroke-linejoin:miter;stroke-miterlimit:4;stroke-dasharray:1.26308, 1.26308;stroke-dashoffset:0;stroke-opacity:1"
       d="m 216.06767,56.514572 c 2.79634,-0.790734 8.04408,10.468971 0.51231,13.2649 -5.51948,2.048954 -7.39496,-11.318695 -0.51231,-13.2649 z"
       id="path1440"
       sodipodi:nodetypes="sss"
       inkscape:label="oeil g"
       inkstitch:angle="90"
       inkstitch:fill_underlay_angle="90"
       inkstitch:repeats="2"
       inkstitch:satin_column="False"
       inkstitch:expand_mm="0.3"
       inkstitch:skip_last="False"
       inkstitch:manual_stitch="False"
       inkstitch:row_spacing_mm="0.2" />
    <path
       id="path1625"
       style="display:inline;fill:none;stroke:#006700;stroke-width:0.590544;stroke-miterlimit:4;stroke-dasharray:0.590544, 0.590544;stroke-dashoffset:0"
       d="m 243.96094,185.14258 c -0.3426,0.11275 -0.66715,0.27417 -1.02149,0.35351 -0.77084,0.17261 -1.56567,0.27682 -2.36718,0.35157 -1.60304,0.14949 -3.23468,0.18592 -4.75586,0.43945 -1.04454,0.17409 -2.05899,0.54765 -3.11524,0.62305 -1.86435,0.13317 -3.7366,0.0288 -5.60547,0 -4.88094,-0.0751 -9.77346,0.0353 -14.64258,-0.3125 -2.41796,-0.17271 -4.7661,-0.89084 -7.16406,-1.2461 -3.21064,-0.47565 -6.42139,-1.00632 -9.6582,-1.24609 -5.18188,-0.38384 -10.3823,-0.41537 -15.57422,-0.62305 -0.51919,0.10384 -1.02911,0.3125 -1.55859,0.3125 -0.23219,0 -0.39187,-0.2908 -0.62305,-0.3125 -7.82758,-0.73383 -8.61008,-0.55665 -9.49805,-0.63476 -0.88797,-0.0781 -1.88094,-0.41063 -10.12695,-2.16797 -3.40251,-0.72513 -6.80273,-1.3838 -10.14453,-2.23242 -1.6709,-0.42432 -3.32851,-0.89542 -4.96289,-1.44727 -0.19833,-0.067 -0.38827,-0.165 -0.58594,-0.23438 -0.80162,0.67698 -3.0597,0.77975 -13.61133,1.04883 -17.47211,0.44557 -26.98426,1.90051 -40.060544,6.13086 -18.59594,6.01605 -37.046259,19.7181 -48.830078,36.26172 -1.234561,1.73324 0.281488,0.47859 4.511718,-3.73047 17.29203,-17.20549 32.70258,-25.8446 54.72461,-30.67968 5.566704,-1.22222 7.620584,-1.34348 22.369144,-1.33008 19.41904,0.0176 21.52105,0.29296 58.16796,7.62109 34.41551,6.88192 46.62119,8.58295 61.5879,8.58399 28.52969,0.002 52.7819,-8.91913 75.1621,-27.64844 5.58601,-4.67471 15.22628,-14.41108 18.98438,-19.17188 1.6208,-2.05315 1.11237,-1.74133 -3.07812,1.88282 -21.9167,18.95446 -47.25894,28.13423 -81.12305,29.38476 -4.32583,0.15975 -6.00764,0.13989 -7.40039,0.0234 z"
       inkstitch:fill_underlay_angle="90"
       inkstitch:repeats="2"
       sodipodi:insensitive="true" />
    <path
       id="path1633"
       style="display:inline;fill:none;stroke:#000000;stroke-width:0.590544;stroke-miterlimit:4;stroke-dasharray:0.590544, 0.590544;stroke-dashoffset:0"
       inkscape:label="Tete"
       d="m 217.30078,25.279297 c -4.09577,4.823523 -6.44578,11.122718 -11.33435,15.296338 -4.90095,2.580398 -10.71852,1.841207 -16.07365,2.385014 -5.64644,0.647123 -9.14932,-4.5156 -12.95918,-7.747046 -2.0562,-2.108603 -7.68184,-7.942665 -7.79916,-1.734624 -1.6161,10.805919 -2.67378,21.68765 -3.81548,32.543732 -0.29725,4.816695 -5.50954,6.181963 -9.52382,6.128969 -2.79623,0.270232 -11.32009,-0.202876 -6.04003,3.764571 5.546,4.943533 11.28926,10.005393 18.08327,13.144471 8.80477,3.150361 18.08293,4.552239 27.26071,6.107877 2.67633,1.259224 5.68036,0.336111 8.53959,0.421129 1.70674,-0.37012 4.32684,0.75596 4.6953,-1.671759 10.30273,-6.666254 22.40194,-10.511725 31.7802,-18.607393 2.30632,-2.546287 6.75179,-6.089186 6.22615,-9.306639 -3.75326,-0.336483 -8.59355,2.902111 -11.51772,-0.686819 -4.5752,-6.698486 -3.9736,-15.401163 -7.83142,-22.450559 -2.90662,-5.78037 -5.47242,-11.796794 -9.00461,-17.223585 l -0.36527,-0.287593 z m -4.53516,31.105469 c 6.89954,-0.936784 7.49311,0.447841 10.61798,2.849609 5.19293,1.402082 4.21334,6.968988 -0.0622,8.899919 -3.76022,2.443838 -8.68864,3.36446 -12.93239,2.486905 -3.75742,-0.838632 -9.30038,-4.589463 -6.42421,-8.906528 2.22474,-2.780393 7.37604,-4.560537 8.80078,-5.329905 1e-5,-6e-6 4e-5,0 4e-5,0 z m -31.69235,0.749332 c 9.62072,-0.625944 3.25901,0.04889 9.68623,0.191965 6.44588,0.143494 8.01325,3.460436 8.17204,8.843403 -2.33682,5.962232 -10.14942,7.189892 -15.62199,5.33267 -3.73364,-1.488415 -6.66906,-4.799152 -9.09242,-8.124611 2.12884,-3.962405 -1.22415,-5.717707 6.85614,-6.243427 z"
       sodipodi:nodetypes="cccccccccccccccccccsccccsssscccs"
       inkstitch:repeats="2"
       sodipodi:insensitive="true" />
    <path
       id="path1629"
       style="display:inline;fill:none;stroke:#000000;stroke-width:0.590544;stroke-miterlimit:4;stroke-dasharray:0.590544, 0.590544;stroke-dashoffset:0"
       inkscape:label="Corps"
       d="m 207.57422,95.419922 -10.50195,0.453125 c 1.28036,0.708353 1.59977,1.747043 2.03906,3.728515 0.4068,1.834928 0.75218,6.923798 0.76758,11.308598 0.0265,7.52874 -0.0587,8.13748 -1.54883,10.96093 -3.1194,5.91055 -4.45764,5.44478 -6.69727,-2.33203 -3.43084,-11.91312 -7.6455,-17.01952 -11.80078,-14.29687 -4.1478,2.71774 -7.07925,15.84022 -8.28906,37.11328 -0.39462,6.93894 -0.39449,6.93878 -2.55078,6.92578 -0.30406,-0.002 -0.62261,-0.17623 -0.93164,-0.21289 l -3.76563,20.33398 c 0.14567,0.14622 0.0958,0.14987 0.23047,0.28907 l 61.17578,1.8457 c -0.16049,-2.50779 0.89716,-7.65972 3.68945,-18.72266 4.58664,-18.17146 5.76348,-25.44452 5.86915,-36.29492 0.0886,-9.10206 -0.43531,-10.90068 -3.92774,-13.50391 -2.31279,-1.72395 -3.05312,-1.07636 -7.11914,6.22852 -4.74195,8.51923 -7.47452,10.03893 -10.94531,6.08594 -2.50471,-2.85271 -3.49213,-4.92886 -4.83008,-10.16016 -1.10913,-4.33667 -1.39381,-7.738371 -0.86328,-9.749998 z"
       inkstitch:fill_underlay_angle="45"
       inkstitch:angle="90"
       inkstitch:repeats="2"
       sodipodi:insensitive="true" />
    <path
       id="path1627"
       style="display:inline;fill:none;stroke:#000000;stroke-width:0.590544;stroke-miterlimit:4;stroke-dasharray:0.590544, 0.590544;stroke-dashoffset:0"
       inkscape:label="Patte"
       d="m 225.70117,171.53711 c -10.19891,1.20134 -20.39782,0.99373 -30.59673,0.77993 -11.05011,-0.58951 -22.33343,-1.10129 -30.57905,-2.62563 0.94582,0.97772 1.77561,1.89148 1.61523,2.0332 -0.26696,0.23595 -4.804,0.74007 -10.08203,1.11914 -10.22086,0.73407 -12.06512,1.2018 -13.02148,3.30078 -0.1207,0.26489 -0.27573,0.44819 -0.48047,0.62109 0.19767,0.0694 0.38761,0.16741 0.58594,0.23438 1.63438,0.55185 3.29199,1.02295 4.96289,1.44727 3.3418,0.84862 6.74202,1.50729 10.14453,2.23242 8.24601,1.75734 9.23898,2.08985 10.12695,2.16797 0.88797,0.0781 1.67047,-0.0991 9.49805,0.63476 0.23118,0.0217 0.39086,0.3125 0.62305,0.3125 0.52948,0 1.0394,-0.20866 1.55859,-0.3125 5.19192,0.20768 10.39234,0.23921 15.57422,0.62305 3.23681,0.23977 6.44756,0.77044 9.6582,1.24609 2.39796,0.35526 4.74611,1.07339 7.16406,1.2461 4.86914,0.3478 9.76164,0.23741 14.64258,0.3125 1.86887,0.0288 3.74112,0.13317 5.60547,0 1.05625,-0.0754 2.0707,-0.44896 3.11524,-0.62305 1.52118,-0.25353 3.15282,-0.28996 4.75586,-0.43945 0.80151,-0.0747 1.59634,-0.17896 2.36718,-0.35157 0.35434,-0.0793 0.67889,-0.24076 1.02149,-0.35351 -2.00514,-0.16766 -2.47678,-0.65781 -1.50196,-2.13086 2.23452,-3.3766 4.33943,-4.34545 10.11329,-4.66016 4.8311,-0.26333 4.83059,-0.26397 2.0664,-2.11133 -3.42974,-2.2922 -3.49872,-3.36433 -0.28711,-4.47461 2.3548,-0.81405 2.67247,-0.77608 6.42188,0.76368 2.16937,0.89089 4.09586,1.46665 4.28125,1.28125 0.71409,-0.71406 -9.31048,-9.79302 -12.40235,-11.23243 -6.63243,-3.08761 -10.83272,-1.66604 -18.375,6.21485 -4.94387,5.16582 -6.50364,6.06472 -7.97265,4.5957 -0.35173,-0.35172 -0.5462,-0.95597 -0.60352,-1.85156 z"
       inkstitch:repeats="2"
       sodipodi:nodetypes="cccssscsssssscsssssssscsssssscssc"
       sodipodi:insensitive="true" />
    <path
       id="path1631"
       style="display:inline;fill:none;stroke:#000000;stroke-width:0.590544;stroke-miterlimit:4;stroke-dasharray:0.590544, 0.590544;stroke-dashoffset:0"
       inkscape:label="Queue"
       d="m 145.96875,83.330078 c -5.69791,0.575193 -12.79666,4.661432 -20.19141,12.146484 -5.69553,5.765098 -13.05776,15.331408 -17.33398,22.521488 -3.06321,5.15053 -7.08728,14.38268 -6.73242,15.44726 0.11696,0.35087 2.17725,-1.71827 4.57812,-4.59961 9.65569,-11.58796 27.29685,-27.83598 34.38086,-31.666012 8.3645,-4.52234 9.56787,0.27913 4.40235,17.568362 -4.04963,13.55423 -4.51563,15.72501 -4.51563,21.08203 0,9.33562 3.38549,15.58755 12.99219,23.99219 2.7608,2.41535 6.83302,5.98399 9.04883,7.93164 0.69543,0.61127 1.16262,1.11178 1.69726,1.64843 l 3.76563,-20.33398 c -4.80045,-0.56942 -10.06462,-5.08175 -11.94532,-10.59766 -1.54914,-4.54354 -1.40027,-15.40197 0.32032,-23.42773 1.58753,-7.40508 2.27753,-19.303403 1.32226,-22.794923 -1.79406,-6.55731 -6.09115,-9.493162 -11.78906,-8.917969 z"
       inkstitch:angle="45"
       inkstitch:fill_underlay_angle="0"
       inkstitch:repeats="2"
       sodipodi:insensitive="true" />
  </g>
</svg>
