<?xml version="1.0" encoding="UTF-8" standalone="no"?>
<svg
   xmlns:inkstitch="http://inkstitch.org/namespace"
   xmlns:dc="http://purl.org/dc/elements/1.1/"
   xmlns:cc="http://creativecommons.org/ns#"
   xmlns:rdf="http://www.w3.org/1999/02/22-rdf-syntax-ns#"
   xmlns:svg="http://www.w3.org/2000/svg"
   xmlns="http://www.w3.org/2000/svg"
   xmlns:sodipodi="http://sodipodi.sourceforge.net/DTD/sodipodi-0.dtd"
   xmlns:inkscape="http://www.inkscape.org/namespaces/inkscape"
   width="148mm"
   height="210mm"
   viewBox="0 0 148 210"
   version="1.1"
   id="svg8"
   inkscape:version="1.0.1 (c497b03c, 2020-09-10)"
   sodipodi:docname="confiture.svg">
  <defs
     id="defs2">
    <inkscape:path-effect
       effect="bspline"
       id="path-effect888"
       is_visible="true"
       lpeversion="1"
       weight="33.333333"
       steps="2"
       helper_size="0"
       apply_no_weight="true"
       apply_with_weight="true"
       only_selected="false" />
    <inkscape:path-effect
       effect="bspline"
       id="path-effect865"
       is_visible="true"
       lpeversion="1"
       weight="33.333333"
       steps="2"
       helper_size="0"
       apply_no_weight="true"
       apply_with_weight="true"
       only_selected="false" />
    <inkscape:path-effect
       effect="skeletal"
       id="path-effect861"
       is_visible="true"
       lpeversion="1"
       pattern="M 0,5 C 0,2.24 2.24,0 5,0 7.76,0 10,2.24 10,5 10,7.76 7.76,10 5,10 2.24,10 0,7.76 0,5 Z"
       copytype="single_stretched"
       prop_scale="1"
       scale_y_rel="false"
       spacing="0"
       normal_offset="0"
       tang_offset="0"
       prop_units="false"
       vertical_pattern="false"
       hide_knot="false"
       fuse_tolerance="0" />
    <inkscape:path-effect
       effect="bspline"
       id="path-effect859"
       is_visible="true"
       lpeversion="1"
       weight="33.333333"
       steps="2"
       helper_size="0"
       apply_no_weight="true"
       apply_with_weight="true"
       only_selected="false" />
    <inkscape:path-effect
       effect="skeletal"
       id="path-effect855"
       is_visible="true"
       lpeversion="1"
       pattern="M 0,5 C 0,2.24 2.24,0 5,0 7.76,0 10,2.24 10,5 10,7.76 7.76,10 5,10 2.24,10 0,7.76 0,5 Z"
       copytype="single_stretched"
       prop_scale="1"
       scale_y_rel="false"
       spacing="0"
       normal_offset="0"
       tang_offset="0"
       prop_units="false"
       vertical_pattern="false"
       hide_knot="false"
       fuse_tolerance="0" />
    <inkscape:path-effect
       effect="bspline"
       id="path-effect853"
       is_visible="true"
       lpeversion="1"
       weight="33.333333"
       steps="2"
       helper_size="0"
       apply_no_weight="true"
       apply_with_weight="true"
       only_selected="false" />
    <symbol
       id="inkstitch_ignore_layer">
      <title
         id="title9694">Ignore entire layer when generating stitch plan</title>
      <path
         inkscape:connector-curvature="0"
         style="opacity:1;vector-effect:none;fill:#fafafa;fill-opacity:1;fill-rule:evenodd;stroke:#ff0000;stroke-width:1.06501234;stroke-linecap:round;stroke-linejoin:miter;stroke-miterlimit:4;stroke-dasharray:3.19503705, 3.19503705;stroke-dashoffset:0;stroke-opacity:1"
         d="M 9.2465269,-4.9265995e-6 C 9.246525,5.1067241 5.1067028,9.2465451 -2.615882e-5,9.2465451 -5.1067554,9.2465451 -9.2465782,5.1067241 -9.2465801,-4.9265995e-6 -9.24658,-2.4523429 -8.2723922,-4.8042399 -6.538327,-6.5383059 c 1.7340653,-1.734065 4.0859624,-2.708252 6.53830084118,-2.708252 5.10673015882,0 9.24655285882,4.139823 9.24655305882,9.2465529734005 0,0 0,0 0,0"
         id="inkstitch_path25368-7" />
      <path
         sodipodi:nodetypes="ccccc"
         inkscape:connector-curvature="0"
         style="color:#000000;fill:#d5d5d5;fill-opacity:1;fill-rule:evenodd;stroke:#5a5a5a;stroke-width:0.63330007;stroke-linecap:square;stroke-linejoin:round;stroke-miterlimit:0;stroke-opacity:1"
         d="M 4,4.452769 1.46667,1.286102 H -5.5 l 2.53333,3.166667 z"
         id="use5800" />
      <path
         sodipodi:nodetypes="ccccc"
         inkscape:connector-curvature="0"
         style="color:#000000;opacity:0.5;fill:#d5d5d5;fill-opacity:1;fill-rule:evenodd;stroke:#858585;stroke-width:0.63339424;stroke-linecap:square;stroke-linejoin:round;stroke-miterlimit:0;stroke-opacity:1"
         d="M 4,2.552769 1.46667,-0.613898 H -5.5 l 2.53333,3.166667 z"
         id="use5864" />
      <g
         id="g5771">
        <path
           sodipodi:nodetypes="ccccccccc"
           inkscape:connector-curvature="0"
           style="fill:#aa0000;fill-rule:evenodd;stroke:#aa0000;stroke-width:1px"
           d="m -1.0666699,-5.0472339 h 4.4333333 l 0.6333333,0.6333333 V 0.01943274 L 3.3666634,0.65276607 H -1.0666699 L -1.7000032,0.01943274 V -4.4139006 Z"
           id="path8011" />
        <path
           inkscape:connector-curvature="0"
           id="path8023"
           d="m -0.43333658,-3.8755672 c 0,0 3.16666668,3.16666661 3.16666668,3.16666661"
           style="fill:none;stroke:#ffffff;stroke-width:1.70000005" />
        <path
           inkscape:connector-curvature="0"
           id="path8025"
           d="m 2.7333301,-3.8755672 c 0,0 -3.16666668,3.16666661 -3.16666668,3.16666661"
           style="fill:none;stroke:#ffffff;stroke-width:1.79999995;stroke-linejoin:round" />
      </g>
    </symbol>
  </defs>
  <sodipodi:namedview
     id="base"
     pagecolor="#ffffff"
     bordercolor="#666666"
     borderopacity="1.0"
     inkscape:pageopacity="0.0"
     inkscape:pageshadow="2"
     inkscape:zoom="1.27"
     inkscape:cx="262.56383"
     inkscape:cy="396.85039"
     inkscape:document-units="mm"
     inkscape:current-layer="layer1"
     inkscape:document-rotation="0"
     showgrid="false"
     inkscape:window-width="1434"
     inkscape:window-height="1174"
     inkscape:window-x="0"
     inkscape:window-y="23"
     inkscape:window-maximized="0" />
  <metadata
     id="metadata5">
    <rdf:RDF>
      <cc:Work
         rdf:about="">
        <dc:format>image/svg+xml</dc:format>
        <dc:type
           rdf:resource="http://purl.org/dc/dcmitype/StillImage" />
        <dc:title />
      </cc:Work>
    </rdf:RDF>
  </metadata>
  <g
     inkscape:label="Calque 1"
     inkscape:groupmode="layer"
     id="layer1">
    <path
       d="m 124.93571,346.90384 0.0841,5.05101 0.004,0.12565 0.25093,5.02353 0.008,0.12513 0.4158,4.9926 0.0124,0.12445 0.57867,4.95824 0.0165,0.12364 0.73956,4.92043 0.0205,0.12269 0.89846,4.87918 0.0245,0.12163 1.05538,4.83448 0.0284,0.12045 1.2103,4.78635 0.0322,0.11917 1.36324,4.73477 0.036,0.1178 1.51419,4.67974 0.0397,0.11633 1.66315,4.62128 0.0434,0.11478 1.81012,4.55937 0.0471,0.11314 1.95512,4.49403 0.0506,0.11142 2.09812,4.42523 0.0542,0.10964 2.23913,4.353 0.0577,0.10777 2.37815,4.27732 0.0611,0.10583 2.51519,4.1982 0.0645,0.10382 2.65024,4.11564 0.0679,0.10173 2.78331,4.02964 0.0712,0.0996 2.91439,3.94019 0.0744,0.0973 3.04347,3.8473 0.0777,0.095 3.17057,3.75097 0.0809,0.0926 3.29568,3.6512 0.084,0.0901 3.4188,3.54798 0.0871,0.0875 3.53995,3.44132 0.0901,0.0848 3.6591,3.33122 0.0931,0.082 3.77626,3.21768 0.096,0.0791 3.89143,3.10069 0.0988,0.0761 4.00462,2.98027 0.10155,0.073 4.11583,2.8564 0.10419,0.0698 4.22504,2.72908 0.10672,0.0664 4.33226,2.59833 0.10897,0.0629 4.41635,2.45268 0.11091,0.0592 4.47597,2.29445 0.11253,0.0553 4.53162,2.13621 0.114,0.0514 4.5833,1.97797 0.11532,0.0475 4.631,1.81974 0.11651,0.0436 4.67472,1.6615 0.11757,0.0396 4.71448,1.50326 0.1185,0.0357 4.75024,1.34502 0.11932,0.0317 4.78205,1.18678 0.12002,0.0277 4.80987,1.02855 0.12061,0.0237 4.83373,0.87031 0.12111,0.0198 4.85359,0.71207 0.12151,0.0158 4.8695,0.55383 0.12182,0.0119 4.88142,0.3956 0.12203,0.008 4.88937,0.23736 0.12216,0.004 4.89335,0.0791 h 0.1222 l 4.89335,-0.0791 0.12216,-0.004 4.88937,-0.23736 0.12203,-0.008 4.88142,-0.3956 0.12182,-0.0119 4.8695,-0.55383 0.12151,-0.0158 4.85359,-0.71207 0.12111,-0.0198 4.83372,-0.87031 0.12062,-0.0237 4.80987,-1.02855 0.12002,-0.0277 4.78205,-1.18678 0.11932,-0.0317 4.75024,-1.34502 0.1185,-0.0357 4.71448,-1.50326 0.11757,-0.0396 4.67472,-1.6615 0.11651,-0.0436 4.631,-1.81974 0.11532,-0.0475 4.5833,-1.97797 0.114,-0.0514 4.53162,-2.13621 0.11253,-0.0553 4.47597,-2.29445 0.11091,-0.0592 4.41635,-2.45268 0.10896,-0.0629 4.33227,-2.59833 0.10672,-0.0664 4.22504,-2.72908 0.10419,-0.0698 4.11583,-2.8564 0.10155,-0.073 4.00462,-2.98027 0.0988,-0.0761 3.89143,-3.10069 0.096,-0.0791 3.77626,-3.21768 0.0931,-0.082 3.6591,-3.33122 0.0901,-0.0848 3.53994,-3.44132 0.0871,-0.0875 3.4188,-3.54798 0.084,-0.0901 3.29568,-3.6512 0.0809,-0.0926 3.17057,-3.75097 0.0777,-0.095 3.04347,-3.8473 0.0745,-0.0973 2.91438,-3.94019 0.0712,-0.0996 2.78331,-4.02964 0.0679,-0.10173 2.65024,-4.11564 0.0645,-0.10382 2.51519,-4.1982 0.0611,-0.10583 2.37815,-4.27732 0.0577,-0.10777 2.23913,-4.353 0.0542,-0.10964 2.09812,-4.42523 0.0506,-0.11142 1.95512,-4.49403 0.0471,-0.11314 1.81012,-4.55937 0.0434,-0.11478 1.66315,-4.62128 0.0397,-0.11633 1.51419,-4.67974 0.036,-0.1178 1.36324,-4.73477 0.0322,-0.11917 1.2103,-4.78635 0.0284,-0.12045 1.05538,-4.83448 0.0245,-0.12163 0.89846,-4.87918 0.0205,-0.12269 0.73956,-4.92043 0.0165,-0.12364 0.57867,-4.95824 0.0124,-0.12445 0.4158,-4.9926 0.008,-0.12513 0.25093,-5.02353 0.004,-0.12565 0.0841,-5.05101 m -302.36224,-0.12582 0.083,4.98815 0.24468,4.89811 0.4054,4.86779 0.5642,4.83416 0.72104,4.79723 0.87597,4.75698 1.02894,4.71341 1.18,4.6665 1.32911,4.61625 1.47631,4.56265 1.62155,4.5057 1.76487,4.44538 1.90626,4.38171 2.0457,4.31468 2.1832,4.24426 2.31875,4.1705 2.45238,4.09335 2.58404,4.01284 2.71377,3.92896 2.84155,3.84172 2.96738,3.75112 3.09127,3.65715 3.21322,3.55984 3.33323,3.45918 3.4513,3.35515 3.56746,3.2478 3.68169,3.1371 3.794,3.02306 3.90441,2.90569 4.01293,2.78498 4.11955,2.66095 4.22439,2.53363 4.30638,2.39161 4.36422,2.23716 4.41833,2.0828 4.46861,1.92848 4.51504,1.77417 4.55765,1.61989 4.59641,1.46561 4.6313,1.31134 4.66235,1.15708 4.68952,1.00281 4.71283,0.84854 4.73225,0.69426 4.7478,0.53999 4.75947,0.38572 4.76724,0.23142 4.77113,0.0772 4.77113,-0.0772 4.76724,-0.23142 4.75947,-0.38572 4.7478,-0.53999 4.73225,-0.69426 4.71283,-0.84854 4.68952,-1.00281 4.66235,-1.15708 4.6313,-1.31134 4.59641,-1.46561 4.55765,-1.61989 4.51504,-1.77417 4.46861,-1.92848 4.41833,-2.0828 4.36422,-2.23716 4.30638,-2.39161 4.22439,-2.53363 4.11955,-2.66095 4.01293,-2.78498 3.90441,-2.90569 3.794,-3.02306 3.68169,-3.1371 3.56745,-3.2478 3.45131,-3.35515 3.33323,-3.45918 3.21322,-3.55984 3.09127,-3.65715 2.96738,-3.75112 2.84155,-3.84172 2.71377,-3.92896 2.58404,-4.01284 2.45238,-4.09335 2.31875,-4.1705 2.1832,-4.24426 2.0457,-4.31468 1.90625,-4.38171 1.76488,-4.44538 1.62155,-4.5057 1.47631,-4.56265 1.32911,-4.61625 1.18,-4.6665 1.02894,-4.71341 0.87597,-4.75698 0.72104,-4.79723 0.5642,-4.83416 0.4054,-4.86779 0.24467,-4.89811 0.0831,-4.98815 m -294.96327,53.18732 10.66871,-3.83956 m 70.11361,92.6186 4.83475,-10.25615 m 128.72291,10.25615 -4.83475,-10.25615 m 85.61707,-78.52289 -10.66871,-3.83956"
       id="path1"
       style="fill:none;stroke:#d4aa00;stroke-width:1px"
       transform="scale(0.264583)"
       inkstitch:satin_column="true" />
    <path
       d="m 434.85595,346.77802 -0.0841,-5.05102 -0.004,-0.12565 -0.25093,-5.02353 -0.008,-0.12512 -0.4158,-4.99261 -0.0124,-0.12445 -0.57867,-4.95824 -0.0165,-0.12363 -0.73956,-4.92043 -0.0205,-0.1227 -0.89846,-4.87917 -0.0245,-0.12163 -1.05538,-4.83448 -0.0284,-0.12046 -1.2103,-4.78634 -0.0322,-0.11918 -1.36324,-4.73477 -0.036,-0.11779 -1.51419,-4.67975 -0.0397,-0.11633 -1.66315,-4.62128 -0.0434,-0.11477 -1.81012,-4.55938 -0.0471,-0.11314 -1.95512,-4.49402 -0.0506,-0.11143 -2.09812,-4.42523 -0.0542,-0.10963 -2.23913,-4.353 -0.0577,-0.10777 -2.37815,-4.27732 -0.0611,-0.10584 -2.51519,-4.1982 -0.0645,-0.10382 -2.65024,-4.11564 -0.0679,-0.10173 -2.78331,-4.02964 -0.0712,-0.0996 -2.91438,-3.94019 -0.0745,-0.0973 -3.04347,-3.84731 -0.0777,-0.095 -3.17057,-3.75097 -0.0809,-0.0926 -3.29568,-3.65119 -0.084,-0.0901 -3.4188,-3.54798 -0.0871,-0.0875 -3.53994,-3.44133 -0.0901,-0.0848 -3.6591,-3.33122 -0.0931,-0.082 -3.77626,-3.21768 -0.096,-0.0791 -3.89143,-3.1007 -0.0988,-0.0761 -4.00462,-2.98027 -0.10155,-0.073 -4.11583,-2.8564 -0.10419,-0.0698 -4.22504,-2.72908 -0.10672,-0.0665 -4.33227,-2.59833 -0.10896,-0.0629 -4.41635,-2.45269 -0.11091,-0.0592 -4.47597,-2.29445 -0.11253,-0.0553 -4.53162,-2.13621 -0.114,-0.0514 -4.5833,-1.97797 -0.11532,-0.0475 -4.631,-1.81973 -0.11651,-0.0436 -4.67472,-1.66149 -0.11757,-0.0396 -4.71448,-1.50326 -0.1185,-0.0357 -4.75024,-1.34502 -0.11932,-0.0317 -4.78205,-1.18678 -0.12002,-0.0277 -4.80987,-1.02854 -0.12062,-0.0238 -4.83372,-0.87031 -0.12111,-0.0198 -4.85359,-0.71207 -0.12151,-0.0158 -4.8695,-0.55383 -0.12182,-0.0119 -4.88142,-0.39559 -0.12203,-0.008 -4.88937,-0.23736 -0.12216,-0.004 -4.89335,-0.0791 h -0.1222 l -4.89335,0.0791 -0.12216,0.004 -4.88937,0.23736 -0.12203,0.008 -4.88142,0.39559 -0.12182,0.0119 -4.8695,0.55383 -0.12151,0.0158 -4.85359,0.71207 -0.12111,0.0198 -4.83373,0.87031 -0.12061,0.0238 -4.80987,1.02854 -0.12002,0.0277 -4.78205,1.18678 -0.11932,0.0317 -4.75024,1.34502 -0.1185,0.0357 -4.71448,1.50326 -0.11757,0.0396 -4.67472,1.66149 -0.11651,0.0436 -4.631,1.81973 -0.11532,0.0475 -4.5833,1.97797 -0.114,0.0514 -4.53162,2.13621 -0.11253,0.0553 -4.47597,2.29445 -0.11091,0.0592 -4.41635,2.45269 -0.10897,0.0629 -4.33226,2.59833 -0.10672,0.0665 -4.22504,2.72908 -0.10419,0.0698 -4.11583,2.8564 -0.10155,0.073 -4.00462,2.98027 -0.0988,0.0761 -3.89143,3.1007 -0.096,0.0791 -3.77626,3.21768 -0.0931,0.082 -3.6591,3.33122 -0.0901,0.0848 -3.53995,3.44133 -0.0871,0.0875 -3.4188,3.54798 -0.084,0.0901 -3.29568,3.65119 -0.0809,0.0926 -3.17057,3.75097 -0.0777,0.095 -3.04347,3.84731 -0.0744,0.0973 -2.91439,3.94019 -0.0712,0.0996 -2.78331,4.02964 -0.0679,0.10173 -2.65024,4.11564 -0.0645,0.10382 -2.51519,4.1982 -0.0611,0.10584 -2.37815,4.27732 -0.0577,0.10777 -2.23913,4.353 -0.0542,0.10963 -2.09812,4.42523 -0.0506,0.11143 -1.95512,4.49402 -0.0471,0.11314 -1.81012,4.55938 -0.0434,0.11477 -1.66315,4.62128 -0.0397,0.11633 -1.51419,4.67975 -0.036,0.11779 -1.36324,4.73477 -0.0322,0.11918 -1.2103,4.78634 -0.0284,0.12046 -1.05538,4.83448 -0.0245,0.12163 -0.89846,4.87917 -0.0205,0.1227 -0.73956,4.92043 -0.0165,0.12363 -0.57867,4.95824 -0.0124,0.12445 -0.4158,4.99261 -0.008,0.12512 -0.25093,5.02353 -0.004,0.12565 -0.0841,5.05102 m 302.36224,0.12582 -0.0831,-4.98815 -0.24467,-4.89811 -0.4054,-4.86779 -0.5642,-4.83416 -0.72104,-4.79724 -0.87597,-4.75698 -1.02894,-4.71341 -1.18,-4.6665 -1.32911,-4.61624 -1.47631,-4.56265 -1.62155,-4.5057 -1.76488,-4.44539 -1.90625,-4.38171 -2.0457,-4.31467 -2.1832,-4.24427 -2.31875,-4.17049 -2.45238,-4.09335 -2.58404,-4.01284 -2.71377,-3.92896 -2.84155,-3.84172 -2.96738,-3.75112 -3.09127,-3.65716 -3.21322,-3.55984 -3.33323,-3.45917 -3.45131,-3.35516 -3.56745,-3.2478 -3.68169,-3.13709 -3.794,-3.02306 -3.90441,-2.90569 -4.01293,-2.78499 -4.11955,-2.66094 -4.22439,-2.53363 -4.30638,-2.39162 -4.36422,-2.23716 -4.41833,-2.0828 -4.46861,-1.92847 -4.51504,-1.77418 -4.55765,-1.61988 -4.59641,-1.46561 -4.6313,-1.31134 -4.66235,-1.15708 -4.68952,-1.00281 -4.71283,-0.84854 -4.73225,-0.69427 -4.7478,-0.53999 -4.75947,-0.38571 -4.76724,-0.23143 -4.77113,-0.0771 -4.77113,0.0771 -4.76724,0.23143 -4.75947,0.38571 -4.7478,0.53999 -4.73225,0.69427 -4.71283,0.84854 -4.68952,1.00281 -4.66235,1.15708 -4.6313,1.31134 -4.59641,1.46561 -4.55765,1.61988 -4.51504,1.77418 -4.46861,1.92847 -4.41833,2.0828 -4.36422,2.23716 -4.30638,2.39162 -4.22439,2.53363 -4.11955,2.66094 -4.01293,2.78499 -3.90441,2.90569 -3.794,3.02306 -3.68169,3.13709 -3.56746,3.2478 -3.4513,3.35516 -3.33323,3.45917 -3.21322,3.55984 -3.09127,3.65716 -2.96738,3.75112 -2.84155,3.84172 -2.71377,3.92896 -2.58404,4.01284 -2.45238,4.09335 -2.31875,4.17049 -2.1832,4.24427 -2.0457,4.31467 -1.90626,4.38171 -1.76487,4.44539 -1.62155,4.5057 -1.47631,4.56265 -1.32911,4.61624 -1.18,4.6665 -1.02894,4.71341 -0.87597,4.75698 -0.72104,4.79724 -0.5642,4.83416 -0.4054,4.86779 -0.24468,4.89811 -0.083,4.98815 m 294.96327,-53.18732 -10.66871,3.83956 m -70.11361,-92.61861 -4.83475,10.25615 M 213.117,204.93747 l 4.83475,10.25615 m -85.61707,78.5229 10.66871,3.83956"
       id="path2"
       style="fill:none;stroke:#d4aa00;stroke-width:1px"
       transform="scale(0.264583)"
       inkstitch:satin_column="true" />
    <text
       xml:space="preserve"
       style="font-style:normal;font-variant:normal;font-weight:normal;font-stretch:normal;font-size:14px;line-height:1.25;font-family:'Comic Sans MS';-inkscape-font-specification:'Comic Sans MS';display:inline;stroke-width:0.265;stroke-miterlimit:4;stroke-dasharray:none"
       x="41.460762"
       y="96.358932"
       id="text837"><tspan
         sodipodi:role="line"
         id="tspan835"
         x="41.460762"
         y="96.358932"
         style="font-style:normal;font-variant:normal;font-weight:normal;font-stretch:normal;font-size:14px;font-family:'Comic Sans MS';-inkscape-font-specification:'Comic Sans MS';fill:#d4aa00;stroke-width:0.265;stroke-miterlimit:4;stroke-dasharray:none">Mirabelles</tspan></text>
    <text
       xml:space="preserve"
       style="font-style:normal;font-variant:normal;font-weight:normal;font-stretch:normal;font-size:4px;line-height:1.25;font-family:'Comic Sans MS';-inkscape-font-specification:'Comic Sans MS';letter-spacing:-0.0079375px;word-spacing:-0.00264583px;display:inline;stroke-width:0.264583"
       x="51.564495"
       y="118.18705"
       id="text841"><tspan
         sodipodi:role="line"
         x="51.564495"
         y="118.18705"
         style="font-style:normal;font-variant:normal;font-weight:normal;font-stretch:normal;font-size:4px;font-family:'Comic Sans MS';-inkscape-font-specification:'Comic Sans MS';stroke-width:0.264583"
         id="tspan894">De la part de Clémentine</tspan></text>
    <text
       xml:space="preserve"
       style="font-style:normal;font-variant:normal;font-weight:normal;font-stretch:normal;font-size:4px;line-height:1.25;font-family:'Comic Sans MS';-inkscape-font-specification:'Comic Sans MS';display:inline;stroke-width:0.264583"
       x="65.681465"
       y="105.42136"
       id="text849"><tspan
         sodipodi:role="line"
         id="tspan847"
         x="65.681465"
         y="105.42136"
         style="font-style:normal;font-variant:normal;font-weight:normal;font-stretch:normal;font-size:4px;font-family:'Comic Sans MS';-inkscape-font-specification:'Comic Sans MS';stroke-width:0.264583">Aout 2020</tspan></text>
    <path
       style="display:inline;fill:none;stroke:#000000;stroke-width:0.75;stroke-linecap:butt;stroke-linejoin:miter;stroke-miterlimit:4;stroke-dasharray:0.75, 0.75;stroke-dashoffset:0;stroke-opacity:1"
       d="m 48.864953,84.343163 c 16.794902,0.09821 33.589552,0.196428 50.38392,0.29464"
       id="path863"
       inkscape:path-effect="#path-effect865"
       inkscape:original-d="m 48.864953,84.343163 c 16.7949,0.0985 33.58955,0.19669 50.38392,0.29464" />
    <path
       style="display:inline;fill:none;stroke:#000000;stroke-width:0.75;stroke-linecap:butt;stroke-linejoin:miter;stroke-miterlimit:4;stroke-dasharray:0.75, 0.75;stroke-dashoffset:0;stroke-opacity:1"
       d="m 48.448276,100.53437 c 16.794912,0.0982 33.589552,0.19643 50.38393,0.29464"
       id="path886"
       inkscape:path-effect="#path-effect888"
       inkscape:original-d="m 48.448276,100.53437 c 16.79491,0.0985 33.58955,0.19669 50.38393,0.29464" />
    <text
       xml:space="preserve"
       style="font-style:normal;font-variant:normal;font-weight:normal;font-stretch:normal;font-size:10px;line-height:1.25;font-family:'Comic Sans MS';-inkscape-font-specification:'Comic Sans MS';display:inline;stroke-width:0.264583"
       x="51.205147"
       y="72.031273"
       id="text892"><tspan
         sodipodi:role="line"
         id="tspan890"
         x="51.205147"
         y="72.031273"
         style="font-style:normal;font-variant:normal;font-weight:normal;font-stretch:normal;font-size:10px;font-family:'Comic Sans MS';-inkscape-font-specification:'Comic Sans MS';stroke-width:0.264583">Stéphanie</tspan></text>
    <circle
       style="display:inline;fill:none;stroke:#d4aa00;stroke-width:0.75;stroke-miterlimit:4;stroke-dasharray:0.75, 0.75;stroke-dashoffset:0"
       id="path896"
       cx="74.52459"
       cy="91.742332"
       r="37" />
  </g>
</svg>
