<?xml version="1.0" encoding="UTF-8" standalone="no"?>
<svg
   xmlns:dc="http://purl.org/dc/elements/1.1/"
   xmlns:cc="http://creativecommons.org/ns#"
   xmlns:rdf="http://www.w3.org/1999/02/22-rdf-syntax-ns#"
   xmlns:svg="http://www.w3.org/2000/svg"
   xmlns="http://www.w3.org/2000/svg"
   xmlns:sodipodi="http://sodipodi.sourceforge.net/DTD/sodipodi-0.dtd"
   xmlns:inkscape="http://www.inkscape.org/namespaces/inkscape"
   sodipodi:docname="Face art fond noir.svg"
   id="svg8"
   version="1.1"
   viewBox="0 0 65 65"
   height="65mm"
   width="65mm"
   inkscape:version="1.0.1 (c497b03c, 2020-09-10)">
  <defs
     id="defs2">
    <symbol
       id="inkstitch_ignore_layer">
      <title
         id="title9694">Ignore entire layer when generating stitch plan</title>
      <path
         inkscape:connector-curvature="0"
         style="opacity:1;vector-effect:none;fill:#fafafa;fill-opacity:1;fill-rule:evenodd;stroke:#ff0000;stroke-width:1.06501;stroke-linecap:round;stroke-linejoin:miter;stroke-miterlimit:4;stroke-dasharray:3.19504, 3.19504;stroke-dashoffset:0;stroke-opacity:1"
         d="M 9.2465269,-4.9265995e-6 C 9.246525,5.1067241 5.1067028,9.2465451 -2.615882e-5,9.2465451 -5.1067554,9.2465451 -9.2465782,5.1067241 -9.2465801,-4.9265995e-6 -9.24658,-2.4523429 -8.2723922,-4.8042399 -6.538327,-6.5383059 c 1.7340653,-1.734065 4.0859624,-2.708252 6.53830084118,-2.708252 5.10673015882,0 9.24655285882,4.139823 9.24655305882,9.2465529734005 0,0 0,0 0,0"
         id="inkstitch_path25368-7" />
      <path
         sodipodi:nodetypes="ccccc"
         inkscape:connector-curvature="0"
         style="color:#000000;fill:#d5d5d5;fill-opacity:1;fill-rule:evenodd;stroke:#5a5a5a;stroke-width:0.6333;stroke-linecap:square;stroke-linejoin:round;stroke-miterlimit:0;stroke-opacity:1"
         d="M 4,4.452769 1.46667,1.286102 H -5.5 l 2.53333,3.166667 z"
         id="use5800" />
      <path
         sodipodi:nodetypes="ccccc"
         inkscape:connector-curvature="0"
         style="color:#000000;opacity:0.5;fill:#d5d5d5;fill-opacity:1;fill-rule:evenodd;stroke:#858585;stroke-width:0.633394;stroke-linecap:square;stroke-linejoin:round;stroke-miterlimit:0;stroke-opacity:1"
         d="M 4,2.552769 1.46667,-0.613898 H -5.5 l 2.53333,3.166667 z"
         id="use5864" />
      <g
         id="g5771">
        <path
           sodipodi:nodetypes="ccccccccc"
           inkscape:connector-curvature="0"
           style="fill:#aa0000;fill-rule:evenodd;stroke:#aa0000;stroke-width:1px"
           d="m -1.0666699,-5.0472339 h 4.4333333 l 0.6333333,0.6333333 V 0.01943274 L 3.3666634,0.65276607 H -1.0666699 L -1.7000032,0.01943274 V -4.4139006 Z"
           id="path8011" />
        <path
           inkscape:connector-curvature="0"
           id="path8023"
           d="m -0.43333658,-3.8755672 c 0,0 3.16666668,3.16666661 3.16666668,3.16666661"
           style="fill:none;stroke:#ffffff;stroke-width:1.7" />
        <path
           inkscape:connector-curvature="0"
           id="path8025"
           d="m 2.7333301,-3.8755672 c 0,0 -3.16666668,3.16666661 -3.16666668,3.16666661"
           style="fill:none;stroke:#ffffff;stroke-width:1.8;stroke-linejoin:round" />
      </g>
    </symbol>
  </defs>
  <sodipodi:namedview
     id="base"
     pagecolor="#000000"
     bordercolor="#666666"
     borderopacity="1.0"
     inkscape:pageopacity="0"
     inkscape:pageshadow="2"
     inkscape:zoom="1.3484758"
     inkscape:cx="111.09011"
     inkscape:cy="118.04696"
     inkscape:document-units="mm"
     inkscape:current-layer="layer1"
     inkscape:document-rotation="0"
     showgrid="false"
     inkscape:window-width="1280"
     inkscape:window-height="800"
     inkscape:window-x="0"
     inkscape:window-y="0"
     inkscape:window-maximized="0" />
  <metadata
     id="metadata5">
    <rdf:RDF>
      <cc:Work
         rdf:about="">
        <dc:format>image/svg+xml</dc:format>
        <dc:type
           rdf:resource="http://purl.org/dc/dcmitype/StillImage" />
        <dc:title></dc:title>
      </cc:Work>
    </rdf:RDF>
  </metadata>
  <g
     inkscape:label="Layer 1"
     inkscape:groupmode="layer"
     id="layer1">
    <g
       id="g1395"
       transform="matrix(1.2225171,0,0,1.1937825,-115.1545,-71.373586)"
       style="fill:#ffffff;stroke-width:0.827775">
      <path
         id="path1183"
         style="fill:#ffffff;stroke-width:0.827775"
         d="m 140.25154,85.261005 c -0.89794,-0.49516 -1.55989,-1.384727 -2.06042,-2.768917 -0.37023,-1.023844 -3.05236,-3.465483 -4.76866,-4.341074 -0.35931,-0.183303 -0.70304,-0.413787 -0.76386,-0.512187 -0.0608,-0.0984 -0.23703,-0.17891 -0.39159,-0.17891 -0.17736,0 0.0776,0.376023 0.69128,1.019362 1.33072,1.395115 1.62679,2.004678 1.61958,3.334438 -0.003,0.599834 -0.0923,1.195146 -0.19793,1.322917 -0.10561,0.127771 -0.24781,0.530844 -0.31599,0.895719 -0.0682,0.364872 -0.18745,0.702636 -0.26504,0.750584 -0.15413,0.09526 -1.90302,-2.347472 -2.2496,-3.142083 -0.25632,-0.587704 -0.2797,-2.044262 -0.0388,-2.417048 0.12359,-0.191239 0.17173,-0.03093 0.17369,0.578295 0.003,0.817564 0.79193,2.762347 1.23135,3.033922 0.29745,0.183836 -0.009,-1.657263 -0.62378,-3.744508 -0.0643,-0.218282 -0.21409,-0.396875 -0.33294,-0.396875 -0.11885,0 -0.30946,-0.311651 -0.42359,-0.692556 -0.24213,-0.808173 -1.00924,-1.518909 -1.82849,-1.694119 -0.7682,-0.164292 -1.01846,-0.389682 -1.01846,-0.91724 0,-0.365448 0.0661,-0.422582 0.39687,-0.34297 2.18561,0.526067 3.74267,0.534501 5.68854,0.03081 2.24218,-0.580383 3.72285,-1.415579 5.43734,-3.06702 1.91437,-1.843963 2.02786,-2.746651 0.58522,-4.654866 -0.71218,-0.942031 -1.01804,-2.066135 -0.83246,-3.05949 0.0825,-0.441514 0.22409,-0.876874 0.31468,-0.967467 0.20842,-0.208425 1.45458,0.675802 1.96741,1.396002 0.56334,0.791146 0.83596,2.174504 0.58785,2.982931 -0.13129,0.427767 -0.14179,0.718535 -0.03,0.830329 0.11179,0.111795 0.17204,0.0485 0.17204,-0.180737 0,-0.194028 0.0717,-0.428184 0.15927,-0.520347 0.0876,-0.09216 0.19824,-0.32632 0.24588,-0.520348 0.0829,-0.337559 0.0921,-0.335917 0.2125,0.03805 0.11987,0.372157 0.15454,0.356542 0.72544,-0.326786 0.32975,-0.39469 0.6505,-0.927751 0.71277,-1.184581 0.43802,-1.806597 1.66332,-3.34542 3.03635,-3.813258 0.84272,-0.287143 3.6403,-0.376653 3.79798,-0.121518 0.11368,0.183939 -1.37432,2.624194 -1.9171,3.143977 -0.57984,0.555261 -1.97407,1.20306 -3.12067,1.449953 -1.0441,0.22482 -1.42285,0.499198 -2.43659,1.765094 -1.31008,1.635953 -1.34783,1.756521 -0.4016,1.282541 0.36381,-0.182233 0.8936,-0.387275 1.17733,-0.455649 0.43116,-0.1039 0.48202,-0.08352 0.3097,0.124113 -0.1134,0.136636 -0.51946,0.389699 -0.90236,0.562362 -1.04009,0.469014 -1.0046,0.705937 0.11072,0.739272 0.73423,0.02195 1.16859,0.159318 1.87216,0.592102 0.9765,0.60066 1.79778,1.475649 1.63393,1.740772 -0.18959,0.306756 -1.8917,0.594322 -2.85069,0.481613 -0.5219,-0.06134 -1.39562,-0.315858 -1.94161,-0.565597 -1.74495,-0.798158 -1.97743,-0.775227 -3.17177,0.312837 -1.59788,1.455696 -2.54658,2.057747 -3.95442,2.50951 -1.69127,0.542711 -2.04314,0.63277 -2.48197,0.635237 -0.58545,0.0033 -1.2222,0.186116 -1.2222,0.350921 0,0.135429 0.58299,0.288347 1.77624,0.465908 0.49689,0.07394 0.88131,-0.03977 1.82264,-0.539155 1.29554,-0.687301 2.02025,-0.779427 2.95136,-0.375181 l 0.59351,0.257679 -0.83123,0.0069 c -1.0045,0.0083 -2.89858,0.669174 -2.64495,0.922803 0.11265,0.112657 0.6448,0.101122 1.5308,-0.03318 0.74696,-0.113228 1.40239,-0.16159 1.45651,-0.107474 0.14879,0.148793 -0.24765,0.257237 -1.89238,0.517659 -1.47988,0.234322 -1.49092,0.239815 -0.85249,0.424124 1.09586,0.31636 3.30102,-0.351898 3.07811,-0.932796 -0.12325,-0.321183 0.46274,-0.799588 0.7568,-0.617852 0.43148,0.266671 0.0505,0.95835 -0.86954,1.578611 -1.19451,0.805305 -2.24426,0.816248 -3.92528,0.04092 -0.65727,-0.303152 -1.27243,-0.551187 -1.36701,-0.551187 -0.33202,0 -0.16689,0.27972 0.3429,0.580861 0.69346,0.409639 2.39174,1.771855 3.36568,2.699664 0.43656,0.415886 1.15094,0.91035 1.5875,1.098809 0.43656,0.188459 1.00698,0.57005 1.2676,0.847979 0.56612,0.603735 0.91123,1.416225 0.66594,1.567826 -0.0933,0.05767 -0.16965,-0.06772 -0.16965,-0.278647 0,-0.21684 -0.28327,-0.642957 -0.65183,-0.980549 -0.64013,-0.586331 -0.93567,-0.731633 -0.93567,-0.460015 0,0.176131 1.34079,1.968918 1.7852,2.387017 0.34468,0.324267 0.30599,0.654313 -0.0758,0.646824 -0.11554,-0.0023 -0.60255,-0.220548 -1.08225,-0.48507 z m 0.13869,-0.79706 c -0.3465,-0.593701 -1.32285,-1.556082 -1.51402,-1.492358 -0.11658,0.03886 0.16803,0.470507 0.64985,0.985617 0.79969,0.85493 1.20666,1.093576 0.86417,0.506741 z m 8.80284,-21.250154 c 1.45487,-0.845335 1.74978,-1.224914 0.79419,-1.022188 -0.3153,0.06689 -0.83145,0.166607 -1.14701,0.221595 -0.41382,0.07211 -0.89461,0.440114 -1.72485,1.320208 -0.6331,0.671126 -1.10618,1.29292 -1.05127,1.381763 0.0549,0.08884 0.47371,-0.123849 0.93066,-0.47265 0.45696,-0.348802 1.44618,-0.991729 2.19828,-1.428728 z m -1.09205,2.287889 c 0.248,-0.09784 0.70688,-0.393276 1.01973,-0.656521 0.62929,-0.529511 1.72183,-2.025519 1.47924,-2.025519 -0.28417,0 -3.53744,2.522277 -3.79888,2.945297 -0.13252,0.214424 0.32288,0.122195 1.29991,-0.263257 z m -5.65439,1.372794 c 0,-0.633676 -0.28323,-1.552244 -0.54322,-1.761779 -0.0602,-0.04851 -0.15476,-0.207257 -0.21016,-0.352777 -0.23335,-0.613007 -0.0987,0.480795 0.14111,1.146527 0.29861,0.828881 0.32965,1.322917 0.0831,1.322917 -0.097,0 -0.17639,-0.23344 -0.17639,-0.518757 0,-0.285316 -0.0691,-0.561477 -0.1536,-0.61369 -0.0845,-0.05221 -0.2029,-0.341391 -0.26314,-0.642616 -0.14809,-0.740449 -0.80956,-1.655303 -1.03432,-1.43054 -0.47828,0.47828 0.71371,3.24707 1.53118,3.556679 0.51529,0.19516 0.62544,0.07083 0.62544,-0.705964 z m 4.14029,4.700984 c -0.62471,-0.430949 -1.60809,-0.705089 -1.9573,-0.545645 -0.27586,0.125949 -0.23528,0.161728 0.24397,0.215083 0.31618,0.0352 0.79243,0.177492 1.05833,0.316203 0.63953,0.333616 1.1335,0.344445 0.655,0.01436 z m -0.10539,1.188105 c 0.30316,-0.06063 0.55121,-0.172234 0.55121,-0.248002 0,-0.247731 -1.64891,-0.716517 -2.90799,-0.826746 -1.13291,-0.09918 -1.20939,-0.08497 -0.94826,0.176161 0.26483,0.26483 2.11179,0.989715 2.55538,1.002922 0.10914,0.0033 0.44649,-0.0437 0.74966,-0.104335 z m -12.33143,9.096513 c 0.005,-0.784888 -0.0955,-1.140218 -0.50567,-1.786918 -0.28155,-0.443968 -0.60434,-0.864331 -0.71729,-0.93414 -0.32063,-0.198159 -0.43655,0.04542 -0.22936,0.48193 0.38309,0.807108 0.55845,1.483608 0.67432,2.601469 0.0654,0.630591 0.16081,1.216782 0.2121,1.30265 0.19826,0.331892 0.55995,-0.732275 0.5659,-1.664991 z" />
      <path
         id="path1169"
         style="fill:#ffffff;stroke-width:0.827775"
         d="m 142.21424,111.89985 c -1.05432,-1.09443 -1.70789,-1.88457 -1.70789,-2.06477 0,-0.0621 -0.26561,-0.52816 -0.59024,-1.03564 -0.96654,-1.51095 -1.26347,-2.60742 -1.25016,-4.61661 0.0168,-2.53454 0.85835,-6.286722 1.94083,-8.653266 0.23581,-0.515525 0.42874,-1.024992 0.42874,-1.132149 0,-0.414942 -1.37787,1.213783 -2.66173,3.146323 -0.99823,1.502599 -1.62552,2.127243 -4.1485,4.130992 -2.71611,2.15712 -3.72252,2.76374 -5.6036,3.37758 -1.85816,0.60636 -3.4595,0.60895 -5.33484,0.009 -2.11118,-0.67582 -3.18814,-1.28966 -4.6046,-2.62451 -1.16063,-1.09376 -3.22312,-3.593602 -3.22312,-3.90659 0,-0.06767 -0.34539,-0.609369 -0.76753,-1.203773 -0.42214,-0.594402 -0.91823,-1.398233 -1.10243,-1.786288 l -0.3349,-0.705556 -0.0997,1.675694 c -0.14506,2.439023 -1.15157,4.765623 -2.93881,6.793183 -0.56937,0.64594 -2.41308,1.99563 -3.48791,2.55333 -0.58208,0.30203 -1.35474,0.71718 -1.71701,0.92256 -0.54817,0.31077 -0.73313,0.3395 -1.10243,0.17123 -0.70297,-0.32029 -0.52472,-0.66546 0.57048,-1.10476 2.14206,-0.85919 3.28148,-1.62594 4.96094,-3.33832 2.24182,-2.28577 3.02241,-4.061143 3.018,-6.864202 -0.003,-1.777683 -0.16793,-2.47584 -0.85916,-3.632362 -1.94986,-3.262359 -2.67865,-5.098811 -3.5694,-8.994409 -0.57934,-2.533706 -0.86386,-4.651424 -0.83591,-6.221854 0.0143,-0.802646 -0.0289,-1.514252 -0.096,-1.581348 -0.25176,-0.251765 -1.81972,-0.559976 -2.88695,-0.567485 l -1.10636,-0.0078 -0.92211,0.951665 c -0.63321,0.653503 -1.14317,1.009106 -1.62767,1.135002 -1.057426,0.274768 -1.185739,0.284526 -1.807839,0.137492 -0.51351,-0.121369 -0.560974,-0.184451 -0.456372,-0.606544 0.19819,-0.799745 0.939742,-1.752864 1.617532,-2.07902 0.693539,-0.333734 1.162479,-0.356206 3.160219,-0.151438 1.34685,0.138051 1.64277,-0.02188 0.76191,-0.41179 -0.2843,-0.125843 -1.33602,-0.699307 -2.33715,-1.274363 -1.502066,-0.862793 -1.964147,-1.046154 -2.64347,-1.048975 -1.026183,-0.0043 -2.191978,-0.498992 -2.869847,-1.217883 -0.284938,-0.302183 -0.461702,-0.549423 -0.392808,-0.549423 0.06889,0 5.6e-5,-0.191088 -0.152973,-0.424639 -0.371021,-0.56625 -0.156344,-0.656099 1.082773,-0.453178 0.571676,0.09362 1.091659,0.170677 1.155515,0.171239 0.06386,5.65e-4 0.465142,0.340249 0.891745,0.754859 1.303671,1.267023 2.277095,1.980682 3.842845,2.817356 1.43447,0.766524 3.60298,1.720474 3.91097,1.720474 0.37144,0 0.0653,-0.318602 -0.80803,-0.840977 -0.52471,-0.31384 -1.30901,-0.965454 -1.74289,-1.448032 -0.70977,-0.789436 -0.80116,-0.992222 -0.91149,-2.022424 -0.14804,-1.382374 0.036,-3.096901 0.3325,-3.096901 0.34388,0 2.36979,2.083381 2.74931,2.827307 0.25035,0.490727 0.35019,1.037551 0.35019,1.918084 0,0.947333 0.0884,1.381588 0.38317,1.88109 0.3626,0.61457 0.39661,0.631677 0.63373,0.318763 0.18735,-0.247242 0.22928,-0.695048 0.16619,-1.77505 l -0.0844,-1.444389 0.90585,-0.432116 c 1.82279,-0.869525 3.15951,-1.176806 5.26687,-1.210727 1.6918,-0.02723 2.16028,0.02956 3.1355,0.380088 2.47497,0.889594 3.65186,2.113753 4.53208,4.714089 l 0.46636,1.377722 0.0143,5.967344 c 0.0163,6.790819 -0.06,6.468073 1.52847,6.468073 0.87725,0 1.04349,-0.155531 1.04349,-0.976265 0,-1.044062 0.69015,-1.669568 1.84211,-1.669568 0.94101,0 2.02135,1.422574 1.83129,2.411396 -0.0499,0.259588 -0.30284,0.348723 -1.29444,0.456158 -1.82553,0.197785 -1.74,0.10801 -1.5987,1.678132 0.12972,1.441381 0.30974,1.843202 0.66613,1.486814 0.27416,-0.27416 2.37272,-0.276128 3.1575,-0.003 0.32977,0.114787 1.15521,0.589391 1.83431,1.054674 1.62342,1.112287 1.85208,1.299003 1.85208,1.512351 0,0.313702 -4.07251,0.691954 -9.21632,0.856005 -1.81901,0.05801 -3.30729,0.166244 -3.30729,0.240511 0,0.334537 1.51283,1.804252 2.3444,2.277579 1.72604,0.982469 3.669,1.022952 6.11003,0.127312 0.94986,-0.348514 1.31513,-0.120605 0.59909,0.373793 -1.16114,0.801723 -3.40234,1.221746 -4.99735,0.936555 -1.44274,-0.257966 -2.23396,-0.722286 -3.81239,-2.237276 -0.69054,-0.662789 -1.50414,-1.3897 -1.80799,-1.615359 -0.30385,-0.22566 -0.55246,-0.518921 -0.55246,-0.651688 0,-0.356639 3.52618,-2.634698 4.50043,-2.907475 0.63258,-0.17711 0.96528,-0.187334 1.35155,-0.04153 l 0.51241,0.193412 -0.0513,-1.354408 -0.0513,-1.354407 -1.39161,-0.0295 c -2.23264,-0.04732 -2.12994,0.221116 -2.16678,-5.66385 -0.0403,-6.44136 -0.1499,-7.508125 -1.01776,-9.908314 -0.48595,-1.343982 -1.54431,-2.180337 -3.54272,-2.799601 -1.32452,-0.410442 -4.12162,-0.534992 -5.12807,-0.228345 -0.28127,0.0857 -0.86858,0.253652 -1.30514,0.373235 -0.43657,0.119583 -1.01492,0.298419 -1.28524,0.397414 l -0.49149,0.17999 0.11552,1.783928 c 0.0703,1.084667 0.20652,1.880643 0.34765,2.030665 0.66088,0.702473 5.66291,1.101782 9.16286,0.731465 1.34245,-0.14204 1.85209,-0.04526 1.85209,0.351696 0,0.176225 -1.58093,0.522185 -2.38622,0.522185 -0.77683,0 -3.10341,0.779786 -3.9827,1.334857 -0.42852,0.270513 -0.71912,0.608587 -0.78584,0.914211 -0.32164,1.473403 -1.18102,2.229145 -2.78481,2.448967 l -0.82697,0.11335 0.11482,0.637016 c 0.0631,0.350359 0.17311,0.756078 0.24435,0.901599 0.0712,0.145521 0.18439,0.6948 0.25142,1.22062 0.21904,1.718058 1.06033,4.433318 1.78057,5.746741 0.2128,0.388056 0.96374,1.816806 1.66876,3.175 2.55506,4.922217 5.4307,8.729477 7.82228,10.356447 4.08195,2.77692 8.39061,2.3994 12.1135,-1.06135 0.24254,-0.22546 1.07597,-0.85418 1.85209,-1.39716 1.89687,-1.327087 2.31017,-1.718852 3.12141,-2.958787 0.38074,-0.58194 1.46137,-1.956392 2.4014,-3.054339 0.94002,-1.097949 1.96563,-2.44744 2.27913,-2.998872 0.5237,-0.921151 1.18787,-2.781029 1.61781,-4.530383 0.37287,-1.517128 0.50687,-1.964805 0.78342,-2.617273 0.5722,-1.350002 1.05735,-0.341781 0.57591,1.196848 -0.15338,0.490192 -0.44666,1.486571 -0.65173,2.214175 -0.65548,2.325659 -1.2248,4.129966 -1.4749,4.674305 -1.35322,2.945277 -1.63168,3.679224 -2.5431,6.702778 -0.83632,2.774428 -1.1165,5.477238 -0.71945,6.940198 0.37871,1.39535 1.3504,3.2187 2.61774,4.9121 1.10161,1.47196 1.27098,1.81784 0.89015,1.81784 -0.0701,0 -0.56711,-0.4564 -1.10449,-1.01423 z M 129.96712,93.503466 c 0.55783,-0.132756 1.01423,-0.293317 1.01423,-0.356803 0,-0.23843 -2.83327,-1.399246 -3.41522,-1.399246 -0.33368,0 -1.02051,0.191723 -1.52627,0.426048 -0.8623,0.399509 -0.96422,0.410299 -1.6362,0.173214 -0.55934,-0.197349 -0.93018,-0.213354 -1.68978,-0.07294 -0.92837,0.171618 -3.11494,1.137167 -3.31752,1.464958 -0.1584,0.256289 9.39911,0.0436 10.57076,-0.235236 z m -3.08681,-6.086747 c 0.38539,-0.118775 0.23821,-0.865111 -0.29518,-1.496797 -0.62608,-0.741461 -0.99747,-0.61384 -1.39621,0.479776 -0.38007,1.042389 -0.2124,1.320909 0.71679,1.190673 0.41476,-0.05814 0.85333,-0.136277 0.9746,-0.173652 z m -17.78338,-8.130623 c 0.37698,-0.870414 0.5368,-1.040324 1.32292,-1.406376 0.49178,-0.228997 0.9911,-0.417132 1.1096,-0.418079 0.36978,-0.003 2.16579,-0.855629 2.16579,-1.028231 0,-0.09019 -0.65484,-0.210643 -1.45521,-0.267682 -0.80036,-0.05704 -1.85208,-0.190512 -2.33715,-0.29661 -0.48507,-0.106097 -1.08038,-0.20829 -1.32292,-0.227094 l -0.44097,-0.03419 6.5e-4,2.028472 c 9.2e-4,2.909283 0.23621,3.31476 0.9573,1.64979 z m 2.11089,-1.076526 c 0.0422,-0.02425 0.0237,-0.09713 -0.0411,-0.161955 -0.20281,-0.202817 -0.99578,0.335157 -1.35807,0.921364 -0.55278,0.894403 -0.40831,0.915448 0.48781,0.07107 0.45901,-0.432509 0.86912,-0.806222 0.91135,-0.830476 z M 97.467462,70.316168 c -0.120771,-0.145521 -0.319209,-0.264584 -0.440972,-0.264584 -0.121763,0 -0.3202,-0.119062 -0.440972,-0.264583 -0.120772,-0.145521 -0.334598,-0.264583 -0.475169,-0.264583 -0.215792,0 -0.213121,0.04246 0.01715,0.272737 0.301019,0.301019 1.164265,0.782805 1.405655,0.784509 0.08464,5.98e-4 0.05508,-0.117976 -0.0657,-0.263496 z m 0.996641,-0.351475 c -0.322239,-0.322239 -2.092408,-1.169193 -2.20608,-1.055521 -0.14486,0.14486 0.194869,0.40581 1.219414,0.936644 0.972682,0.503964 1.426421,0.558632 0.986666,0.118877 z m 2.074847,6.266328 c 0.54939,-0.20888 1.53321,-1.067769 1.42452,-1.243631 -0.0501,-0.08102 -0.34109,-0.0756 -0.6467,0.01205 -0.69019,0.197943 -2.438196,1.243973 -2.438196,1.459047 0,0.164693 0.983195,0.03 1.660376,-0.227462 z m -0.792824,-0.958623 c 0.112856,-0.135983 0.557064,-0.351136 0.987114,-0.478117 1.01263,-0.298991 1.26644,-0.780413 0.33146,-0.628687 -0.67443,0.109446 -1.76735,0.756977 -1.913245,1.13356 -0.116383,0.300405 0.340201,0.279862 0.594671,-0.02676 z m 4.860804,-4.28967 c -0.27162,-0.560636 -0.55055,-1.141453 -0.61985,-1.290705 -0.0693,-0.149251 -0.17135,-0.625501 -0.22677,-1.058333 -0.0554,-0.432832 -0.0598,-0.649981 -0.01,-0.482555 0.0501,0.167427 0.35034,0.842114 0.66722,1.499306 0.31688,0.657191 0.68799,1.452862 0.8247,1.768157 0.32426,0.747887 0.45887,0.723215 0.59962,-0.109903 0.0771,-0.456478 0.0228,-0.904896 -0.16378,-1.351384 -0.34808,-0.83307 -1.83011,-2.591412 -2.06292,-2.447528 -0.35229,0.217723 -0.52807,1.065379 -0.41329,1.99292 0.0999,0.806955 0.23908,1.080286 0.9223,1.810704 0.44258,0.473154 0.84331,0.821666 0.89051,0.77447 0.0472,-0.0472 -0.13642,-0.544512 -0.40804,-1.105149 z m 6.41458,8.713072 c 0.48543,-0.451035 0.80273,-0.990681 0.66404,-1.129374 -0.12809,-0.128086 -2.04725,1.352963 -2.04725,1.579898 0,0.276468 0.92504,-0.02483 1.38321,-0.450524 z" />
    </g>
  </g>
</svg>
