<?xml version="1.0" encoding="UTF-8" standalone="no"?>
<svg
   xmlns:inkstitch="http://inkstitch.org/namespace"
   xmlns:dc="http://purl.org/dc/elements/1.1/"
   xmlns:cc="http://creativecommons.org/ns#"
   xmlns:rdf="http://www.w3.org/1999/02/22-rdf-syntax-ns#"
   xmlns:svg="http://www.w3.org/2000/svg"
   xmlns="http://www.w3.org/2000/svg"
   xmlns:sodipodi="http://sodipodi.sourceforge.net/DTD/sodipodi-0.dtd"
   xmlns:inkscape="http://www.inkscape.org/namespaces/inkscape"
   width="105mm"
   height="148mm"
   viewBox="0 0 105 148"
   version="1.1"
   id="svg8"
   sodipodi:docname="fleur.svg"
   inkscape:version="1.0.1 (c497b03c, 2020-09-10)">
  <defs
     id="defs2">
    <inkscape:path-effect
       effect="spiro"
       id="path-effect1254"
       is_visible="true"
       lpeversion="1" />
    <inkscape:path-effect
       effect="spiro"
       id="path-effect1250"
       is_visible="true"
       lpeversion="1" />
    <inkscape:path-effect
       effect="spiro"
       id="path-effect1246"
       is_visible="true"
       lpeversion="1" />
    <inkscape:path-effect
       effect="spiro"
       id="path-effect1242"
       is_visible="true"
       lpeversion="1" />
    <inkscape:path-effect
       effect="spiro"
       id="path-effect3304"
       is_visible="true"
       lpeversion="1" />
    <inkscape:path-effect
       effect="spiro"
       id="path-effect3266"
       is_visible="true"
       lpeversion="1" />
    <inkscape:path-effect
       effect="spiro"
       id="path-effect1708"
       is_visible="true"
       lpeversion="1" />
    <inkscape:path-effect
       effect="spiro"
       id="path-effect1701"
       is_visible="true"
       lpeversion="1" />
    <inkscape:path-effect
       effect="spiro"
       id="path-effect1696"
       is_visible="true"
       lpeversion="1" />
    <inkscape:path-effect
       effect="spiro"
       id="path-effect1684"
       is_visible="true"
       lpeversion="1" />
    <symbol
       id="inkstitch_ignore_layer">
      <title
         id="title9694">Ignore entire layer when generating stitch plan</title>
      <path
         inkscape:connector-curvature="0"
         style="opacity:1;vector-effect:none;fill:#fafafa;fill-opacity:1;fill-rule:evenodd;stroke:#ff0000;stroke-width:1.06501234;stroke-linecap:round;stroke-linejoin:miter;stroke-miterlimit:4;stroke-dasharray:3.19503705, 3.19503705;stroke-dashoffset:0;stroke-opacity:1"
         d="M 9.2465269,-4.9265995e-6 C 9.246525,5.1067241 5.1067028,9.2465451 -2.615882e-5,9.2465451 -5.1067554,9.2465451 -9.2465782,5.1067241 -9.2465801,-4.9265995e-6 -9.24658,-2.4523429 -8.2723922,-4.8042399 -6.538327,-6.5383059 c 1.7340653,-1.734065 4.0859624,-2.708252 6.53830084118,-2.708252 5.10673015882,0 9.24655285882,4.139823 9.24655305882,9.2465529734005 0,0 0,0 0,0"
         id="inkstitch_path25368-7" />
      <path
         sodipodi:nodetypes="ccccc"
         inkscape:connector-curvature="0"
         style="color:#000000;fill:#d5d5d5;fill-opacity:1;fill-rule:evenodd;stroke:#5a5a5a;stroke-width:0.63330007;stroke-linecap:square;stroke-linejoin:round;stroke-miterlimit:0;stroke-opacity:1"
         d="M 4,4.452769 1.46667,1.286102 H -5.5 l 2.53333,3.166667 z"
         id="use5800" />
      <path
         sodipodi:nodetypes="ccccc"
         inkscape:connector-curvature="0"
         style="color:#000000;opacity:0.5;fill:#d5d5d5;fill-opacity:1;fill-rule:evenodd;stroke:#858585;stroke-width:0.63339424;stroke-linecap:square;stroke-linejoin:round;stroke-miterlimit:0;stroke-opacity:1"
         d="M 4,2.552769 1.46667,-0.613898 H -5.5 l 2.53333,3.166667 z"
         id="use5864" />
      <g
         id="g5771">
        <path
           sodipodi:nodetypes="ccccccccc"
           inkscape:connector-curvature="0"
           style="fill:#aa0000;fill-rule:evenodd;stroke:#aa0000;stroke-width:1px"
           d="m -1.0666699,-5.0472339 h 4.4333333 l 0.6333333,0.6333333 V 0.01943274 L 3.3666634,0.65276607 H -1.0666699 L -1.7000032,0.01943274 V -4.4139006 Z"
           id="path8011" />
        <path
           inkscape:connector-curvature="0"
           id="path8023"
           d="m -0.43333658,-3.8755672 c 0,0 3.16666668,3.16666661 3.16666668,3.16666661"
           style="fill:none;stroke:#ffffff;stroke-width:1.70000005" />
        <path
           inkscape:connector-curvature="0"
           id="path8025"
           d="m 2.7333301,-3.8755672 c 0,0 -3.16666668,3.16666661 -3.16666668,3.16666661"
           style="fill:none;stroke:#ffffff;stroke-width:1.79999995;stroke-linejoin:round" />
      </g>
    </symbol>
  </defs>
  <sodipodi:namedview
     id="base"
     pagecolor="#ffffff"
     bordercolor="#666666"
     borderopacity="1.0"
     inkscape:pageopacity="0.0"
     inkscape:pageshadow="2"
     inkscape:zoom="1.8346168"
     inkscape:cx="351.94182"
     inkscape:cy="369.94565"
     inkscape:document-units="mm"
     inkscape:current-layer="layer1"
     inkscape:document-rotation="0"
     showgrid="false"
     inkscape:window-width="2560"
     inkscape:window-height="1315"
     inkscape:window-x="0"
     inkscape:window-y="23"
     inkscape:window-maximized="0"
     inkscape:snap-grids="false"
     inkscape:snap-to-guides="false" />
  <metadata
     id="metadata5">
    <rdf:RDF>
      <cc:Work
         rdf:about="">
        <dc:format>image/svg+xml</dc:format>
        <dc:type
           rdf:resource="http://purl.org/dc/dcmitype/StillImage" />
        <dc:title />
      </cc:Work>
    </rdf:RDF>
  </metadata>
  <g
     inkscape:label="Calque 1"
     inkscape:groupmode="layer"
     id="layer1">
    <path
       style="display:inline;fill:#800000;stroke:#ff5555;stroke-width:0.098;stroke-miterlimit:4;stroke-dasharray:0.098, 0.098;stroke-dashoffset:0"
       d="m 37.746503,39.854242 c 0,-0.456866 0.449737,-2.292229 0.885907,-3.615361 1.364234,-4.138434 4.080696,-8.063698 7.513744,-10.857293 3.330346,-2.710024 7.558654,-4.419477 11.815191,-4.776736 1.04292,-0.08753 4.253115,0.110239 5.534469,0.340966 1.909201,0.343782 4.285932,1.127701 5.830384,1.923042 l 0.378524,0.194927 -2.57579,0.06454 c -4.43735,0.11118 -6.911624,0.408583 -9.924847,1.192946 -3.642693,0.948219 -7.04397,2.681663 -10.180239,5.188311 -2.473368,1.976828 -5.942886,5.809943 -8.293219,9.162328 -0.98693,1.407703 -0.984124,1.404331 -0.984124,1.182332 z"
       id="path1678" />
    <path
       style="display:inline;fill:#ff5555;stroke:#ff5555;stroke-width:0.098;stroke-miterlimit:4;stroke-dasharray:0.098, 0.098;stroke-dashoffset:0"
       d="m 51.516033,44.503313 c 0,-0.215176 1.376303,-2.67742 1.929629,-3.45216 0.702375,-0.98343 2.564999,-2.927725 3.441729,-3.592637 1.611556,-1.222207 3.19104,-1.998674 5.07786,-2.496252 2.433162,-0.641656 5.457095,-0.286322 7.854697,0.922984 3.007203,1.51678 5.418448,4.347028 6.895058,8.093217 0.10384,0.263445 0.150542,0.478991 0.103782,0.478991 -0.04676,0 -0.738258,-0.512229 -1.536661,-1.138287 -3.286799,-2.577303 -5.895947,-3.988294 -8.385236,-4.53462 -0.871361,-0.191238 -3.141324,-0.167722 -4.15039,0.043 -2.550003,0.532507 -5.012517,1.731783 -9.374999,4.565746 -1.535356,0.997402 -1.855469,1.188906 -1.855469,1.11002 z"
       id="path1676"
       inkstitch:auto_fill="False"
       inkstitch:fill_underlay="False"
       inkstitch:angle="90" />
    <path
       style="display:inline;fill:#d40000;stroke:#ff5555;stroke-width:0.098;stroke-linejoin:bevel;stroke-miterlimit:4;stroke-dasharray:0.098, 0.098;stroke-dashoffset:0"
       d="M 86.318509,48.478703 C 83.22779,42.489849 80.97683,39.152948 78.118574,36.322839 76.249951,34.472616 74.803215,33.42885 72.722669,32.429891 70.286918,31.260384 68.041903,30.732902 65.173668,30.6562 c -3.803464,-0.101712 -7.194336,0.478206 -11.923879,2.03926 -1.145529,0.378098 -2.10412,0.666111 -2.130202,0.640029 -0.02608,-0.02608 0.317907,-0.352837 0.764421,-0.726123 3.343271,-2.794975 7.736853,-4.741666 12.078193,-5.351559 1.668311,-0.234373 4.681013,-0.16069 6.165289,0.150786 5.43216,1.139944 9.883862,4.418083 13.062627,9.619046 1.809295,2.960291 3.234338,6.773921 3.922817,10.498047 0.326773,1.767586 0.535381,3.214849 0.472458,3.277773 -0.02435,0.02435 -0.59445,-1.021788 -1.266883,-2.324756 z"
       id="path1674" />
    <path
       style="display:inline;fill:#ffaaaa;stroke:#ffaaaa;stroke-width:0.098;stroke-miterlimit:4;stroke-dasharray:0.098, 0.098;stroke-dashoffset:0"
       d="m 65.871501,57.85242 c -0.737068,-0.09863 -1.279616,-0.255175 -2.201115,-0.635086 -3.568763,-1.471313 -6.051071,-4.722548 -6.736822,-8.823635 -0.243809,-1.458087 -0.163271,-3.617253 0.18419,-4.93804 0.23089,-0.877665 0.761495,-2.204974 0.88146,-2.204974 0.02647,0 0.33084,0.86792 0.676375,1.928711 1.503794,4.616642 2.646233,7.105738 4.22069,9.195846 0.941748,1.250182 2.820078,3.039786 4.518567,4.30513 0.757019,0.563965 1.378635,1.0526 1.381369,1.085856 0.0145,0.176312 -1.842332,0.231034 -2.924714,0.08619 z"
       id="path1672"
       inkstitch:auto_fill="False"
       inkstitch:fill_underlay="False"
       inkstitch:row_spacing_mm="0.3"
       inkstitch:angle="25" />
    <path
       style="display:inline;fill:#ff2a2a;stroke:#ff0000;stroke-width:0.098;stroke-miterlimit:4;stroke-dasharray:0.098, 0.098;stroke-dashoffset:0"
       d="m 57.400409,59.635992 c -6.2151,-1.282055 -11.128818,-6.170914 -12.299506,-12.237279 -0.255479,-1.323865 -0.355067,-3.704826 -0.208469,-4.984096 0.334391,-2.918005 1.331954,-5.892797 2.734454,-8.154297 0.532803,-0.85913 1.194775,-1.775361 1.245815,-1.724321 0.01605,0.01606 -0.0559,0.839062 -0.159901,1.828905 -0.328576,3.127306 -0.423697,5.01239 -0.3643,7.219635 0.08103,3.011329 0.429075,4.990825 1.24505,7.081303 1.477409,3.785024 3.931802,6.782157 8.099826,9.890943 0.832519,0.620948 1.555419,1.165103 1.606445,1.209235 0.164977,0.142686 -0.946076,0.06663 -1.899414,-0.130028 z"
       id="path1670" />
    <path
       style="display:inline;fill:#ff8080;stroke:#ff8080;stroke-width:0.098;stroke-miterlimit:4;stroke-dasharray:0.098, 0.098;stroke-dashoffset:0"
       d="m 72.369457,59.821844 c -0.02138,-0.06714 -0.178259,-0.800964 -0.348609,-1.630722 -0.767933,-3.740524 -1.518188,-5.747084 -2.959499,-7.915177 -0.764037,-1.149302 -1.131394,-1.565833 -3.413152,-3.870029 -1.416718,-1.430648 -2.099959,-2.185793 -2.021526,-2.234267 0.191804,-0.118541 2.126783,0.04388 3.025404,0.253956 0.898793,0.210113 2.487798,0.923474 3.388154,1.521064 1.842425,1.222866 3.336049,3.299559 3.97933,5.532745 0.765317,2.656846 0.331982,5.745123 -1.102539,7.85755 -0.432672,0.637138 -0.484458,0.682996 -0.547563,0.48488 z"
       id="path1668" />
    <path
       style="display:inline;fill:#aa0000;stroke:#aa0000;stroke-width:0.098;stroke-miterlimit:4;stroke-dasharray:0.098, 0.098;stroke-dashoffset:0"
       d="m 86.842592,62.585509 c 0,-0.05835 0.214347,-0.533749 0.476329,-1.056455 1.38316,-2.759691 2.369711,-5.753389 2.855559,-8.665218 0.298254,-1.787519 0.298464,-5.038782 3.91e-4,-6.714395 -0.859447,-4.832308 -2.727363,-8.697711 -6.590309,-13.637853 -1.403365,-1.794697 -2.885374,-3.448676 -6.198945,-6.91826 -1.03874,-1.087646 -1.862088,-1.977539 -1.829661,-1.977539 0.09103,0 2.509688,1.222685 3.50907,1.773912 1.294281,0.713883 3.469937,2.16865 4.652566,3.11097 1.373912,1.094734 3.931149,3.615376 4.951602,4.880743 3.303445,4.096286 4.924001,8.011307 5.308679,12.824975 0.394038,4.930793 -1.321551,10.160638 -4.621696,14.088881 -1.034452,1.231335 -2.513585,2.579038 -2.513585,2.290239 z"
       id="path1666"
       inkstitch:repeats=""
       inkstitch:auto_fill="True"
       inkstitch:fill_underlay="True"
       inkstitch:angle="0"
       inkstitch:row_spacing_mm="0.20"
       inkstitch:fill_underlay_row_spacing_mm="0.25"
       inkstitch:fill_underlay_inset_mm=""
       inkstitch:fill_underlay_angle="90"
       inkstitch:satin_column="False" />
    <path
       style="display:inline;fill:#ff0000;stroke:#ff0000;stroke-width:0.098;stroke-miterlimit:4;stroke-dasharray:0.098, 0.098;stroke-dashoffset:0"
       d="m 71.656447,65.518323 c -1.290563,0.249415 -2.140676,0.331382 -3.395797,0.327427 -2.566072,-0.0081 -5.337024,-0.546352 -7.727258,-1.501044 -0.509359,-0.203445 -0.915419,-0.388081 -0.902355,-0.410304 0.01307,-0.02222 0.881346,-0.127701 1.929514,-0.234408 3.684334,-0.37506 4.5362,-0.521506 7.522644,-1.293226 3.00818,-0.777292 3.567809,-0.987482 5.194159,-1.950425 1.013508,-0.600087 2.782081,-2.12346 3.463194,-2.983048 0.745713,-0.941114 2.002159,-3.12057 2.434929,-4.223679 0.582357,-1.484396 1.231823,-3.77877 1.671693,-5.905607 0.400469,-1.936331 0.410935,-1.966714 0.572451,-1.661969 0.09049,0.170731 0.294063,0.912417 0.452394,1.648191 1.21137,5.629401 -0.425447,11.385985 -4.196666,14.759413 -1.327978,1.187903 -3.153895,2.263183 -4.75987,2.80308 -0.408298,0.137262 -0.845832,0.288217 -0.972295,0.335465 -0.126464,0.04725 -0.705485,0.177847 -1.286739,0.290129 z"
       id="path1664" />
    <path
       style="display:inline;fill:#d40000;stroke:#d40000;stroke-width:0.098;stroke-miterlimit:4;stroke-dasharray:0.098, 0.098;stroke-dashoffset:0"
       d="M 64.425644,72.270746 C 60.577638,72.032468 57.286153,71.199829 54.074083,69.652138 51.262291,68.297315 49.1852,66.816762 46.945177,64.570647 c -1.480823,-1.484852 -2.563049,-2.793889 -3.636405,-4.398516 -2.778068,-4.15311 -4.684501,-9.266992 -5.344419,-14.336057 -0.166059,-1.27555 -0.201835,-2.798779 -0.06227,-2.651248 0.04827,0.05103 0.374323,0.817872 0.724564,1.704102 2.065176,5.225615 4.470781,9.491684 7.472958,13.252444 1.099017,1.376715 3.603247,3.889232 4.898307,4.914517 4.221541,3.342149 8.844658,5.185957 14.843749,5.920036 1.660442,0.20318 6.434354,0.22727 8.789062,0.04435 1.505959,-0.116987 6.417749,-0.71187 7.656927,-0.927358 0.40783,-0.07092 0.741509,-0.110256 0.741509,-0.08741 0,0.07967 -2.207634,1.081527 -3.564452,1.617592 -3.323366,1.31303 -6.310485,2.067283 -9.716796,2.453507 -1.347119,0.152743 -4.269377,0.25934 -5.322266,0.194142 z"
       id="path1662" />
    <path
       id="path1691"
       style="display:inline;fill:#008000;stroke:#88aa00;stroke-width:0.0976561;stroke-miterlimit:4;stroke-dasharray:0.0976561, 0.0976561;stroke-dashoffset:0"
       d="m 38.60181,53.88976 -0.694531,0.349332 c -0.382151,0.19209 -1.256472,0.721265 -1.943034,1.176155 -4.881795,3.234502 -9.439307,8.031266 -13.805877,14.530898 -2.504331,3.727693 -3.875823,6.107292 -5.849255,10.147183 C 13.75213,85.327832 10.41865,90.25334 8.6578865,95.549859 3.6089043,102.14547 6.2684986,105.83748 8.8844575,100.70713 19.389319,80.42994 20.105901,76.507518 22.236406,73.106674 l 0.549949,-0.765459 c 0.362793,-0.471156 0.589752,-0.854722 0.989492,-1.413221 4.555851,-6.506798 9.827246,-11.095894 14.632699,-13.727326 0.795533,-0.435629 1.293976,-0.766678 1.293976,-0.85938 0,-0.08293 -0.247689,-0.668576 -0.550352,-1.301213 z"
       sodipodi:nodetypes="ccssscccccsscc" />
    <path
       style="fill:#008000;stroke:#00ff00;stroke-width:0.287879;stroke-linecap:butt;stroke-linejoin:miter;stroke-miterlimit:4;stroke-dasharray:0.287879, 0.287879;stroke-dashoffset:0;stroke-opacity:1"
       d="m 28.449389,81.989568 8.219983,-6.041953 c 1.135152,0.02017 2.27289,-0.110334 3.373989,-0.387023 2.272946,-0.571156 4.415018,-1.764448 6.756803,-1.856924 1.170892,-0.04624 2.383552,0.207276 3.332068,0.895349 0.474258,0.344037 0.87538,0.793428 1.14008,1.316128 0.264701,0.5227 0.389932,1.119125 0.331651,1.702121 -0.07161,0.716335 -0.408377,1.374773 -0.725305,2.021163 -0.316928,0.64639 -0.625833,1.325023 -0.63469,2.044874 -0.0011,0.08549 0.0022,0.170966 0.0043,0.256436 0.02955,1.19011 -0.164823,2.405702 -0.721842,3.457826 -0.752598,1.421543 -2.106362,2.438239 -3.544642,3.158335 -1.253431,0.627548 -2.613041,1.067793 -4.010944,1.171588 -2.499461,0.185585 -4.93526,-0.698365 -7.384134,-1.231997 -2.117773,-0.461482 -4.374007,-0.655157 -6.417282,0.068 -0.570072,0.20176 -1.113324,0.471486 -1.671379,0.704432 -0.558055,0.232946 -1.139117,0.430898 -1.742009,0.47792 -0.602892,0.04702 -1.234109,-0.06817 -1.728853,-0.415899 -0.247372,-0.173867 -0.456807,-0.404098 -0.594576,-0.673249 -0.137768,-0.269151 -0.202228,-0.577406 -0.170481,-0.878096 0.03551,-0.336316 0.18757,-0.650453 0.374441,-0.932319 0.363839,-0.548795 0.861958,-0.996561 1.392687,-1.386281 0.53073,-0.389719 1.097932,-0.72676 1.642834,-1.096405 1.009951,-0.68512 1.943358,-1.482987 2.777304,-2.374011 z"
       id="path1244"
       inkscape:path-effect="#path-effect1246"
       inkscape:original-d="m 28.449389,81.989568 c 2.942776,-1.471152 5.29105,-4.537256 8.219983,-6.041953 -0.0629,0.9703 4.005779,-0.721173 3.373989,-0.387023 -1.252972,0.687014 9.437384,0.554132 11.560602,2.056674 3.626132,2.566099 -6.259157,3.375951 -1.359995,4.066037 0.07411,0.01044 4.108492,-0.690502 0.0043,0.256436 -1.156936,0.266934 -0.09196,2.481052 -0.721842,3.457826 -0.799677,1.240082 -2.655374,2.006923 -3.544642,3.158335 -1.047897,1.356803 -2.461536,1.047643 -4.010944,1.171588 -3.477158,0.278152 -4.919342,-0.976152 -7.384134,-1.231997 -1.322779,-0.137304 -4.073935,1.256068 -6.417282,0.068 -0.317325,-0.160898 -5.689288,-0.501469 -5.907298,-0.784892 -0.195708,-0.25443 0.225304,-0.636956 0.374441,-0.932319 0.633382,-1.254379 2.203351,-1.502721 3.035521,-2.482686 1.208673,-1.423335 1.391708,-2.215069 2.777304,-2.374011 z"
       sodipodi:nodetypes="cccssssssssssscc"
       inkstitch:auto_fill="True"
       inkstitch:fill_underlay="True"
       inkstitch:row_spacing_mm="0.2"
       inkstitch:angle="90"
       inkstitch:fill_underlay_row_spacing_mm="0.2" />
    <path
       style="fill:none;stroke:#000000;stroke-width:0.410182;stroke-linecap:butt;stroke-linejoin:miter;stroke-miterlimit:4;stroke-dasharray:0.410182, 0.410182;stroke-dashoffset:0;stroke-opacity:1"
       d="m 28.099928,87.023041 c 3.342637,-0.0394 6.657292,-1.305361 9.17516,-3.50425 1.036948,-0.905581 1.939486,-1.959419 3.003752,-2.832732 1.064266,-0.873312 2.348106,-1.575175 3.724694,-1.593685 0.285528,-0.0038 0.571626,0.02178 0.856349,0 0.549609,-0.04204 1.083778,-0.26597 1.499056,-0.628435 0.415278,-0.362465 0.70937,-0.861457 0.82532,-1.400338"
       id="path1252"
       inkscape:path-effect="#path-effect1254"
       inkscape:original-d="m 28.099928,87.023041 c 10.403816,-8.215894 -1.473857,-1.108046 9.17516,-3.50425 0.293618,-0.06607 0,0 6.728446,-4.426417 0.261629,-0.172117 0.603491,0.199683 0.856349,0 0.79306,-0.626278 1.549583,-1.352515 2.324376,-2.028773"
       sodipodi:nodetypes="csssc"
       inkstitch:satin_column="False"
       inkstitch:bean_stitch_repeats="1" />
  </g>
</svg>
