<?xml version="1.0" encoding="UTF-8" standalone="no"?>
<svg
   xmlns:dc="http://purl.org/dc/elements/1.1/"
   xmlns:cc="http://creativecommons.org/ns#"
   xmlns:rdf="http://www.w3.org/1999/02/22-rdf-syntax-ns#"
   xmlns:svg="http://www.w3.org/2000/svg"
   xmlns="http://www.w3.org/2000/svg"
   xmlns:sodipodi="http://sodipodi.sourceforge.net/DTD/sodipodi-0.dtd"
   xmlns:inkscape="http://www.inkscape.org/namespaces/inkscape"
   inkscape:version="1.0.1 (c497b03c, 2020-09-10)"
   sodipodi:docname="girl face pour fond noir.svg"
   id="svg8"
   version="1.1"
   viewBox="0 0 40 40"
   height="40mm"
   width="40mm">
  <defs
     id="defs2">
    <symbol
       id="inkstitch_ignore_layer">
      <title
         id="title9694">Ignore entire layer when generating stitch plan</title>
      <path
         inkscape:connector-curvature="0"
         style="opacity:1;vector-effect:none;fill:#fafafa;fill-opacity:1;fill-rule:evenodd;stroke:#ff0000;stroke-width:1.06501234;stroke-linecap:round;stroke-linejoin:miter;stroke-miterlimit:4;stroke-dasharray:3.19503705, 3.19503705;stroke-dashoffset:0;stroke-opacity:1"
         d="M 9.2465269,-4.9265995e-6 C 9.246525,5.1067241 5.1067028,9.2465451 -2.615882e-5,9.2465451 -5.1067554,9.2465451 -9.2465782,5.1067241 -9.2465801,-4.9265995e-6 -9.24658,-2.4523429 -8.2723922,-4.8042399 -6.538327,-6.5383059 c 1.7340653,-1.734065 4.0859624,-2.708252 6.53830084118,-2.708252 5.10673015882,0 9.24655285882,4.139823 9.24655305882,9.2465529734005 0,0 0,0 0,0"
         id="inkstitch_path25368-7" />
      <path
         sodipodi:nodetypes="ccccc"
         inkscape:connector-curvature="0"
         style="color:#000000;fill:#d5d5d5;fill-opacity:1;fill-rule:evenodd;stroke:#5a5a5a;stroke-width:0.63330007;stroke-linecap:square;stroke-linejoin:round;stroke-miterlimit:0;stroke-opacity:1"
         d="M 4,4.452769 1.46667,1.286102 H -5.5 l 2.53333,3.166667 z"
         id="use5800" />
      <path
         sodipodi:nodetypes="ccccc"
         inkscape:connector-curvature="0"
         style="color:#000000;opacity:0.5;fill:#d5d5d5;fill-opacity:1;fill-rule:evenodd;stroke:#858585;stroke-width:0.63339424;stroke-linecap:square;stroke-linejoin:round;stroke-miterlimit:0;stroke-opacity:1"
         d="M 4,2.552769 1.46667,-0.613898 H -5.5 l 2.53333,3.166667 z"
         id="use5864" />
      <g
         id="g5771">
        <path
           sodipodi:nodetypes="ccccccccc"
           inkscape:connector-curvature="0"
           style="fill:#aa0000;fill-rule:evenodd;stroke:#aa0000;stroke-width:1px"
           d="m -1.0666699,-5.0472339 h 4.4333333 l 0.6333333,0.6333333 V 0.01943274 L 3.3666634,0.65276607 H -1.0666699 L -1.7000032,0.01943274 V -4.4139006 Z"
           id="path8011" />
        <path
           inkscape:connector-curvature="0"
           id="path8023"
           d="m -0.43333658,-3.8755672 c 0,0 3.16666668,3.16666661 3.16666668,3.16666661"
           style="fill:none;stroke:#ffffff;stroke-width:1.70000005" />
        <path
           inkscape:connector-curvature="0"
           id="path8025"
           d="m 2.7333301,-3.8755672 c 0,0 -3.16666668,3.16666661 -3.16666668,3.16666661"
           style="fill:none;stroke:#ffffff;stroke-width:1.79999995;stroke-linejoin:round" />
      </g>
    </symbol>
  </defs>
  <sodipodi:namedview
     id="base"
     pagecolor="#000000"
     bordercolor="#666666"
     borderopacity="1.0"
     inkscape:pageopacity="0"
     inkscape:pageshadow="2"
     inkscape:zoom="0.98867329"
     inkscape:cx="-130.9298"
     inkscape:cy="163.6254"
     inkscape:document-units="mm"
     inkscape:current-layer="layer1"
     inkscape:document-rotation="0"
     showgrid="false"
     inkscape:window-width="1252"
     inkscape:window-height="691"
     inkscape:window-x="-84"
     inkscape:window-y="25"
     inkscape:window-maximized="0" />
  <metadata
     id="metadata5">
    <rdf:RDF>
      <cc:Work
         rdf:about="">
        <dc:format>image/svg+xml</dc:format>
        <dc:type
           rdf:resource="http://purl.org/dc/dcmitype/StillImage" />
        <dc:title></dc:title>
      </cc:Work>
    </rdf:RDF>
  </metadata>
  <g
     inkscape:label="Layer 1"
     inkscape:groupmode="layer"
     id="layer1">
    <g
       id="g484"
       transform="matrix(2.8561855,0,0,2.8789329,-25.661107,-31.390755)"
       style="stroke-width:0.348733">
      <path
         style="fill:#ffffff;stroke-width:0.348732"
         d="m 20.298004,15.966207 c 0.368386,-0.111006 0.514511,-0.123196 1.040612,-0.08681 0.511773,0.0354 0.612047,0.02787 0.612047,-0.04596 0,-0.124008 -0.432716,-0.40243 -0.787206,-0.506512 -0.592193,-0.173874 -2.048135,-0.0661 -2.192838,0.162317 -0.07312,0.115419 0.105317,0.411155 0.306469,0.507943 0.268742,0.129309 0.513635,0.121877 1.020916,-0.03098 z"
         id="path470" />
      <path
         style="fill:#ff00ff;stroke-width:0.348732"
         d="m 13.323103,16.7926 c -0.20274,-0.432035 -0.213587,-0.823343 -0.03233,-1.166427 0.228342,-0.432212 0.450468,-1.157447 0.450468,-1.470766 0,-0.365565 -0.198546,-0.690142 -0.720649,-1.178096 -0.344431,-0.321903 -0.357915,-0.328429 -0.315863,-0.152845 0.132056,0.551379 0.121328,0.6203 -0.173534,1.114871 -0.155663,0.261094 -0.31353,0.584764 -0.350815,0.719268 -0.104598,0.377329 -0.08439,0.890052 0.04431,1.124164 0.118181,0.214982 1.140073,1.35152 1.215419,1.351775 0.02394,6.1e-5 -0.02871,-0.153793 -0.116999,-0.341944 z"
         id="path468" />
      <path
         style="fill:#ff00ff;stroke-width:0.348732"
         d="m 13.991908,17.071591 c 0,-0.241838 0.192633,-0.568095 0.564259,-0.955669 0.718169,-0.748989 0.91988,-1.454885 0.60654,-2.122608 -0.08865,-0.188917 -0.183898,-0.343479 -0.211655,-0.34347 -0.02776,8e-6 -0.05301,0.117272 -0.05612,0.260585 -0.0081,0.374707 -0.182208,0.68308 -0.625728,1.10849 -0.546767,0.52444 -0.611503,0.672346 -0.576062,1.316154 0.02742,0.498112 0.13113,0.860757 0.246161,0.860757 0.02893,0 0.05261,-0.05591 0.05261,-0.124239 z"
         id="path466" />
      <path
         style="fill:#ffffff;stroke-width:0.348732"
         d="m 82.252571,65.215016 -0.133225,-0.420043 -0.353969,-0.505075 -1.095619,-0.94138 -0.94238,-0.380962 -1.342428,0.0066 -1.869284,0.371421 -2.284084,1.038766 -0.5638,0.3922 -0.0053,0.242622 0.482043,0.04941 0.898089,-0.18745 2.217836,-0.541816 1.784667,-0.182543 1.359327,0.176707 0.941814,0.535935 0.682292,0.531203 0.168315,-0.0036 z"
         id="path464"
         transform="scale(0.264583)" />
      <path
         style="fill:#ff00ff;stroke-width:0.348732"
         d="M 12.98923,17.149566 C 12.373576,16.680295 12.004479,16.339302 11.881913,16.126565 11.614849,15.66302 11.552505,14.806584 11.703845,13.680398 l 0.03286,-0.244552 -0.128339,0.275121 c -0.07059,0.151316 -0.171155,0.343901 -0.223486,0.427965 -0.286218,0.459786 -0.353921,0.68972 -0.323843,1.09984 0.03164,0.431387 0.223974,0.804791 0.669572,1.299913 0.336694,0.374114 1.015975,0.762773 1.352618,0.773916 0.100565,0.0033 0.08199,-0.02889 -0.094,-0.163035 z"
         id="path462" />
      <path
         style="fill:#ff00ff;stroke-width:0.348732"
         d="m 12.769895,17.684925 c -0.0213,-0.03363 -0.08835,-0.06114 -0.148993,-0.06114 -0.272581,0 -0.785809,-0.206758 -1.015285,-0.409017 -0.136473,-0.120286 -0.407133,-0.492665 -0.601466,-0.827511 -0.536422,-0.924277 -1.0377207,-1.405279 -1.6026268,-1.537738 -0.094784,-0.02223 -0.1723353,-0.02619 -0.1723353,-0.0088 0,0.01738 0.096965,0.163267 0.2154786,0.324203 0.1185128,0.160936 0.2624559,0.429243 0.319873,0.596237 0.2963105,0.861803 1.0269265,1.617673 1.8362435,1.899713 0.273958,0.09547 1.226771,0.115088 1.169111,0.02407 z"
         id="path460" />
      <path
         style="fill:#ffffff;stroke-width:0.348731"
         d="m 21.487708,17.785309 c -0.01918,-0.09592 -0.148461,-0.189846 -0.287292,-0.208718 -0.188798,-0.02566 -0.252429,0.01944 -0.252429,0.178969 0,0.117307 0.06339,0.234349 0.140871,0.260101 0.229577,0.07629 0.436274,-0.04309 0.398842,-0.230352 z"
         id="path458" />
      <path
         style="fill:#ffffff;stroke-width:0.348732"
         d="m 26.024041,17.88765 c 0,-0.285353 -0.220135,-0.735263 -0.384685,-0.786214 -0.162262,-0.05024 -0.341126,0.106824 -0.433877,0.381004 -0.08198,0.242329 -0.08575,0.236706 0.304539,0.453581 0.423956,0.235582 0.514023,0.227106 0.514023,-0.04837 z"
         id="path456" />
      <path
         style="fill:#ffffff;stroke-width:0.348732"
         d="m 21.676478,18.489768 c 0.09748,-0.08481 0.177241,-0.218505 0.177241,-0.297126 0,-0.181712 -0.112737,-0.1837 -0.23275,-0.004 -0.05103,0.07637 -0.181029,0.166352 -0.288883,0.199971 -0.10785,0.03361 -0.196099,0.104845 -0.196099,0.158271 0,0.150739 0.343278,0.114532 0.540491,-0.05702 z"
         id="path454" />
      <path
         style="fill:#ffffff;stroke-width:0.348732"
         d="m 27.144891,21.803645 c 0.192118,-0.131281 0.380067,-0.544009 0.381791,-0.838397 0.0019,-0.325311 -0.128989,-0.510317 -0.612251,-0.865365 -1.479564,-1.087021 -2.331739,-1.996652 -2.331739,-2.48895 0,-0.229009 0.232619,-0.913739 0.360442,-1.06099 0.06026,-0.06942 0.187114,-0.173222 0.281898,-0.230676 0.09479,-0.05746 0.172335,-0.129884 0.172335,-0.160954 0,-0.03107 -0.145566,-0.243654 -0.32348,-0.472409 -0.177914,-0.228756 -0.477457,-0.663528 -0.66565,-0.966161 -0.881234,-1.417102 -2.116716,-2.612978 -3.557898,-3.443844 -0.243274,-0.140252 -0.475782,-0.255003 -0.516683,-0.255003 -0.0409,0 -0.281418,0.41956 -0.53448,0.932354 -0.455391,0.922787 -0.812654,1.570108 -1.254926,2.273792 -0.141602,0.225299 -0.228294,0.440051 -0.228294,0.565527 0,0.217517 0.114767,0.270344 0.247739,0.114032 0.0413,-0.04854 0.263301,-0.151714 0.493345,-0.229267 0.365244,-0.123131 0.533445,-0.14045 1.326939,-0.136631 1.22376,0.0059 1.850401,0.189404 2.49267,0.729986 0.337191,0.283804 0.428483,0.456565 0.484274,0.916428 0.108594,0.895128 0.300053,1.505204 0.613688,1.955496 0.08155,0.117081 0.491432,0.582278 0.910849,1.03377 0.419417,0.451492 0.762577,0.846455 0.762577,0.877696 0,0.03124 -0.113289,0.09328 -0.251752,0.13786 -0.298677,0.09617 -0.670626,0.429497 -0.727966,0.652384 -0.06976,0.27115 0.05006,0.582725 0.282753,0.735294 0.250878,0.164492 0.441271,0.139811 0.747319,-0.09687 0.480427,-0.37154 0.600954,-0.435222 0.823723,-0.435222 0.331955,0 0.388313,0.08267 0.269521,0.395371 -0.158712,0.417774 0.01308,0.593209 0.353256,0.360752 z"
         id="path452" />
      <path
         style="fill:#ffffff;stroke-width:0.348732"
         d="m 25.98153,24.702821 c 0.03771,-0.04495 -0.0111,-0.137101 -0.108381,-0.204783 -0.259803,-0.180702 -1.039785,0.04687 -1.039785,0.303368 0,0.10708 1.051348,0.01683 1.14817,-0.09858 z"
         id="path450" />
      <path
         style="fill:#ffffff;stroke-width:0.348732"
         d="m 21.637326,31.488393 c 0.691358,-0.42094 1.669062,-0.694904 3.008033,-0.842887 1.407904,-0.155602 2.184182,-0.492212 2.449472,-1.062142 0.207118,-0.444957 0.133036,-0.761763 -0.380295,-1.626299 -0.06957,-0.117166 -0.126489,-0.291837 -0.126489,-0.388157 0,-0.196114 0.172261,-0.591004 0.25781,-0.591004 0.03054,0 0.05553,-0.04002 0.05553,-0.08894 0,-0.09392 -0.128039,-0.123666 -0.804491,-0.186906 -0.566169,-0.05293 -1.093859,-0.228339 -1.67087,-0.555412 -0.687858,-0.389905 -0.702407,-0.414093 -0.219335,-0.364643 0.709526,0.07263 1.331754,0.221094 1.843269,0.439803 0.602599,0.257654 0.935428,0.265414 0.962386,0.02244 0.0093,-0.08406 -0.0367,-0.237583 -0.102269,-0.341152 -0.243248,-0.384184 -0.937275,-0.573973 -2.304698,-0.630241 -0.741543,-0.03051 -1.042454,-0.06552 -1.128012,-0.131207 -0.400906,-0.307813 -0.358157,-0.548125 0.0975,-0.548125 0.112314,0 0.30342,-0.102422 0.547102,-0.293217 0.205973,-0.16127 0.521078,-0.354737 0.700234,-0.429927 0.393658,-0.165214 1.188465,-0.238028 1.54462,-0.141505 0.13683,0.03708 0.267424,0.04734 0.290209,0.02279 0.06686,-0.07204 -0.04925,-0.815822 -0.141371,-0.905581 -0.05527,-0.05385 -0.321598,-0.09396 -0.773625,-0.116485 -1.322317,-0.06591 -1.782477,-0.168454 -2.069764,-0.461247 -0.175688,-0.179055 -0.186224,-0.218225 -0.185607,-0.690044 7.46e-4,-0.569366 0.140322,-0.935183 0.591187,-1.549442 0.139792,-0.190454 0.254168,-0.392561 0.254168,-0.449127 0,-0.145672 -0.158992,-0.265854 -0.626673,-0.4737 -0.486256,-0.216102 -0.649436,-0.37566 -0.940011,-0.919148 -0.133937,-0.250516 -0.265595,-0.418611 -0.338147,-0.43173 -0.09432,-0.01706 -0.108783,0.0018 -0.07015,0.09171 0.02676,0.06226 0.06244,0.256043 0.07927,0.430638 0.02964,0.307395 0.02393,0.321424 -0.180516,0.443022 -0.557934,0.331847 -2.272096,0.01542 -3.278406,-0.605185 -0.520987,-0.321302 -0.799903,-0.409999 -1.076387,-0.3423 -0.243636,0.05966 -0.505014,0.34589 -0.586956,0.642771 -0.177305,0.642393 0.129925,1.082914 1.077442,1.544883 0.726599,0.354259 1.276424,0.755544 1.819944,1.328268 0.724885,0.763836 0.862988,1.424683 0.614136,2.938747 -0.114766,0.698255 -0.12605,0.902436 -0.07278,1.31693 0.109634,0.853005 0.44055,1.388661 1.172814,1.898441 0.753204,0.524359 1.522976,0.800816 2.702609,0.97062 1.161883,0.167249 1.588529,0.285131 1.857359,0.513187 0.418862,0.355331 0.102252,0.937801 -0.653835,1.202868 -0.277257,0.0972 -1.111539,0.252889 -2.268751,0.42338 -0.713838,0.10517 -1.31622,0.322949 -1.800324,0.650871 -0.447276,0.302976 -0.473453,0.325647 -0.861676,0.746281 -0.447032,0.484352 -0.41965,0.591496 0.03133,0.122604 0.198186,-0.206055 0.515439,-0.469081 0.705008,-0.584501 z"
         id="path448" />
    </g>
  </g>
</svg>
