<?xml version="1.0" encoding="UTF-8" standalone="no"?>
<svg
   xmlns:dc="http://purl.org/dc/elements/1.1/"
   xmlns:cc="http://creativecommons.org/ns#"
   xmlns:rdf="http://www.w3.org/1999/02/22-rdf-syntax-ns#"
   xmlns:svg="http://www.w3.org/2000/svg"
   xmlns="http://www.w3.org/2000/svg"
   xmlns:sodipodi="http://sodipodi.sourceforge.net/DTD/sodipodi-0.dtd"
   xmlns:inkscape="http://www.inkscape.org/namespaces/inkscape"
   width="50mm"
   height="50mm"
   viewBox="0 0 50 50"
   version="1.1"
   id="svg8"
   sodipodi:docname="logo chapeau paille fond noir.svg"
   inkscape:version="1.0.1 (c497b03c, 2020-09-10)">
  <defs
     id="defs2">
    <symbol
       id="inkstitch_ignore_layer">
      <title
         id="title9694">Ignore entire layer when generating stitch plan</title>
      <path
         inkscape:connector-curvature="0"
         style="opacity:1;vector-effect:none;fill:#fafafa;fill-opacity:1;fill-rule:evenodd;stroke:#ff0000;stroke-width:1.06501234;stroke-linecap:round;stroke-linejoin:miter;stroke-miterlimit:4;stroke-dasharray:3.19503705, 3.19503705;stroke-dashoffset:0;stroke-opacity:1"
         d="M 9.2465269,-4.9265995e-6 C 9.246525,5.1067241 5.1067028,9.2465451 -2.615882e-5,9.2465451 -5.1067554,9.2465451 -9.2465782,5.1067241 -9.2465801,-4.9265995e-6 -9.24658,-2.4523429 -8.2723922,-4.8042399 -6.538327,-6.5383059 c 1.7340653,-1.734065 4.0859624,-2.708252 6.53830084118,-2.708252 5.10673015882,0 9.24655285882,4.139823 9.24655305882,9.2465529734005 0,0 0,0 0,0"
         id="inkstitch_path25368-7" />
      <path
         sodipodi:nodetypes="ccccc"
         inkscape:connector-curvature="0"
         style="color:#000000;fill:#d5d5d5;fill-opacity:1;fill-rule:evenodd;stroke:#5a5a5a;stroke-width:0.63330007;stroke-linecap:square;stroke-linejoin:round;stroke-miterlimit:0;stroke-opacity:1"
         d="M 4,4.452769 1.46667,1.286102 H -5.5 l 2.53333,3.166667 z"
         id="use5800" />
      <path
         sodipodi:nodetypes="ccccc"
         inkscape:connector-curvature="0"
         style="color:#000000;opacity:0.5;fill:#d5d5d5;fill-opacity:1;fill-rule:evenodd;stroke:#858585;stroke-width:0.63339424;stroke-linecap:square;stroke-linejoin:round;stroke-miterlimit:0;stroke-opacity:1"
         d="M 4,2.552769 1.46667,-0.613898 H -5.5 l 2.53333,3.166667 z"
         id="use5864" />
      <g
         id="g5771">
        <path
           sodipodi:nodetypes="ccccccccc"
           inkscape:connector-curvature="0"
           style="fill:#aa0000;fill-rule:evenodd;stroke:#aa0000;stroke-width:1px"
           d="m -1.0666699,-5.0472339 h 4.4333333 l 0.6333333,0.6333333 V 0.01943274 L 3.3666634,0.65276607 H -1.0666699 L -1.7000032,0.01943274 V -4.4139006 Z"
           id="path8011" />
        <path
           inkscape:connector-curvature="0"
           id="path8023"
           d="m -0.43333658,-3.8755672 c 0,0 3.16666668,3.16666661 3.16666668,3.16666661"
           style="fill:none;stroke:#ffffff;stroke-width:1.70000005" />
        <path
           inkscape:connector-curvature="0"
           id="path8025"
           d="m 2.7333301,-3.8755672 c 0,0 -3.16666668,3.16666661 -3.16666668,3.16666661"
           style="fill:none;stroke:#ffffff;stroke-width:1.79999995;stroke-linejoin:round" />
      </g>
    </symbol>
  </defs>
  <sodipodi:namedview
     id="base"
     pagecolor="#000000"
     bordercolor="#666666"
     borderopacity="1.0"
     inkscape:pageopacity="0"
     inkscape:pageshadow="2"
     inkscape:zoom="2.555875"
     inkscape:cx="94.488189"
     inkscape:cy="94.488189"
     inkscape:document-units="mm"
     inkscape:current-layer="g1039"
     inkscape:document-rotation="0"
     showgrid="false"
     inkscape:window-width="1252"
     inkscape:window-height="691"
     inkscape:window-x="0"
     inkscape:window-y="25"
     inkscape:window-maximized="0" />
  <metadata
     id="metadata5">
    <rdf:RDF>
      <cc:Work
         rdf:about="">
        <dc:format>image/svg+xml</dc:format>
        <dc:type
           rdf:resource="http://purl.org/dc/dcmitype/StillImage" />
        <dc:title></dc:title>
      </cc:Work>
    </rdf:RDF>
  </metadata>
  <g
     inkscape:label="Layer 1"
     inkscape:groupmode="layer"
     id="layer1"
     style="display:inline">
    <g
       id="g1039"
       transform="translate(4.8950169,0.67517475)">
      <path
         style="fill:#000000;stroke-width:0.0627587"
         d="m 6.6694778,42.499458 c -0.583329,-0.08113 -1.314105,-0.464943 -1.732663,-0.910014 -0.413734,-0.439943 -0.726416,-1.077422 -0.824145,-1.680223 -0.04141,-0.255404 -0.08238,-0.473201 -0.09105,-0.483993 -0.0087,-0.01079 -0.202506,-0.05765 -0.430741,-0.104131 -2.032333,-0.413878 -3.09459505,-2.533465 -2.176166,-4.342216 0.242855,-0.478277 0.850871,-1.097094 1.294284,-1.317272 0.983844,-0.488532 2.31478,-0.426063 3.194145,0.149923 0.181088,0.118613 0.343595,0.21566 0.361125,0.21566 0.03169,0 1.5697719,-1.37821 3.454155,-3.095119 0.5423602,-0.494158 1.4798532,-1.341484 2.0833182,-1.882946 0.603465,-0.541463 1.097004,-1.015121 1.096753,-1.052574 -2.55e-4,-0.03745 -0.174374,-0.207408 -0.386941,-0.377677 -0.212568,-0.17027 -0.664371,-0.588203 -1.004007,-0.928742 -2.1647003,-2.17045 -3.4799993,-4.58083 -3.9225123,-7.188287 L 7.4684258,18.81475 6.1919858,18.77449 c -0.702041,-0.02214 -1.980631,-0.04033 -2.841311,-0.04042 l -1.564871,-1.63e-4 -0.262769,-0.185272 C 1.3785108,18.446736 1.1817368,18.247864 1.0857578,18.106698 0.93361475,17.882925 0.91103775,17.788342 0.90959575,17.36866 c -0.0015,-0.436287 0.01622,-0.506081 0.18918505,-0.745193 0.104961,-0.145103 0.317,-0.328652 0.471197,-0.407888 l 0.280356,-0.144056 h 2.753396 c 1.783259,0 2.767372,-0.02201 2.793062,-0.06247 0.02182,-0.03436 0.02149,-0.11098 -7.18e-4,-0.17027 -0.03553,-0.09482 -4.510679,-4.215107 -5.087807,-4.684358 -0.203211,-0.165227 -0.231504,-0.172379 -0.334074,-0.08445 -0.21727,0.186252 -0.800954,0.430692 -1.24906905,0.523097 -1.508998,0.311165 -3.04180685,-0.571421 -3.55897385,-2.0492448 -0.154886,-0.4425899 -0.145915,-1.4532148 0.01699,-1.9140768 0.355284,-1.0051078 1.25174,-1.7618268 2.34715985,-1.9812916 0.256922,-0.051474 0.473833,-0.1025971 0.482027,-0.1136078 0.0082,-0.011011 0.04867,-0.2429175 0.08996,-0.5153484 0.10181,-0.6717743 0.375825,-1.2018419 0.864483,-1.6722987 C 1.6104928,2.7274573 2.2832498,2.4520916 3.1570068,2.4507193 c 0.914651,-0.00144 1.661404,0.3083244 2.281327,0.9463179 0.558015,0.5742826 0.844017,1.2721283 0.84257,2.0558781 -0.001,0.5684823 -0.08226,0.8937231 -0.360493,1.4438209 -0.224591,0.4440357 -0.226769,0.4553998 -0.108137,0.5642303 1.8558509,1.7025243 3.4097739,3.1000265 3.4470059,3.1000265 0.02637,0 0.233469,-0.255896 0.4602241,-0.5686567 C 11.176955,7.9820865 13.169234,6.4500742 15.53182,5.5228118 17.296449,4.8302344 18.94592,4.5763834 21.295827,4.63574 c 1.440392,0.036383 1.998236,0.1144247 3.175569,0.4442584 2.407908,0.6745834 4.420469,1.8792502 6.258388,3.746111 0.372244,0.3781049 0.852724,0.9231325 1.067734,1.2111736 0.21501,0.28804 0.405743,0.52371 0.42385,0.52371 0.07194,0 3.484063,-3.0831432 3.478759,-3.1433585 -0.0022,-0.024926 -0.116698,-0.268218 -0.254451,-0.5406489 L 35.19522,6.3816538 V 5.5735334 4.7654129 L 35.444902,4.2732953 C 35.77497,3.622742 36.241085,3.1690591 36.909465,2.8477951 l 0.505603,-0.2430234 h 0.830266 c 0.824294,0 0.833695,0.00161 1.30736,0.2245553 0.577491,0.2718083 0.942984,0.5715061 1.263506,1.0360519 0.334009,0.4840933 0.462321,0.829509 0.509223,1.3708271 l 0.04024,0.4643707 0.34048,0.040446 c 0.681191,0.08092 1.353562,0.4283492 1.864712,0.9635386 0.587564,0.6151979 0.855269,1.3764105 0.796614,2.2651493 -0.03099,0.4695073 -0.07127,0.6158299 -0.291374,1.0584394 -0.330659,0.664921 -0.798272,1.128834 -1.457465,1.445936 -0.456758,0.219721 -0.521399,0.233433 -1.199114,0.254373 -0.819896,0.02533 -1.198177,-0.06016 -1.783093,-0.402983 -0.193565,-0.113449 -0.384621,-0.186774 -0.424571,-0.162942 -0.03995,0.02383 -1.030103,0.908239 -2.200342,1.965351 -1.170238,1.057112 -2.279486,2.057163 -2.464995,2.222336 -0.27957,0.248924 -0.337288,0.336027 -0.337288,0.509008 v 0.208694 l 2.910284,0.01728 c 2.714242,0.01612 2.926736,0.02523 3.154509,0.135309 0.666884,0.322294 0.820476,1.39678 0.284582,1.990851 -0.362297,0.401627 -0.337081,0.398721 -3.459009,0.398721 -1.772418,0 -2.83355,0.02253 -2.857772,0.06067 -0.02119,0.03337 -0.08228,0.305027 -0.135751,0.603682 -0.205398,1.147159 -0.716175,2.668702 -1.23367,3.67495 -0.857052,1.666502 -2.234428,3.349671 -3.729218,4.557143 -0.362507,0.292829 -0.659104,0.554126 -0.659104,0.580659 0,0.04308 2.36928,2.229606 5.089021,4.696491 0.542299,0.491881 1.088649,0.988017 1.214111,1.102525 l 0.228113,0.208196 0.333294,-0.218308 c 0.601677,-0.3941 1.495,-0.586932 2.168419,-0.468075 0.949391,0.167566 1.650729,0.593785 2.119576,1.288115 0.350277,0.518736 0.487825,0.905496 0.532793,1.498119 0.04429,0.583683 -0.05429,1.055659 -0.334275,1.600385 -0.415332,0.808055 -1.39718,1.496428 -2.288493,1.60446 l -0.379417,0.04599 -0.03693,0.371378 c -0.07872,0.791712 -0.417413,1.444357 -1.03389,1.992249 -0.602342,0.535328 -1.214599,0.75867 -2.087219,0.761386 -2.298238,0.0072 -3.791094,-2.360505 -2.753713,-4.367369 l 0.218108,-0.421941 -0.14298,-0.148879 c -0.207254,-0.215802 -2.08473,-1.898899 -2.140631,-1.919006 -0.02596,-0.0093 -0.08217,0.171767 -0.124902,0.402455 -0.426532,2.302584 -1.79331,4.157306 -3.793435,5.147703 -0.650963,0.322337 -1.719533,0.662155 -2.503309,0.796083 -0.884504,0.15114 -3.429102,0.148944 -4.262005,-0.0037 -1.196875,-0.219317 -2.193342,-0.600441 -3.087252,-1.180796 -0.592045,-0.384375 -1.481878,-1.247452 -1.88077,-1.824217 -0.56079,-0.810857 -1.038238,-1.980755 -1.275718,-3.125912 l -0.07519,-0.362587 -0.23247,0.207796 c -0.127859,0.114288 -0.461552,0.417603 -0.741539,0.674033 -0.279988,0.256429 -0.717356,0.648777 -0.971929,0.871883 l -0.4628612,0.405648 0.195145,0.405891 c 0.1073282,0.22324 0.2404932,0.622338 0.2959202,0.886885 0.09269,0.44241 0.09232,0.522892 -0.0047,1.00331 -0.140613,0.696563 -0.4111952,1.199744 -0.8907333,1.656428 -0.493867,0.470331 -1.053447,0.741258 -1.716377,0.831004 -0.2713069,0.03673 -0.5126839,0.06334 -0.5363919,0.05914 -0.02371,-0.0042 -0.227111,-0.03323 -0.452005,-0.06451 z"
         id="path104" />
      <path
         style="fill:#ffffff;stroke-width:0.0627587"
         d="m 35.392727,13.65679 c 0.659149,-0.595943 1.486466,-1.348223 1.838483,-1.671735 0.352017,-0.323511 0.954089,-0.870548 1.337939,-1.215638 l 0.697908,-0.627434 0.31314,0.275942 c 1.278398,1.126538 3.148479,0.777737 3.879478,-0.7235878 0.173935,-0.3572268 0.196043,-0.465635 0.196043,-0.9613211 0,-0.5094141 -0.01893,-0.5960972 -0.214593,-0.9828209 C 43.176803,7.2277838 42.858456,6.9103535 42.337602,6.6498555 41.978455,6.4702331 41.870813,6.4475616 41.270239,6.4250485 L 40.602305,6.4000103 V 5.6478389 c 0,-0.7049558 -0.01123,-0.7729269 -0.178915,-1.0828167 -0.812771,-1.5020497 -2.818495,-1.7854025 -3.951993,-0.5583061 -0.443543,0.4801688 -0.567986,0.7918293 -0.59602,1.4927014 -0.02267,0.5667476 -0.01242,0.6281443 0.167214,1.0017783 0.10525,0.2189155 0.308587,0.5218079 0.451858,0.6730937 l 0.260495,0.2750654 -1.670441,1.5091492 C 34.16576,9.7885358 33.236565,10.63493 33.019624,10.839381 l -0.394438,0.371728 0.44467,0.866825 c 0.418622,0.816047 0.840426,1.937159 0.927084,2.464092 0.02348,0.142758 0.06983,0.227881 0.117999,0.216706 0.04363,-0.01012 0.618639,-0.505995 1.277788,-1.101937 z"
         id="path60" />
      <path
         style="fill:#ffffff;stroke-width:0.0627587"
         d="m 7.7095127,14.121161 c 0.192419,-0.763236 0.488809,-1.527991 0.90933,-2.346287 l 0.283015,-0.550719 -0.148388,-0.136331 C 7.6778157,10.099573 5.2815838,7.9096187 5.0183558,7.6742508 L 4.6758808,7.3680219 4.9326878,7.0792179 C 5.0739328,6.9203759 5.2708648,6.6287874 5.3703168,6.4312437 5.5303258,6.113412 5.5511678,6.0043742 5.5514038,5.4838704 5.5516578,4.951457 5.5325538,4.8563842 5.3500798,4.4814958 5.1100718,3.9883961 4.6852238,3.5686206 4.1869438,3.3322491 3.8761228,3.1848035 3.7582458,3.1647108 3.1966598,3.1634489 c -0.593106,-0.00133 -0.666905,0.012674 -1.060532,0.201288 -0.530255,0.254081 -1.004627,0.742158 -1.20230105,1.2370359 -0.147428,0.3690907 -0.203438,1.16793 -0.105799,1.5089758 l 0.04653,0.1625075 -0.714854,0.028052 c -0.620447,0.024347 -0.759717,0.050415 -1.05456,0.1973836 -1.50127885,0.7483357 -1.85127685,2.5135717 -0.73173585,3.6905563 0.2133109,0.224256 0.4895239,0.434114 0.71024985,0.539624 0.328775,0.157161 0.423993,0.172657 1.060932,0.172657 0.63506,0 0.729406,-0.01524 1.02067305,-0.164884 0.176513,-0.09069 0.46348,-0.289627 0.637704,-0.442091 l 0.31677,-0.277207 0.92081,0.841412 c 3.761407,3.437081 4.42143,4.027667 4.457037,3.988141 0.02212,-0.02456 0.1174959,-0.351142 0.2119339,-0.725734 z"
         id="path58" />
      <path
         style="fill:#ffffff;stroke-width:0.0627587"
         d="m 23.267826,29.08755 c 2.350263,-0.439938 3.952763,-1.13751 5.637321,-2.453936 1.554764,-1.214997 2.978432,-3.226805 3.799747,-5.369487 0.239811,-0.625627 0.581857,-1.787999 0.652272,-2.216605 l 0.04135,-0.251691 H 20.826864 c -10.689883,0 -12.5716523,0.01288 -12.5716523,0.08606 0,0.205524 0.262085,1.298173 0.447455,1.865467 1.2547671,3.840005 3.7560983,6.526299 7.2496903,7.785773 0.655979,0.236487 1.733697,0.495095 2.63993,0.633477 0.888462,0.135667 3.790578,0.0866 4.675538,-0.07906 z"
         id="path56" />
      <path
         style="fill:#ffffff;stroke-width:0.0627587"
         d="m 16.362462,31.658901 c 0.01697,-0.07662 0.106445,-0.557245 0.198838,-1.068053 0.09239,-0.510808 0.17209,-0.94931 0.177103,-0.974451 0.005,-0.02514 -0.331316,-0.159553 -0.747399,-0.298695 -0.416082,-0.139143 -0.99638,-0.36085 -1.289551,-0.492682 l -0.533036,-0.239696 -0.154503,0.228811 c -0.173424,0.256832 -0.606067,1.324795 -0.606067,1.496053 0,0.212436 0.962386,0.777822 2.131028,1.251946 0.671586,0.272465 0.78181,0.285415 0.823587,0.09677 z"
         id="path54" />
      <path
         style="fill:#ffffff;stroke-width:0.0627587"
         d="m 25.633765,31.759299 c 0.521397,-0.178654 2.246905,-0.905611 2.327945,-0.980763 0.05526,-0.05124 -0.734506,-2.076129 -0.80975,-2.076129 -0.02548,0 -0.330163,0.112541 -0.677072,0.25009 -0.34691,0.13755 -0.952785,0.348064 -1.346389,0.467811 -0.393604,0.119747 -0.715643,0.229357 -0.715643,0.243576 0,0.01422 0.08588,0.514941 0.190838,1.112713 0.104961,0.597772 0.190838,1.113972 0.190838,1.147111 0,0.100466 0.154593,0.07018 0.839233,-0.164409 z"
         id="path52" />
      <path
         style="fill:#ffffff;stroke-width:0.0627587"
         d="m 22.631698,32.470645 c 0.624292,-0.07474 1.408751,-0.231952 1.480582,-0.296723 0.02711,-0.02445 -0.0068,-0.39064 -0.07525,-0.813761 -0.0685,-0.423122 -0.142669,-0.909956 -0.164819,-1.081854 -0.06456,-0.501036 -0.04261,-0.491445 -0.867699,-0.379097 -0.397476,0.05412 -0.987472,0.117061 -1.311102,0.139864 l -0.588418,0.04146 v 1.263875 1.263876 l 0.492999,-0.03645 c 0.271149,-0.02005 0.736318,-0.06558 1.033707,-0.101187 z"
         id="path50" />
      <path
         style="fill:#ffffff;stroke-width:0.0627587"
         d="m 20.454278,31.317557 c 0.016,-1.163896 0.0092,-1.253006 -0.09542,-1.253146 -0.433028,-5.57e-4 -1.868687,-0.146529 -2.357306,-0.239647 -0.324904,-0.06192 -0.603771,-0.09205 -0.619705,-0.06695 -0.05184,0.08164 -0.348073,1.843914 -0.348073,2.070663 0,0.2689 0.04759,0.290719 1.097933,0.503423 0.644702,0.130557 1.91311,0.272222 2.209931,0.246821 0.08077,-0.0069 0.09806,-0.200461 0.112639,-1.261161 z"
         id="path48" />
      <path
         style="fill:#ffffff;stroke-width:0.0627587"
         d="m 16.051263,33.707294 c 0.08356,-0.52216 0.152736,-1.005589 0.153733,-1.074286 0.0014,-0.09656 -0.08839,-0.158815 -0.395767,-0.274368 -0.654524,-0.246059 -1.510895,-0.64617 -2.045557,-0.955718 -0.276621,-0.160153 -0.524447,-0.269075 -0.550724,-0.24205 -0.04856,0.04994 -0.210454,0.942457 -0.285039,1.571396 l -0.04101,0.345852 0.625918,0.397141 c 0.625094,0.396617 2.307728,1.258115 2.359282,1.207937 0.01499,-0.01459 0.09561,-0.453744 0.179168,-0.975904 z"
         id="path46" />
      <path
         style="fill:#ffffff;stroke-width:0.0627587"
         d="m 25.959066,34.621812 c 0.670774,-0.270636 1.506133,-0.693589 2.065492,-1.045785 l 0.441804,-0.278179 -0.08609,-0.610507 c -0.119438,-0.846981 -0.212618,-1.260625 -0.283973,-1.260625 -0.03338,0 -0.2532,0.09404 -0.488489,0.208972 -0.461532,0.225451 -1.319015,0.547444 -2.167077,0.813757 l -0.530636,0.166634 0.03548,0.194748 c 0.01951,0.107112 0.08096,0.543027 0.136549,0.9687 0.125221,0.958911 0.148679,1.052574 0.263612,1.052574 0.05067,0 0.326666,-0.09463 0.613328,-0.210289 z"
         id="path44" />
      <path
         style="fill:#ffffff;stroke-width:0.0627587"
         d="m 23.208302,35.422708 c 1.020323,-0.199882 1.267879,-0.270169 1.307751,-0.371301 0.03125,-0.07928 -0.01818,-0.580687 -0.167994,-1.703819 -0.0385,-0.288648 -0.07872,-0.533299 -0.08938,-0.54367 -0.01065,-0.01037 -0.408452,0.05109 -0.883992,0.136573 -0.47554,0.08549 -1.180761,0.174119 -1.567158,0.196962 l -0.70254,0.04153 v 1.238423 1.238423 l 0.65612,-0.03907 c 0.360866,-0.02149 1.012102,-0.108812 1.44719,-0.194047 z"
         id="path42" />
      <path
         style="fill:#ffffff;stroke-width:0.0627587"
         d="m 20.468864,34.40832 v -1.228691 l -0.874675,-0.04029 c -0.561293,-0.02585 -1.148174,-0.09799 -1.638029,-0.201338 -1.085823,-0.22908 -1.06855,-0.23012 -1.121966,0.06758 -0.14602,0.813809 -0.261306,1.898026 -0.207397,1.950497 0.07973,0.0776 1.376563,0.407679 2.06091,0.524551 0.713788,0.1219 0.844781,0.136156 1.351771,0.14711 l 0.429386,0.0093 z"
         id="path40" />
      <path
         style="fill:#ffffff;stroke-width:0.0627587"
         d="m 22.472666,41.487115 c 1.699501,-0.248759 2.99496,-0.828678 4.008888,-1.7946 1.044451,-0.994999 1.62907,-2.143752 1.935505,-3.80319 0.121376,-0.657288 0.178289,-1.676385 0.09362,-1.676385 -0.02035,0 -0.199263,0.09124 -0.397579,0.202754 -1.392909,0.783243 -3.311287,1.422871 -5.258757,1.753383 -0.982952,0.166819 -3.309341,0.150681 -4.305276,-0.02987 -1.921073,-0.348261 -3.607806,-0.982361 -5.236639,-1.968631 l -0.445289,-0.269626 -0.01877,0.542969 c -0.01069,0.309096 0.02692,0.80966 0.08731,1.162129 0.581953,3.396724 2.642572,5.39419 6.070094,5.884058 0.780546,0.111556 2.695589,0.109903 3.466895,-0.003 z"
         id="path38" />
      <path
         style="fill:#ffffff;stroke-width:0.0627587"
         d="m 34.741011,41.803373 c 0.721496,-0.211346 1.390349,-0.866806 1.602578,-1.570486 0.0813,-0.269548 0.09864,-0.493988 0.07231,-0.935542 l -0.03465,-0.580917 0.363139,0.03205 c 1.086451,0.09589 2.076741,-0.459028 2.541395,-1.42409 0.148628,-0.308692 0.171457,-0.434606 0.171227,-0.944384 -2.55e-4,-0.516231 -0.02171,-0.630756 -0.175544,-0.935968 -0.212835,-0.422284 -0.729393,-0.93901 -1.160058,-1.160437 -0.290458,-0.14934 -0.381556,-0.163533 -1.049611,-0.163533 -0.684472,0 -0.752483,0.0113 -1.056902,0.175548 -0.178946,0.09655 -0.473186,0.301416 -0.653868,0.455257 -0.293531,0.249925 -0.341236,0.27079 -0.448008,0.195948 -0.06572,-0.04607 -1.611462,-1.44901 -3.434976,-3.117649 -1.823513,-1.668639 -3.338438,-3.041589 -3.366498,-3.051 -0.02806,-0.0094 0.08755,0.386892 0.256912,0.880676 0.479873,1.399087 0.733956,2.757969 0.854335,4.569127 l 0.03598,0.54132 1.091509,1.006582 c 0.60033,0.553621 1.317552,1.218385 1.593827,1.477255 l 0.502319,0.470671 -0.259158,0.334238 c -0.422837,0.545337 -0.535662,0.865092 -0.535315,1.51714 2.54e-4,0.485975 0.02441,0.613346 0.175076,0.923336 0.42119,0.866576 1.232383,1.387512 2.165341,1.390552 0.248096,8.11e-4 0.584984,-0.03775 0.748641,-0.08569 z"
         id="path36" />
      <path
         style="fill:#ffffff;stroke-width:0.0627587"
         d="m 8.0859647,41.690596 c 0.428336,-0.148612 0.978245,-0.602213 1.223114,-1.008904 0.2365131,-0.392817 0.3655781,-1.072807 0.2845741,-1.499311 -0.08003,-0.421383 -0.3012801,-0.896543 -0.5664641,-1.216551 -0.109704,-0.132385 -0.199461,-0.258741 -0.199461,-0.280792 0,-0.02205 0.508107,-0.496444 1.1291261,-1.054205 0.6210202,-0.557762 1.3581332,-1.225457 1.6380292,-1.483767 l 0.508902,-0.469655 0.0419,-1.052624 c 0.06367,-1.599289 0.380635,-3.270858 0.818582,-4.316905 0.103779,-0.247876 0.188786,-0.45923 0.188906,-0.469674 6.36e-4,-0.05536 -0.384,0.277907 -1.879855,1.628808 -0.904989,0.817293 -2.2906393,2.068183 -3.0792223,2.779756 -0.7885839,0.711573 -1.5493769,1.401166 -1.6906509,1.532428 l -0.256864,0.238658 -0.347458,-0.319084 c -0.47168,-0.433163 -0.916714,-0.624585 -1.532798,-0.659298 -0.632659,-0.03565 -1.052755,0.06652 -1.518669,0.369351 -0.70795,0.460141 -1.050697,1.10559 -1.046735,1.971177 0.0033,0.715089 0.206743,1.157915 0.766012,1.66713 0.535061,0.487173 0.91058,0.623765 1.714863,0.623765 0.677743,0 0.632619,-0.04648 0.540929,0.557245 -0.141558,0.932088 0.404155,1.926755 1.299126,2.367904 0.615248,0.303268 1.271477,0.334858 1.9641089,0.09455 z"
         id="path34" />
      <path
         id="path142"
         style="fill:#fecc2f;fill-opacity:1;stroke-width:0.0627587"
         d="M 31.943092,11.846094 C 31.019292,10.071687 29.397504,8.3289968 27.61124,7.1913108 26.255721,6.3279695 24.761766,5.76062 23.013375,5.4452101 22.542048,5.3601831 22.05207,5.3354076 20.786928,5.3326328 c -1.647611,-0.00361 -1.973021,0.025305 -3.117026,0.2770004 -3.251731,0.7154232 -6.104581,2.8286524 -7.8692772,5.8291138 -0.185224,0.31493 -0.3367701,0.608477 -0.3367701,0.652328 0,0.06473 2.1304683,0.07973 11.3241453,0.07973 H 32.112144 Z M 12.235555,11.268612 c -0.162831,-0.158487 -0.116198,-0.381323 0.164988,-0.788405 0.376551,-0.5451448 0.704509,-0.9324609 1.255373,-1.482588 0.357759,-0.3572806 0.52304,-0.4798497 0.647061,-0.4798497 0.183154,0 0.377125,0.1688916 0.377125,0.3283633 0,0.056048 -0.216851,0.3324771 -0.481892,0.6142858 -0.265041,0.2818086 -0.651865,0.7352766 -0.859609,1.0077076 -0.657062,0.861656 -0.691319,0.897783 -0.851307,0.897783 -0.08348,0 -0.19676,-0.04378 -0.251739,-0.0973 z m 4.333708,0.04891 c -0.151672,-0.163125 -0.134701,-0.359822 0.05946,-0.689171 0.330951,-0.56138 0.56196,-0.7129051 0.854523,-0.560506 0.211487,0.110165 0.149113,0.413008 -0.184459,0.895605 -0.327421,0.473699 -0.52785,0.570976 -0.729524,0.354072 z M 26.179135,11.733 c -0.06066,-0.0344 -0.15615,-0.216072 -0.212193,-0.403709 -0.05604,-0.187636 -0.185063,-0.51969 -0.286714,-0.737897 -0.146669,-0.314844 -0.172271,-0.428868 -0.124025,-0.552378 0.07824,-0.2003015 0.334477,-0.2664297 0.535531,-0.1382077 0.196008,0.1250037 0.559453,0.9648507 0.596896,1.3793077 0.02515,0.27843 0.01067,0.328893 -0.119933,0.417933 -0.170539,0.116265 -0.235849,0.122124 -0.389562,0.03495 z M 14.331794,11.67716 c -0.07992,-0.08596 -0.102321,-0.176921 -0.07559,-0.306989 0.05178,-0.252014 0.608694,-1.194521 0.962882,-1.6295688 0.235938,-0.2898014 0.324895,-0.3560175 0.478288,-0.3560175 0.216017,0 0.415804,0.2328602 0.356314,0.4152985 -0.02005,0.06148 -0.159784,0.2722738 -0.310525,0.4684328 -0.150741,0.196158 -0.384224,0.558189 -0.518852,0.804512 -0.397208,0.726758 -0.631303,0.885267 -0.892513,0.604332 z m 14.635032,0.106664 C 28.915846,11.707204 28.811527,11.480638 28.735012,11.280347 28.546144,10.785956 28.22982,10.282939 27.813628,9.8151662 27.62258,9.6004412 27.466269,9.3801227 27.466269,9.325569 c 0,-0.1863396 0.190324,-0.374406 0.3789,-0.374406 0.373091,0 1.245207,1.157036 1.605035,2.129401 0.186851,0.504927 0.191042,0.536688 0.09052,0.686005 -0.138523,0.205773 -0.442388,0.21491 -0.573903,0.01726 z" />
      <path
         style="fill:#fecc2f;fill-opacity:1;stroke-width:0.0627587"
         d="m 39.889381,17.989949 c 0.373185,-0.285718 0.377566,-0.855733 0.009,-1.170708 L 39.675494,16.628763 H 20.948628 2.2217618 l -0.194569,0.159353 c -0.386605,0.31663 -0.398886,0.915313 -0.02465,1.201833 0.162591,0.124483 0.210763,0.1248 18.9434212,0.1248 18.732658,0 18.78083,-3.09e-4 18.943421,-0.1248 z"
         id="path136" />
      <path
         style="fill:#000000;stroke-width:0.0627587"
         d="m 20.10247,27.828764 c -0.373014,-0.179714 -0.555991,-0.445967 -0.555991,-0.80903 0,-0.368081 0.160344,-0.590083 0.570663,-0.790101 0.801861,-0.390884 1.870332,-0.01768 1.981435,0.692098 0.04897,0.312829 -0.198485,0.721448 -0.542398,0.895663 -0.381749,0.19338 -1.064839,0.198723 -1.453709,0.01137 z"
         id="path130" />
      <path
         style="fill:#000000;stroke-width:0.0627587"
         d="m 14.962995,26.076967 c -2.079996,-0.634099 -3.1691,-3.033072 -2.215176,-4.879377 0.204376,-0.395566 0.823553,-1.024781 1.26031,-1.280742 0.700885,-0.410753 1.634146,-0.544029 2.417998,-0.345308 1.014196,0.257119 2.023165,1.059721 2.482491,1.974741 0.22536,0.448937 0.248663,0.543768 0.274941,1.118863 0.0344,0.752797 -0.06593,1.162617 -0.433411,1.770374 -0.442458,0.731759 -1.196133,1.313119 -2.090675,1.612679 -0.40636,0.136079 -1.295042,0.15115 -1.696478,0.02877 z"
         id="path132" />
      <path
         style="fill:#000000;stroke-width:0.0627587"
         d="m 24.92887,26.004057 c -1.2219,-0.319845 -2.094335,-1.168674 -2.385354,-2.320815 -0.302117,-1.196071 0.0092,-2.344008 0.858215,-3.164303 0.668358,-0.645766 1.501551,-0.98012 2.442412,-0.98012 1.873746,0 3.408995,1.449705 3.402179,3.21261 -0.0031,0.789494 -0.395937,1.778181 -0.938718,2.362271 -0.676318,0.727789 -1.30482,0.990436 -2.355032,0.984151 -0.380562,-0.0023 -0.832143,-0.04365 -1.023702,-0.09379 z"
         id="path134" />
      <path
         style="fill:#d20a15;fill-opacity:1;stroke:none;stroke-width:0.264583px;stroke-linecap:butt;stroke-linejoin:miter;stroke-opacity:1"
         d="m 9.473712,12.134235 -0.182862,0.365726 -0.182864,0.365726 -0.146291,0.43887 -0.146288,0.475444 -0.109717,0.365726 -0.182864,0.658307 -0.146291,0.402298 -0.109718,0.512016 -0.07314,0.219436 25.198513,0.03657 v -0.512016 l -0.07315,-0.256008 -0.109718,-0.365726 -0.14629,-0.585161 -0.146291,-0.438871 -0.182863,-0.402299 -0.14629,-0.329153 -0.219436,-0.438871 -0.14629,-0.329153 -0.109718,-0.146291 z"
         id="path1030" />
    </g>
  </g>
</svg>
