<?xml version="1.0" encoding="UTF-8" standalone="no"?>
<svg
   xmlns:dc="http://purl.org/dc/elements/1.1/"
   xmlns:cc="http://creativecommons.org/ns#"
   xmlns:rdf="http://www.w3.org/1999/02/22-rdf-syntax-ns#"
   xmlns:svg="http://www.w3.org/2000/svg"
   xmlns="http://www.w3.org/2000/svg"
   xmlns:sodipodi="http://sodipodi.sourceforge.net/DTD/sodipodi-0.dtd"
   xmlns:inkscape="http://www.inkscape.org/namespaces/inkscape"
   sodipodi:docname="luffy black1.svg"
   width="85mm"
   height="85mm"
   viewBox="0 0 85 85"
   version="1.1"
   id="svg8"
   inkscape:version="1.0.1 (c497b03c, 2020-09-10)">
  <defs
     id="defs2">
    <symbol
       id="inkstitch_ignore_layer">
      <title
         id="title9694">Ignore entire layer when generating stitch plan</title>
      <path
         inkscape:connector-curvature="0"
         style="opacity:1;vector-effect:none;fill:#fafafa;fill-opacity:1;fill-rule:evenodd;stroke:#ff0000;stroke-width:1.06501;stroke-linecap:round;stroke-linejoin:miter;stroke-miterlimit:4;stroke-dasharray:3.19504, 3.19504;stroke-dashoffset:0;stroke-opacity:1"
         d="M 9.2465269,-4.9265995e-6 C 9.246525,5.1067241 5.1067028,9.2465451 -2.615882e-5,9.2465451 -5.1067554,9.2465451 -9.2465782,5.1067241 -9.2465801,-4.9265995e-6 -9.24658,-2.4523429 -8.2723922,-4.8042399 -6.538327,-6.5383059 c 1.7340653,-1.734065 4.0859624,-2.708252 6.53830084118,-2.708252 5.10673015882,0 9.24655285882,4.139823 9.24655305882,9.2465529734005 0,0 0,0 0,0"
         id="inkstitch_path25368-7" />
      <path
         sodipodi:nodetypes="ccccc"
         inkscape:connector-curvature="0"
         style="color:#000000;fill:#d5d5d5;fill-opacity:1;fill-rule:evenodd;stroke:#5a5a5a;stroke-width:0.6333;stroke-linecap:square;stroke-linejoin:round;stroke-miterlimit:0;stroke-opacity:1"
         d="M 4,4.452769 1.46667,1.286102 H -5.5 l 2.53333,3.166667 z"
         id="use5800" />
      <path
         sodipodi:nodetypes="ccccc"
         inkscape:connector-curvature="0"
         style="color:#000000;opacity:0.5;fill:#d5d5d5;fill-opacity:1;fill-rule:evenodd;stroke:#858585;stroke-width:0.633394;stroke-linecap:square;stroke-linejoin:round;stroke-miterlimit:0;stroke-opacity:1"
         d="M 4,2.552769 1.46667,-0.613898 H -5.5 l 2.53333,3.166667 z"
         id="use5864" />
      <g
         id="g5771">
        <path
           sodipodi:nodetypes="ccccccccc"
           inkscape:connector-curvature="0"
           style="fill:#aa0000;fill-rule:evenodd;stroke:#aa0000;stroke-width:1px"
           d="m -1.0666699,-5.0472339 h 4.4333333 l 0.6333333,0.6333333 V 0.01943274 L 3.3666634,0.65276607 H -1.0666699 L -1.7000032,0.01943274 V -4.4139006 Z"
           id="path8011" />
        <path
           inkscape:connector-curvature="0"
           id="path8023"
           d="m -0.43333658,-3.8755672 c 0,0 3.16666668,3.16666661 3.16666668,3.16666661"
           style="fill:none;stroke:#ffffff;stroke-width:1.7" />
        <path
           inkscape:connector-curvature="0"
           id="path8025"
           d="m 2.7333301,-3.8755672 c 0,0 -3.16666668,3.16666661 -3.16666668,3.16666661"
           style="fill:none;stroke:#ffffff;stroke-width:1.8;stroke-linejoin:round" />
      </g>
    </symbol>
  </defs>
  <sodipodi:namedview
     id="base"
     pagecolor="#000000"
     bordercolor="#666666"
     borderopacity="1.0"
     inkscape:pageopacity="0.18039216"
     inkscape:pageshadow="2"
     inkscape:zoom="1.0557097"
     inkscape:cx="385.70774"
     inkscape:cy="52.151911"
     inkscape:document-units="mm"
     inkscape:current-layer="g4814"
     inkscape:document-rotation="0"
     showgrid="false"
     inkscape:window-width="1280"
     inkscape:window-height="800"
     inkscape:window-x="0"
     inkscape:window-y="0"
     inkscape:window-maximized="0" />
  <metadata
     id="metadata5">
    <rdf:RDF>
      <cc:Work
         rdf:about="">
        <dc:format>image/svg+xml</dc:format>
        <dc:type
           rdf:resource="http://purl.org/dc/dcmitype/StillImage" />
        <dc:title />
      </cc:Work>
    </rdf:RDF>
  </metadata>
  <g
     inkscape:label="Layer 1"
     inkscape:groupmode="layer"
     id="layer1">
    <g
       id="g4814"
       transform="matrix(2.055638,0,0,2.1046648,-0.94923343,2.6384207)"
       style="stroke-width:0.537205">
      <path
         style="fill:#ffffff;stroke-width:0.0497044"
         d="m 27.705491,6.2222485 c 0,-0.4599592 0.437072,-1.1196203 0.589163,-0.8892078 0.07686,0.1164604 0.04673,0.3460502 -0.09224,0.7024314 -0.234045,0.6002378 -0.496928,0.6990473 -0.496928,0.1867685 z"
         id="path3884" />
      <path
         style="fill:#ffffff;stroke-width:0.0497044"
         d="m 32.957455,6.1633824 c -0.186486,-0.5629559 -0.173897,-0.792791 0.04344,-0.792791 0.147345,0 0.571593,1.0855181 0.485296,1.2417399 -0.147192,0.2664548 -0.348308,0.095692 -0.528725,-0.4489489 z"
         id="path3882" />
      <path
         style="fill:#ffffff;stroke-width:0.0497044"
         d="m 26.442024,6.6083111 c 0,-0.069809 0.0487,-0.1541977 0.108203,-0.1875304 0.05952,-0.033333 0.192765,-0.233859 0.296118,-0.4456095 0.171196,-0.3507474 0.345793,-0.4685605 0.494573,-0.3337222 0.08396,0.076097 -0.635853,1.0851632 -0.777407,1.0898042 -0.06681,0.00215 -0.121493,-0.053129 -0.121493,-0.1229378 z"
         id="path3880" />
      <path
         style="fill:#ffffff;stroke-width:0.0497044"
         d="M 34.694034,6.4489685 C 34.579938,6.2430764 34.377187,5.9424472 34.243488,5.7809025 34.066405,5.5669399 34.029484,5.4608249 34.107514,5.390104 c 0.154977,-0.1404511 0.544064,0.219086 0.849628,0.7851082 0.233487,0.4325089 0.244738,0.6481052 0.03383,0.6481052 -0.04921,0 -0.182836,-0.1684567 -0.296936,-0.3743489 z"
         id="path3878" />
      <path
         style="fill:#ffffff;stroke-width:0.0497044"
         d="m 19.844021,10.059021 c -0.127641,-0.059847 -0.23207,-0.1484411 -0.23207,-0.1968855 0,-0.1716436 0.459419,-0.3147734 0.8461,-0.2636 0.323234,0.042778 0.412894,0.017556 0.58314,-0.1639908 0.251017,-0.2676898 0.670591,-0.3662396 0.827897,-0.1944597 0.17098,0.1867122 -0.106968,0.610585 -0.515638,0.786337 -0.394669,0.169731 -1.180728,0.186708 -1.509429,0.0326 z"
         id="path3876" />
      <path
         style="fill:#ffffff;stroke-width:0.0497044"
         d="m 19.055597,12.428348 c 0.760461,0.01091 0.802942,0.0026 0.534544,-0.104176 -0.725749,-0.288775 -2.184807,-0.228198 -2.488384,0.103314 -0.108128,0.118072 -0.05003,0.125149 0.502737,0.06127 0.343743,-0.03974 0.996741,-0.06691 1.451103,-0.06041 z"
         id="path3874" />
      <path
         style="fill:#ffffff;stroke-width:0.0497044"
         d="m 67.237706,52.81427 1.102158,0.229415 1.397045,-0.0096 1.461754,-0.229339 1.29629,-0.429861 1.51216,-0.795005 1.483358,-0.967134 2.751321,-2.322935 1.203467,-1.291941 1.045674,-1.336349 0.855634,-1.348828 0.633346,-1.329376 0.695206,-1.126534 1.138776,-0.771775 1.417223,-0.787384 1.268109,-0.961502 1.090039,-1.090444 0.883012,-1.174212 0.647029,-1.212807 0.38209,-1.206226 0.08819,-1.154471 -0.234656,-1.057542 -0.210468,-0.340199 -0.243047,0.15519 -0.920049,2.318869 -0.810856,2.083004 -0.80292,1.54363 -0.877558,1.13592 -1.034769,0.859879 -0.838975,0.440667 -0.503842,-0.03508 -0.174549,-0.515598 0.148905,-1.000888 0.176003,-1.046706 -0.04856,-0.613913 -0.580153,0.04374 -1.102088,0.534447 -1.69432,0.751343 -1.785566,0.302407 -1.806677,-0.149511 -1.757653,-0.604409 -1.484852,-0.612084 -0.316612,0.03598 -0.176273,0.239572 -0.0013,0.305385 0.198039,0.411148 0.951439,1.07301 0.863395,0.961188 0.17367,0.335983 -0.03871,0.179834 -0.911699,-0.204885 -1.672614,-0.783499 -1.75495,-0.811006 -1.109634,-0.271065 -0.548918,0.37463 -0.411062,0.778558 -0.200934,0.975388 0.08147,0.965118 0.382182,0.776631 0.582184,0.65143 0.565895,0.512287 0.08715,0.302569 -0.402598,0.107066 -0.903339,-0.07422 -1.158339,-0.270821 -0.83299,-0.444987 -0.503114,-0.61556 -0.168711,-0.782541 -0.130511,-0.687492 -0.38557,-0.363162 -0.631682,-0.03532 -0.868849,0.296029 -0.953639,0.317824 -1.094389,0.13462 -1.194298,-0.05009 -1.253366,-0.236316 -1.18114,-0.307049 0.63157,0.873574 0.433573,0.699898 -0.405604,-0.03624 -2.203,-0.642546 -1.580438,-0.696759 -1.547349,-1.157987 -1.744822,-1.422105 -0.22931,0.173357 0.153223,0.482162 1.330954,1.663305 1.340133,1.144009 0.574772,0.279084 0.543527,0.103859 0.56382,0.100457 0.502741,0.309945 1.221047,1.598583 1.404071,1.838554 1.593545,1.655957 3.376277,2.500755 1.824399,1.144998 z"
         id="path3872"
         transform="scale(0.264583)" />
      <path
         style="fill:#ffffff;stroke-width:0.0497044"
         d="m 32.22482,14.31996 c -1.60627,-0.671869 -1.427368,-2.861091 0.267607,-3.27473 0.499215,-0.121833 1.05866,-0.04753 1.558255,0.206946 0.86971,0.442996 1.148974,1.594745 0.588174,2.425761 -0.497424,0.737104 -1.530109,1.01175 -2.414036,0.642023 z"
         id="path3870" />
      <path
         style="fill:#ffffff;stroke-width:0.0497044"
         d="m 26.49062,14.34792 c -1.461738,-0.688993 -1.545761,-2.561312 -0.144021,-3.20941 1.532962,-0.708769 3.42673,0.941297 2.659593,2.317339 -0.488826,0.876826 -1.66387,1.29352 -2.515566,0.892071 z"
         id="path3868" />
      <path
         style="fill:#ffffff;stroke-width:0.0497044"
         d="m 24.507983,14.519619 c -0.889567,-0.915897 -1.75867,-2.400202 -1.790174,-3.057367 -0.02818,-0.58777 0.211542,-0.458006 0.461106,0.249604 0.37804,1.071884 0.893356,1.851354 1.79063,2.708521 l 0.53017,0.506471 h -0.298103 c -0.23266,0 -0.384935,-0.0894 -0.693629,-0.407229 z"
         id="path3866" />
      <path
         style="fill:#ffffff;stroke-width:0.0497044"
         d="m 111.93357,57.805109 0.82662,0.437756 1.13614,0.164551 1.14413,-0.115185 0.85058,-0.401446 0.51062,-0.694616 0.0837,-0.692616 -0.26969,-0.639182 -0.54948,-0.534314 -0.75568,-0.378011 -0.88831,-0.170273 -0.94735,0.0889 -0.93281,0.399503 -0.55944,0.535763 -0.22474,0.64393 0.11523,0.687822 z"
         id="path3862"
         transform="scale(0.264583)" />
      <path
         style="fill:#ffffff;stroke-width:0.0497044"
         d="m 24.652402,15.91778 c 0.0713,-0.357949 0.224094,-0.677463 0.293774,-0.614312 0.0239,0.02165 -4.86e-4,0.143957 -0.05406,0.271788 -0.08212,0.195756 -0.07105,0.232035 0.07017,0.229972 0.09222,-0.0013 0.339474,-0.120254 0.549451,-0.264246 0.473083,-0.324409 0.654623,-0.339999 0.339792,-0.02918 -0.24532,0.242193 -1.038748,0.736286 -1.182353,0.736286 -0.04542,0 -0.05296,-0.14864 -0.01677,-0.330309 z"
         id="path3860" />
      <path
         style="fill:#ffffff;stroke-width:0.0497044"
         d="m 13.918534,16.073142 c -0.358933,-0.727511 -0.366303,-0.79645 -0.114427,-1.070466 l 0.191146,-0.207943 0.0066,0.352328 c 0.0036,0.193781 0.06749,0.609589 0.141851,0.924021 0.07436,0.314429 0.122865,0.582876 0.107767,0.596547 -0.01508,0.01364 -0.164934,-0.253847 -0.332994,-0.594487 z"
         id="path3858" />
      <path
         style="fill:#ffffff;stroke-width:0.0497044"
         d="m 21.489235,18.030075 c -0.0021,-0.109917 0.121946,-0.413568 0.275755,-0.674784 0.167697,-0.28481 0.350067,-0.813794 0.45556,-1.321405 0.185445,-0.892324 0.317343,-1.01959 0.473758,-0.457118 0.140857,0.506532 -0.311334,2.322593 -0.622116,2.498493 -0.144488,0.08178 -0.161604,0.06545 -0.123046,-0.117396 0.06078,-0.288161 -0.131725,-0.269694 -0.311031,0.02983 -0.137661,0.229958 -0.145195,0.232104 -0.148887,0.04238 z"
         id="path3856" />
      <path
         style="fill:#ffffff;stroke-width:0.0497044"
         d="m 11.593433,18.384075 c -0.05858,-0.181669 -0.201578,-0.825769 -0.317777,-1.431332 -0.116205,-0.605564 -0.271032,-1.232581 -0.344076,-1.393372 -0.119957,-0.264047 -0.117034,-0.289596 0.03018,-0.263902 0.22621,0.03948 0.697047,1.65052 0.773956,2.648196 0.03268,0.423895 0.038,0.770718 0.01175,0.770718 -0.02617,0 -0.09553,-0.148638 -0.154104,-0.330308 z"
         id="path3852" />
      <path
         style="fill:#ffffff;stroke-width:0.0497044"
         d="m 72.308938,79.137441 0.438884,0.396162 0.355188,0.155674 0.326267,-0.07865 0.352167,-0.306774 0.631327,-1.085005 0.790195,-1.884262 0.787642,-2.259587 0.623667,-2.210977 0.746797,-2.420197 0.914359,-2.12467 0.764777,-1.614498 -0.0722,-0.247149 -0.342558,-0.05258 -0.546177,-0.09289 -0.353124,-0.223309 0.0521,-0.334747 0.47993,-0.329489 0.752798,-0.251229 0.870698,-0.09996 0.684054,-0.102014 0.47191,-0.2993 0.26051,-0.486478 0.04986,-0.663548 -0.160053,-0.830508 -0.369215,-0.987361 -1.362936,-2.404841 -0.833066,-1.357615 -0.617557,-1.330764 -1.062211,-3.804816 -0.178696,-0.781912 -0.901448,0.881529 -2.934252,3.679034 -2.229896,2.793762 -0.933122,0.836795 -0.903291,0.49706 -0.942,0.182571 -1.049248,-0.106675 -1.225037,-0.370678 -1.469364,-0.609438 -0.122908,0.02645 -0.03837,0.20604 0.139672,0.809974 0.884548,2.225286 0.917764,1.969943 0.275074,0.804768 -0.945283,-0.673879 -1.199642,-0.638606 -1.508266,-0.453859 -1.730867,-0.250394 -1.867446,-0.02821 -2.203991,0.102992 3.220835,0.937259 2.216432,0.74741 0.806003,0.480781 -0.893085,0.148285 -1.868586,-0.0521 -1.891007,-0.05536 -0.500267,0.06773 -0.171998,0.129618 1.902869,5.360621 2.655828,6.46714 0.927064,1.537492 0.410189,0.295275 0.470798,0.08145 0.622373,-0.07797 0.548273,-0.243296 0.48196,-0.42271 0.423434,-0.616209 0.702442,-1.869254 0.561785,-2.812273 0.284627,-2.237764 -0.04917,-1.296354 -0.169716,-0.371386 -0.277108,-0.22752 -0.908321,-0.145421 -0.616803,-0.08149 -0.256547,-0.195926 0.326009,-0.195926 0.783811,-0.08149 1.118221,-0.249248 1.134129,-0.721727 1.142517,-0.970988 -0.173858,0.881375 -0.05424,0.482144 0.131491,0.291991 1.160056,0.311754 0.977047,0.237185 0.396715,0.28509 -0.215833,0.239566 -0.860594,0.100617 -0.929146,0.165932 -0.483555,0.56626 -0.09886,0.727558 0.08402,1.109794 0.58219,2.853099 0.910262,2.842444 0.494109,1.096475 z"
         id="path3850"
         transform="scale(0.264583)" />
      <path
         style="fill:#ffffff;stroke-width:0.0497044"
         d="m 32.994433,23.111869 c -0.164712,-0.04334 -0.371206,-0.150642 -0.458878,-0.23844 -0.152974,-0.153194 -0.136246,-0.15616 0.41489,-0.07356 0.484706,0.07265 0.635473,0.06108 0.966488,-0.0742 0.287564,-0.117526 0.511451,-0.145467 0.839213,-0.104749 0.760728,0.0945 0.858411,0.227582 0.169288,0.230639 -0.368253,0.0016 -0.796236,0.0714 -1.096982,0.178842 -0.27123,0.0969 -0.50246,0.17259 -0.513845,0.16822 -0.01145,-0.0043 -0.155463,-0.04341 -0.320174,-0.08675 z"
         id="path3848" />
      <path
         id="path3836"
         style="fill:#ffffff;stroke-width:0.0497044"
         d="M 37.1815,23.231412 C 36.880273,23.165092 36.370475,22.783849 36.21228,22.5066 35.970118,22.082196 35.936586,21.615171 36.11435,21.142801 l 0.163425,-0.434246 -0.617232,-0.508804 c -0.339476,-0.279841 -0.644348,-0.510528 -0.677492,-0.512635 -0.03315,-0.0022 -0.117018,0.184443 -0.18639,0.414558 -0.319083,1.058439 -1.047725,1.990345 -1.723038,2.203698 -0.281012,0.08879 -0.260356,0.0559 0.253777,-0.403921 0.593909,-0.531175 0.901236,-1.030377 1.134925,-1.843492 0.180841,-0.629226 0.192036,-1.20506 0.02215,-1.139071 -1.673218,0.649928 -2.443775,0.87053 -3.408595,0.975847 -0.406882,0.04442 -0.464384,0.03129 -0.43657,-0.0996 0.02402,-0.113019 0.207781,-0.177415 0.734218,-0.257298 0.386202,-0.0586 0.746667,-0.131465 0.801032,-0.161918 0.145588,-0.08155 0.120289,-0.953624 -0.03318,-1.143839 -0.121539,-0.150645 -0.177923,-0.154813 -0.709929,-0.0525 -0.826082,0.158878 -1.019197,0.113535 -1.236851,-0.29044 -0.100986,-0.187428 -0.193124,-0.493619 -0.204754,-0.680424 -0.02715,-0.436144 -0.159881,-0.573697 -0.617571,-0.640026 -0.203791,-0.02953 -0.454443,-0.139231 -0.557007,-0.243783 l -0.186478,-0.190084 0.826113,0.04998 c 1.02356,0.06193 2.278312,-0.05834 3.110075,-0.298099 1.090512,-0.314352 1.740907,-0.686176 2.678706,-1.531388 0.948839,-0.855163 1.402036,-1.518859 1.84731,-2.705334 0.275248,-0.733423 0.295715,-0.999642 0.08256,-1.073776 -0.08455,-0.0294 -3.215281,-0.05346 -6.957173,-0.05346 -5.399545,0 -6.795085,-0.02272 -6.762958,-0.110105 0.03182,-0.08656 1.924728,-0.119521 8.855938,-0.154143 7.69448,-0.03844 8.827175,-0.06084 8.907596,-0.176164 0.152273,-0.2183578 0.107134,-0.5164591 -0.09288,-0.6134743 -0.125457,-0.060852 -3.000968,-0.091184 -8.644159,-0.091184 -7.863213,0 -9.01644,-0.03006 -8.449502,-0.2202244 0.0702,-0.023557 3.079788,-0.072809 6.68796,-0.109487 L 37.27869,8.9812993 37.31297,8.7610936 C 37.372611,8.3780574 37.135854,7.6279027 36.910096,7.4845948 36.729781,7.3701266 35.957934,7.351795 31.320385,7.351795 c -4.261201,0 -5.372091,-0.022911 -5.340038,-0.1101043 0.03145,-0.085528 1.209814,-0.1199232 5.280648,-0.1541431 6.143912,-0.051636 5.682898,0.065933 4.635906,-1.1822129 C 34.925996,4.7479132 33.663686,3.9394009 32.176224,3.5222475 31.3773,3.2981916 29.591234,3.2472821 28.586373,3.4199223 c -0.450967,0.077479 -0.839056,0.1235465 -0.862417,0.102374 -0.1362,-0.1234359 0.133654,-0.3066442 0.582281,-0.3953259 0.949942,-0.1877794 2.109512,-0.2088327 3.076802,-0.055863 1.813359,0.2867675 3.175465,0.9623624 4.471602,2.2178818 0.421071,0.4078739 0.832504,0.7415904 0.914295,0.7415904 0.08179,0 0.552442,-0.3469132 1.04589,-0.7709166 L 38.711999,4.4887475 38.554187,4.0674783 c -0.202542,-0.5406656 -0.196453,-0.8139319 0.02812,-1.2621167 0.399807,-0.7978959 1.437068,-1.1294082 2.367145,-0.7565464 0.488919,0.1960051 0.683394,0.4141815 0.933171,1.046898 0.143779,0.3642022 0.222168,0.4408731 0.569763,0.55724 0.801723,0.2684015 1.192236,0.7943265 1.192236,1.605653 0,0.5690224 -0.312647,1.0412449 -0.853719,1.2894562 -0.577134,0.2647527 -0.894675,0.28721 -1.475546,0.1043478 -0.338204,-0.1064724 -0.588087,-0.1396759 -0.687651,-0.091385 -0.287709,0.1395468 -2.765878,2.289707 -2.765878,2.3997869 0,0.080289 0.445824,0.1200668 1.710403,0.1526344 1.950799,0.050229 2.031405,0.076326 2.031405,0.657749 0,0.6276285 -0.104617,0.6632685 -1.95145,0.6648285 -0.877788,7.05e-4 -1.645157,0.03048 -1.705263,0.06606 -0.06011,0.03559 -0.202756,0.401626 -0.316999,0.813409 -0.39222,1.413741 -1.118456,2.524807 -2.36433,3.617186 -0.362794,0.318098 -0.659625,0.620565 -0.659625,0.672147 0,0.05158 0.207743,0.26127 0.46165,0.46597 0.253909,0.204697 1.059005,0.883244 1.789101,1.50788 0.734196,0.628144 1.407443,1.134307 1.506443,1.13258 0.09844,-0.0017 0.288332,-0.05976 0.421968,-0.128996 0.133638,-0.06924 0.464022,-0.127287 0.734193,-0.128996 1.133202,-0.0072 1.987141,0.95328 1.701695,1.914006 -0.175433,0.590456 -0.494422,0.926364 -1.078816,1.136035 -0.478823,0.171793 -0.545274,0.22878 -0.676743,0.580369 -0.08018,0.214428 -0.225732,0.498666 -0.323444,0.63164 -0.321823,0.437959 -1.229808,0.676985 -1.960518,0.516103 z m 0.927616,-0.288725 c 0.556637,-0.140149 0.974804,-0.601125 1.049879,-1.157362 l 0.0635,-0.470408 0.474076,-0.06143 c 1.095951,-0.142002 1.576505,-1.251458 0.871136,-2.011185 -0.523643,-0.563997 -1.120909,-0.668194 -1.718969,-0.299886 -0.479811,0.295486 -0.650297,0.248279 -1.378514,-0.381704 -1.751535,-1.515263 -2.971178,-2.509321 -3.022122,-2.463152 -0.03167,0.02871 0.05649,0.444178 0.195928,0.923272 0.13944,0.479093 0.253805,1.105682 0.254158,1.392416 7.78e-4,0.647467 0.134769,0.846666 1.123258,1.670203 l 0.744636,0.620374 -0.205344,0.347224 c -0.417715,0.706332 -0.1505,1.498024 0.611492,1.811652 0.465761,0.191703 0.486227,0.19345 0.936893,0.07999 z m -4.545164,-4.062031 c 0.793796,-0.359883 0.945094,-0.49114 0.943502,-0.81852 -0.0018,-0.377158 -0.0987,-0.668983 -0.222027,-0.668983 -0.173061,0 -1.667036,0.5663 -1.740697,0.659821 -0.03787,0.04808 -0.05132,0.167014 -0.0299,0.264308 0.02143,0.09729 0.06532,0.325534 0.09755,0.507203 0.07212,0.406518 0.166513,0.41209 0.95157,0.05617 z m -1.615835,-1.154941 c 0.140314,-0.127173 0.142695,-0.196642 0.02244,-0.655788 l -0.134498,-0.513553 -0.720888,0.01865 c -0.462556,0.01191 -0.749356,0.05931 -0.800328,0.132125 -0.09883,0.141169 -0.104828,0.958764 -0.008,1.094207 0.03927,0.05495 0.158876,0.115186 0.265784,0.133833 0.363457,0.06344 1.217977,-0.06669 1.375526,-0.209478 z m 1.404716,-0.336422 c 0.394566,-0.14746 0.756819,-0.303838 0.805005,-0.347509 0.121705,-0.110306 -0.116054,-0.838938 -0.331398,-1.015551 -0.160735,-0.131838 -0.213047,-0.128221 -0.693357,0.04786 -0.285728,0.10475 -0.620744,0.226702 -0.744481,0.271018 -0.150063,0.05374 -0.209063,0.131665 -0.177182,0.234002 0.02628,0.08439 0.0779,0.331797 0.114698,0.549799 0.07352,0.435495 0.114201,0.528492 0.231231,0.528492 0.04294,0 0.400915,-0.120641 0.795481,-0.268106 z M 39.257622,7.2172998 c 0.767686,-0.6526959 1.436421,-1.1867204 1.48608,-1.1867204 0.04966,0 0.213009,0.082226 0.363003,0.1827315 0.91399,0.6124167 2.18654,-0.00947 2.18654,-1.0684322 0,-0.6732598 -0.461388,-1.1240336 -1.252254,-1.2234429 -0.381612,-0.047966 -0.389732,-0.056534 -0.441672,-0.4660373 -0.09158,-0.7220774 -0.659294,-1.2270248 -1.379529,-1.2270248 -1.17914,0 -1.767864,0.9321608 -1.218428,1.9292054 l 0.216231,0.3923847 -0.434908,0.36072 c -0.239199,0.1983945 -0.755561,0.6335878 -1.147472,0.9670947 l -0.712566,0.606376 0.238561,0.4566299 c 0.131213,0.2511483 0.31771,0.6841912 0.414447,0.9623201 0.09674,0.2781289 0.200702,0.504615 0.231031,0.5033015 0.03033,-0.00131 0.683249,-0.5364103 1.450936,-1.1891062 z" />
      <path
         style="fill:#ffffff;stroke-width:0.0497044"
         d="m 25.089326,17.952975 c -0.459243,-0.472836 -0.693533,-1.031598 -0.503683,-1.201244 0.09455,-0.08449 0.149716,-0.07084 0.259748,0.06427 0.07683,0.09436 0.115089,0.241789 0.08503,0.327645 -0.0341,0.09737 0.09508,0.355957 0.34333,0.687256 0.472851,0.631052 0.373677,0.696697 -0.184426,0.122076 z"
         id="path3854" />
      <path
         style="fill:#ffffff;stroke-width:0.0497044"
         d="m 16.700427,23.933238 c -0.823146,-1.021097 -1.74611,-2.371395 -2.543716,-3.721463 -0.668179,-1.130988 -2.311383,-4.216011 -2.437633,-4.576518 -0.09785,-0.279424 0.102523,-0.156591 0.295088,0.180886 0.140028,0.245414 0.357509,0.279364 0.326397,0.05095 -0.03084,-0.226455 0.01563,-0.323665 0.154722,-0.323665 0.08018,0 0.146356,0.0099 0.147064,0.02202 0.02111,0.363957 0.458502,1.836254 0.728998,2.45383 0.442121,1.009419 1.527696,2.967811 1.57453,2.840476 0.01867,-0.05077 -0.1605,-0.564167 -0.398168,-1.140868 -0.410557,-0.996214 -0.646831,-1.728362 -0.778975,-2.413819 -0.05786,-0.300115 -0.05208,-0.296613 0.218075,0.132125 0.152628,0.242225 0.644846,1.143919 1.093815,2.003763 0.448969,0.859846 0.848015,1.563401 0.88677,1.563455 0.03876,5.6e-5 0.0468,-0.128723 0.0179,-0.286165 -0.02892,-0.157447 -0.0701,-0.385359 -0.09154,-0.506472 -0.02143,-0.121115 0.08892,0.02783 0.245219,0.330983 0.341343,0.662044 0.784469,1.272899 1.237364,1.705715 0.251781,0.24062 0.326044,0.381245 0.301955,0.57178 -0.06053,0.478715 -0.316662,0.350087 -0.670556,-0.336741 -0.557933,-1.082828 -0.479255,-0.395857 0.186214,1.62589 0.107631,0.327004 0.180419,0.594553 0.161742,0.594553 -0.01869,0 -0.313549,-0.346823 -0.655265,-0.770717 z"
         id="path3834" />
      <path
         style="fill:#ffffff;stroke-width:0.0497044"
         d="M 0.80820814,24.858617 C 0.45728499,24.708573 0.48490023,24.326088 0.89373447,23.674094 1.0527719,23.420467 1.206433,23.018328 1.2387208,22.771253 1.3017806,22.288754 1.181432,22.177059 0.99598033,22.545947 0.78919526,22.957261 0.6867264,22.785891 0.6867264,22.02875 c 0,-1.313638 0.5623461,-2.837814 1.6940587,-4.591556 0.3313045,-0.5134 0.3411274,-0.520316 0.3439858,-0.242225 0.00452,0.43975 0.1488875,0.342275 0.3913598,-0.264246 0.3959541,-0.99044 1.067393,-2.274872 2.4058485,-4.602283 C 6.9194442,9.8984182 7.2401212,9.4569589 8.0205008,8.8888509 8.4829216,8.5522117 8.5121596,8.5063799 8.5398592,8.0747395 8.5625367,7.7214612 8.6142653,7.5954987 8.7671354,7.5213513 9.1018287,7.3590142 9.7268641,6.8086708 9.6704658,6.7259677 9.6411434,6.6829739 9.4775027,6.7116125 9.3068086,6.7896616 L 8.9964578,6.9315196 9.3512655,6.5911581 C 9.5464104,6.4039593 9.9064377,5.9675041 10.151325,5.621257 c 1.188916,-1.6809963 2.36331,-2.4583064 1.502827,-0.9946925 -0.225181,0.3830137 -0.380589,0.7225196 -0.345351,0.7544541 0.03524,0.03194 0.294745,-0.1201098 0.576685,-0.3378852 0.862906,-0.6665185 1.062341,-0.7292608 1.867758,-0.587598 0.910343,0.1601163 3.843412,0.1689677 3.844058,0.011628 2.93e-4,-0.080705 -0.265571,-0.1111235 -0.995741,-0.1139084 l -0.996197,-0.00388 0.534544,-0.4402333 c 0.294,-0.2421277 0.822816,-0.5639042 1.175148,-0.7150582 0.409021,-0.1754751 0.719687,-0.3794262 0.859367,-0.5641729 0.274906,-0.3636024 0.189594,-0.5301797 -0.163805,-0.3198353 -0.196756,0.1171096 -0.555897,0.165395 -1.525672,0.2051236 -1.012753,0.041488 -1.365301,0.091197 -1.749495,0.2466717 -0.434324,0.1757605 -0.465068,0.1786011 -0.315867,0.029187 0.190829,-0.1911027 0.211757,-0.3825946 0.05712,-0.5227321 -0.248428,-0.2251463 0.04055,-0.2895539 1.30447,-0.2907396 1.675385,-0.00156 1.719384,-0.013465 1.719384,-0.4648341 V 1.1553629 l -0.251599,0.2135383 c -0.238698,0.2025894 -0.305047,0.2122021 -1.294011,0.187478 -0.573328,-0.014327 -1.1536,0.012245 -1.289497,0.059077 -0.228295,0.078664 -0.255274,0.060952 -0.354788,-0.2329041 -0.07543,-0.2227608 -0.0771,-0.3514538 -0.0056,-0.42956755 0.129315,-0.14121916 0.0284,-0.29540607 -0.193341,-0.29540607 -0.09354,0 -0.254964,-0.056624 -0.358725,-0.12583184 -0.17314,-0.11548174 -0.174998,-0.13063364 -0.02259,-0.18419385 0.09134,-0.0320982 0.331886,-0.00801 0.534544,0.0535233 0.202658,0.0615364 0.674618,0.10824098 1.048798,0.10378657 0.374181,-0.00445 0.731948,0.030644 0.795038,0.077996 0.08001,0.0600578 0.15047,0.0255408 0.232946,-0.11412948 0.166248,-0.28152533 0.460134,-0.48701669 0.940199,-0.65740745 0.826711,-0.2934265 3.051979,-7.8394e-4 4.058324,0.53370578 0.687779,0.36529359 1.210294,0.92227669 1.798307,1.91693059 0.595189,1.0067909 0.503302,0.9594267 1.578302,0.8135637 0.515246,-0.069913 0.587912,0.021951 0.305954,0.3867777 -0.08563,0.110802 -0.135899,0.2194016 -0.1117,0.2413313 0.0242,0.02193 0.340986,-0.086082 0.703974,-0.2400268 0.682066,-0.2892665 1.604414,-0.4421583 1.604414,-0.265953 0,0.052903 -0.09841,0.1425901 -0.218676,0.1993013 -0.120274,0.056712 -0.233106,0.1141223 -0.250741,0.1275803 -0.01763,0.013451 0.04279,0.1280124 0.134287,0.2545666 0.111895,0.1547759 0.222629,0.2139132 0.33826,0.1806525 0.09455,-0.027196 0.350552,0.034943 0.568901,0.1380869 0.341023,0.1610949 0.382985,0.2112634 0.297612,0.3558331 -0.151714,0.2569162 -0.762482,0.7841708 -0.908377,0.7841708 -0.270441,0 -0.641601,0.3603798 -0.641601,0.6229663 0,0.1965182 -0.04487,0.2578536 -0.188643,0.2578536 -0.237717,0 -0.325568,0.1286082 -0.391089,0.5725323 -0.04691,0.3178267 -0.08164,0.3549435 -0.354623,0.3790344 -0.214166,0.018906 -0.335708,0.092519 -0.415811,0.2518459 -0.08621,0.1714613 -0.163465,0.2132248 -0.324054,0.1751649 -0.115979,-0.02749 -0.256877,-0.015877 -0.313113,0.025796 -0.05623,0.041673 -0.473999,0.2137516 -0.928361,0.3823849 -0.454363,0.1686332 -1.344188,0.5105867 -1.977391,0.7598947 -1.457539,0.5738716 -2.259176,0.7698056 -3.65962,0.8944746 -1.483932,0.1320965 -3.596023,-0.00962 -3.596023,-0.241404 0,-0.1171383 0.331431,-0.529036 0.537329,-0.6677832 0.198739,-0.1339196 0.512245,-0.1584138 2.34865,-0.1834823 1.841355,-0.025136 2.212837,-0.054291 2.832539,-0.22227 0.890213,-0.2413093 1.510094,-0.5232337 2.051012,-0.9328058 0.410665,-0.3109492 1.420389,-1.4077889 1.642985,-1.7847374 0.140962,-0.2386995 0.142409,-0.6714137 0.0038,-1.1240141 L 23.699532,4.053209 23.394261,4.4026006 c -0.458564,0.52484 -0.719864,0.7241087 -1.268534,0.9673933 -1.334694,0.5918098 -4.296726,1.0981733 -5.63259,0.9628986 l -0.570082,-0.057722 0.241582,-0.2189439 c 0.180137,-0.1632544 0.464617,-0.259493 1.118473,-0.3783683 0.48229,-0.087681 0.969064,-0.2041337 1.081722,-0.2587767 0.216552,-0.1050369 0.275335,-0.3214169 0.101574,-0.3739096 -0.07278,-0.021992 -0.07257,-0.1043191 6.81e-4,-0.2789772 0.122804,-0.2927124 0.06576,-0.409166 -0.20047,-0.409166 -0.106908,0 -0.167108,0.039994 -0.133775,0.088873 0.104979,0.153945 -0.05438,0.4396219 -0.245232,0.4396219 -0.100655,0 -0.219943,0.059832 -0.265096,0.1329434 -0.117561,0.1903727 -2.601444,0.289959 -3.400257,0.1363312 -0.48741,-0.093739 -0.624144,-0.089849 -0.931528,0.026557 C 12.973866,5.301336 12.879703,5.4164287 12.509144,6.1366155 12.035537,7.0570802 11.464976,7.7580498 10.873051,8.1466548 10.570591,8.3452229 10.442796,8.3851662 10.345089,8.3116762 10.19489,8.1987008 10.2779,8.0467296 9.3297648,10.170446 c -0.3784962,0.847789 -1.0997065,2.46291 -1.602689,3.589157 -0.9348166,2.093182 -2.1808536,5.281937 -2.1808536,5.581061 0,0.244648 0.097671,0.204656 0.5831401,-0.238779 0.5534183,-0.505498 0.7924415,-0.618737 1.467313,-0.695156 0.6604543,-0.07479 0.887307,-0.178786 0.6708633,-0.307558 -0.080177,-0.0477 -0.2426515,-0.08734 -0.3610428,-0.08808 -0.4767219,-0.003 -0.5502586,-0.658917 -0.1389426,-1.239271 0.3934196,-0.555095 0.739209,-0.865213 1.1295457,-1.013023 0.31501,-0.119292 0.3808921,-0.11253 0.9630166,0.09866 0.3436795,0.124689 0.6958315,0.297771 0.7825565,0.384622 0.441124,0.441756 0.314418,1.178724 -0.281195,1.635535 -0.189495,0.145335 -0.344535,0.298473 -0.344532,0.340307 2e-6,0.04183 0.191104,0.05008 0.424671,0.01835 l 0.424668,-0.05771 -0.04858,0.615431 c -0.03425,0.433874 -0.005,0.714294 0.0993,0.950553 0.231296,0.52412 0.618458,2.052722 0.519909,2.052722 -0.08227,0 -0.700586,-0.903124 -1.039361,-1.518126 -0.5572661,-1.01164 -0.9507098,-1.217314 -1.7067153,-0.892185 -0.3368767,0.144878 -1.6867703,1.306698 -1.6867703,1.451762 0,0.137106 0.17843,0.08408 0.604594,-0.17968 0.5804927,-0.359274 0.8221302,-0.410636 0.8990165,-0.191086 0.08182,0.233644 -0.1526049,0.616357 -0.5492701,0.896701 -1.4670915,1.036872 -2.9743319,1.982322 -3.4433796,2.159938 -0.4768816,0.180581 -0.5383051,-0.01895 -0.1090325,-0.354199 0.1916235,-0.149657 0.5705371,-0.444 0.8420305,-0.654097 0.2714934,-0.210097 0.4685008,-0.418837 0.4377921,-0.463868 -0.030709,-0.04503 -0.093859,-0.06058 -0.1403289,-0.03454 -0.04647,0.02603 -0.1239801,-0.01661 -0.1722446,-0.09477 -0.071784,-0.116248 -0.328324,0.07356 -1.4103903,1.043503 -1.30924,1.173582 -1.3278114,1.18605 -1.8320099,1.229957 -0.5016279,0.04368 -0.6728192,0.148905 -1.0067501,0.61879 -0.076365,0.107463 -0.14403559,0.116736 -0.31586727,0.04327 z"
         id="path3832" />
      <path
         style="fill:#ffffff;stroke-width:0.0497044"
         d="m 34.144318,25.981505 c -0.06681,-0.06878 -0.12178,-0.176273 -0.122127,-0.238874 -3.53e-4,-0.0626 -0.08753,-0.232731 -0.193739,-0.378066 -0.276843,-0.378843 -0.246256,-0.438595 0.233082,-0.455358 0.235102,-0.0082 0.690872,-0.08193 1.012822,-0.1638 0.321951,-0.08187 0.643485,-0.130675 0.71452,-0.108468 0.07103,0.02221 -0.102643,0.08602 -0.385947,0.141787 -0.69477,0.136776 -1.163032,0.356903 -0.981195,0.461252 0.0746,0.04281 0.216066,0.07845 0.314362,0.07918 0.15795,0.0012 0.149476,0.03284 -0.0729,0.272352 -0.138385,0.149052 -0.251614,0.327418 -0.251614,0.39637 0,0.158044 -0.110087,0.155411 -0.267273,-0.0065 z"
         id="path3830" />
      <path
         style="fill:#ffffff;stroke-width:0.0497044"
         d="m 34.994729,26.733337 c 0,-0.04126 0.199531,-0.136633 0.443401,-0.211948 0.24387,-0.07531 0.651442,-0.275328 0.905715,-0.444489 0.254272,-0.169162 0.786077,-0.448187 1.181785,-0.620054 0.683581,-0.296897 0.768098,-0.312044 1.694115,-0.303638 0.791589,0.0072 0.905906,0.02353 0.608668,0.08699 -0.517729,0.11055 -1.103428,0.391073 -1.72361,0.825544 -0.293999,0.205963 -0.665749,0.43448 -0.826112,0.507818 -0.320792,0.146703 -2.283962,0.28404 -2.283962,0.159777 z"
         id="path3828" />
      <path
         style="fill:#ffffff;stroke-width:0.0497044"
         d="m 19.444358,30.945416 c 0,-0.115832 0.07653,-0.338375 0.170082,-0.494534 0.212188,-0.354214 1.8794,-1.738664 2.363073,-1.962294 0.378764,-0.175121 1.349306,-0.347666 1.961874,-0.348785 0.539937,-9.86e-4 0.443254,-0.127129 -0.242976,-0.317027 -0.419279,-0.116018 -0.898861,-0.168016 -1.548258,-0.167852 -1.073124,2.64e-4 -1.320671,0.103601 -1.707322,0.7127 -0.214904,0.33854 -0.217476,0.33966 -0.160625,0.06998 0.07085,-0.336102 -0.114548,-0.682084 -0.742199,-1.385102 -0.857971,-0.960982 -1.852394,-2.962631 -1.69505,-3.411919 0.07136,-0.203762 0.885345,-1.20783 2.125105,-2.621361 1.045666,-1.192231 2.183032,-2.605014 2.268601,-2.817946 0.03261,-0.08114 0.163267,-0.261816 0.29036,-0.401509 0.517645,-0.568962 1.011685,-1.906223 0.822558,-2.226491 -0.0941,-0.159344 -0.06654,-0.170751 0.402328,-0.166522 l 0.503344,0.0046 -0.185181,0.510644 c -0.126933,0.350014 -0.22629,0.496346 -0.315867,0.465196 -0.09305,-0.03236 -0.130685,0.03757 -0.130685,0.242793 0,0.216867 0.08732,0.36341 0.35263,0.591789 0.193949,0.166949 0.494884,0.581003 0.668746,0.92012 0.173863,0.339115 0.474402,0.82371 0.667862,1.07688 0.193462,0.253168 0.351748,0.493989 0.351748,0.535158 0,0.04117 -0.109334,0.167943 -0.242974,0.281724 -0.297864,0.253604 -0.324665,0.480316 -0.04906,0.414997 0.157362,-0.0373 0.18578,-0.01019 0.150756,0.14387 -0.02373,0.104406 -0.0718,0.466326 -0.106818,0.804267 -0.06353,0.61315 -0.06396,0.613905 -0.210586,0.360284 -0.236702,-0.409426 -0.30376,-0.714113 -0.226837,-1.030655 0.05637,-0.231973 0.03086,-0.338054 -0.117365,-0.488058 -0.193499,-0.195825 -0.1605,-0.404654 0.05277,-0.333908 0.06511,0.02161 0.17799,0.0049 0.250854,-0.03722 0.10736,-0.06198 0.0864,-0.149486 -0.110524,-0.461504 -0.133654,-0.211758 -0.319685,-0.600276 -0.413401,-0.863375 -0.09371,-0.263099 -0.262656,-0.619831 -0.375421,-0.792738 -0.188129,-0.288464 -0.20762,-0.297817 -0.23648,-0.113463 -0.0173,0.110506 0.06577,0.48563 0.184608,0.833609 0.172621,0.505482 0.197089,0.697109 0.12169,0.953101 -0.109605,0.372137 0.225498,2.13892 0.508017,2.678491 0.200076,0.382117 2.12637,1.918511 2.35529,1.878556 0.08678,-0.01515 0.186018,-0.126426 0.220541,-0.24728 0.05785,-0.202507 0.06857,-0.193759 0.136773,0.111526 0.09595,0.429569 -0.06341,0.623312 -0.449472,0.546463 -0.519773,-0.103458 -0.276071,0.09716 0.595877,0.490524 0.479579,0.216359 0.858864,0.433016 0.842857,0.481462 -0.016,0.04845 -0.200648,0.178924 -0.41031,0.289953 -0.608529,0.322257 -1.236134,0.240033 -2.05948,-0.269815 -0.360216,-0.223059 -0.785174,-0.528761 -0.944352,-0.679336 l -0.289412,-0.273775 0.435527,0.17442 c 0.510948,0.204623 1.405531,0.331316 1.487782,0.210704 0.03116,-0.04571 -0.192841,-0.154071 -0.497793,-0.240815 -0.71819,-0.204291 -1.652174,-0.631748 -2.481203,-1.135576 -1.087337,-0.66081 -0.886338,-0.357002 1.444491,2.183319 0.420497,0.458291 0.575816,0.559967 1.099787,0.719957 l 0.610139,0.186299 -0.419459,0.155009 c -0.617605,0.228233 -2.468164,0.286432 -3.25907,0.102496 -1.208323,-0.281013 -2.593414,-1.080597 -3.259049,-1.881381 -0.323554,-0.389247 -0.34244,-0.751214 -0.0834,-1.598401 0.174865,-0.57189 0.177509,-1.069969 0.0057,-1.069969 -0.126632,0 -0.725051,0.708715 -1.00345,1.188406 -0.140359,0.241841 -0.255194,0.368054 -0.255194,0.280476 0,-0.08758 0.04728,-0.239297 0.105069,-0.33715 0.168625,-0.285554 -0.0032,-0.317266 -0.259116,-0.04782 -0.410325,0.432055 -0.261992,0.827265 0.629304,1.676673 0.682988,0.650891 1.324891,1.048737 2.683417,1.663153 2.087484,0.944099 2.848726,1.127172 3.945297,0.948812 0.646673,-0.105181 1.554863,-0.472358 2.111153,-0.853525 0.400882,-0.274681 0.482157,-0.212806 0.281728,0.214478 -0.389782,0.830954 -0.330381,1.06741 0.356394,1.41868 0.912424,0.466684 0.939165,0.692125 0.04804,0.40503 -1.353136,-0.435944 -3.325386,-0.533308 -5.236172,-0.258495 -1.684246,0.242231 -2.063988,0.454979 -3.182967,1.783241 -0.550512,0.653477 -0.704626,0.790351 -0.704626,0.625806 z"
         id="path3820" />
      <path
         style="fill:#ffffff;stroke-width:0.0497044"
         d="M 16.480067,31.232258 C 15.30648,30.95252 14.92867,30.763339 14.516284,30.248931 c -0.172921,-0.215703 -0.4065,-0.501187 -0.519061,-0.634412 -0.243446,-0.28813 -0.209401,-0.298694 0.220964,-0.06857 0.178618,0.0955 0.793414,0.351605 1.366213,0.569097 0.74382,0.282429 1.041452,0.360491 1.041452,0.273146 0,-0.06727 -0.109334,-0.20024 -0.242974,-0.295508 -0.430077,-0.306595 -0.263219,-0.262693 0.684117,0.179998 1.611185,0.752908 1.373567,0.453966 -0.635522,-0.799541 -1.417848,-0.884621 -1.629078,-1.031862 -2.341628,-1.632271 -0.45206,-0.380915 -0.638502,-0.58571 -0.501175,-0.550511 0.120274,0.03082 0.317082,0.0791 0.437354,0.107276 0.120273,0.02818 0.725414,0.267274 1.344758,0.531333 0.968717,0.413014 1.251955,0.492844 2.02682,0.571247 1.178437,0.119235 1.391417,0.04393 0.686097,-0.242615 -2.096031,-0.851526 -5.970849,-2.053181 -6.136507,-1.903047 -0.05922,0.05366 0.208868,0.376723 0.737792,0.889114 0.456936,0.442655 0.830794,0.83264 0.830794,0.866633 0,0.06509 -0.252201,-0.134379 -1.209807,-0.956825 -0.587541,-0.504609 -0.734289,-0.57715 -0.555674,-0.274679 0.05328,0.09022 0.14283,0.463457 0.198986,0.829399 0.05616,0.365943 0.130128,0.73152 0.164373,0.812396 0.03425,0.08088 0.03699,0.147046 0.0062,0.147046 -0.03089,0 -0.213742,-0.453452 -0.406342,-1.007671 -0.351029,-1.01011 -0.780426,-1.737565 -1.12401,-1.904213 -0.193742,-0.09397 -0.244808,-0.302525 -0.09467,-0.386621 0.04897,-0.02743 0.202044,-0.01091 0.340165,0.03666 0.138114,0.04759 0.25113,0.06388 0.25113,0.03619 0,-0.02769 -0.241461,-0.2996 -0.536581,-0.604245 l -0.536581,-0.553899 0.346838,-0.05897 c 0.354671,-0.06031 0.725169,-0.4514 0.725961,-0.766329 1.95e-4,-0.07941 0.07691,-0.2295 0.170446,-0.333531 l 0.170082,-0.189148 0.733137,0.166549 c 0.975499,0.221607 1.094099,0.284436 1.915286,1.014626 0.387545,0.3446 0.704627,0.584138 0.704627,0.532305 0,-0.16229 -0.718006,-1.107856 -1.329658,-1.751071 -0.548857,-0.577179 -0.986607,-1.189106 -0.850642,-1.189106 0.03303,0 0.172038,0.07983 0.308902,0.177397 0.136863,0.09757 0.267533,0.160463 0.290373,0.139762 0.02284,-0.0207 -0.158778,-0.381792 -0.403596,-0.802426 -0.437034,-0.75089 -0.54087,-1.17894 -0.351733,-1.449983 0.04973,-0.07126 0.105371,-0.110908 0.123649,-0.08808 0.01828,0.02282 0.424818,0.636042 0.903428,1.362719 1.341755,2.037195 3.032538,4.007843 5.221168,6.085395 0.467727,0.443987 0.850412,0.865002 0.850412,0.935586 0,0.224076 -0.695563,0.7712 -1.108565,0.871988 -0.216786,0.0529 -0.559001,0.07615 -0.760478,0.05166 -0.201481,-0.02449 -0.366326,-0.01591 -0.366326,0.01908 0,0.116435 1.030546,0.360032 1.523083,0.360032 0.267029,0 0.512919,0.02485 0.546424,0.05521 0.07739,0.07014 -0.207567,0.578228 -0.299933,0.534795 -0.411507,-0.193504 -1.145994,-0.461192 -1.84234,-0.671455 -0.467796,-0.141255 -0.979747,-0.317946 -1.137669,-0.392654 -0.157923,-0.0747 -0.310996,-0.113635 -0.340165,-0.08652 -0.162195,0.150824 1.744722,1.180787 2.668283,1.441192 0.213818,0.06029 0.425283,0.139905 0.469922,0.176933 0.11857,0.09835 -0.173123,0.559349 -0.522484,0.825766 -0.373522,0.284846 -0.610773,0.281923 -1.891235,-0.0233 z"
         id="path3818" />
      <path
         style="fill:#ffffff;stroke-width:0.0497044"
         d="m 20.853609,31.723912 c 0.106908,-0.07518 0.642668,-0.306825 1.190576,-0.514766 0.547908,-0.207939 0.996196,-0.409021 0.996196,-0.446848 0,-0.109702 -0.585631,-0.07791 -1.166279,0.06335 -0.293999,0.07152 -0.628787,0.130503 -0.743972,0.131077 -0.188531,9.43e-4 -0.204199,-0.03429 -0.157022,-0.353059 0.0438,-0.295974 0.0275,-0.345442 -0.09934,-0.30133 -0.228913,0.07961 -0.101544,-0.259725 0.200105,-0.533102 0.33671,-0.305154 0.599328,-0.347756 1.132481,-0.183708 0.248637,0.0765 0.636415,0.139604 0.861728,0.140207 0.423207,0.0012 2.110481,-0.422482 2.110481,-0.529889 0,-0.03333 -0.338949,-0.100228 -0.753221,-0.148655 l -0.753221,-0.08806 1.214873,-0.01249 1.214874,-0.01249 0.704626,0.354153 c 0.387543,0.194784 0.704625,0.387177 0.704625,0.42754 0,0.08716 -0.570143,0.437748 -1.141466,0.701899 -0.224508,0.103802 -0.748356,0.23063 -1.164105,0.281839 -1.013396,0.124819 -1.70718,0.287308 -3.039869,0.71194 -0.614725,0.195868 -1.205154,0.377026 -1.312063,0.402573 l -0.19438,0.04645 z"
         id="path3814" />
      <path
         style="fill:#ffffff;stroke-width:0.0497044"
         d="m 37.751336,33.129621 c 0.233078,-0.603171 0.220974,-0.613181 -0.338,-0.279552 -0.477971,0.285284 -0.66919,0.363906 -0.66919,0.27515 0,-0.05963 1.871335,-1.325596 2.381151,-1.610851 0.702545,-0.393091 1.427467,-0.74561 1.464415,-0.712124 0.01754,0.01591 -0.173563,0.178013 -0.424687,0.360248 -0.251124,0.182235 -0.91105,0.735913 -1.466501,1.230396 -0.555452,0.494482 -0.981686,0.826012 -0.947188,0.736733 z"
         id="path3810" />
      <path
         style="fill:#ffffff;stroke-width:0.0497044"
         d="M 21.728317,33.191911 C 21.00109,33.053254 20.03257,32.681417 19.644451,32.391876 l -0.237259,-0.176998 1.695106,-0.05883 c 3.887642,-0.13491 4.440348,-0.219452 5.120666,-0.783195 0.414087,-0.343132 0.299871,-0.103874 -0.235788,0.493926 -0.295451,0.329727 -0.513717,0.62077 -0.485033,0.646764 0.09523,0.0863 0.713836,-0.14852 0.914622,-0.347198 0.108731,-0.107593 0.290999,-0.364085 0.405025,-0.569977 0.120002,-0.216688 0.275904,-0.374348 0.370158,-0.374348 0.186708,0 2.930774,0.951884 3.11133,1.079283 0.169041,0.119278 0.0054,0.361045 -0.396959,0.586401 -0.305779,0.171272 -0.472708,0.184305 -2.406678,0.187902 -1.555888,0.0029 -2.175803,0.03576 -2.466869,0.130791 -0.552674,0.180449 -0.862372,0.160534 -1.409252,-0.09063 -0.686985,-0.315498 -1.151457,-0.281768 -0.811262,0.05891 0.152667,0.152886 0.146341,0.160916 -0.121283,0.15411 -0.155284,-0.0039 -0.588483,-0.06556 -0.962664,-0.136905 z"
         id="path3808" />
      <path
         style="fill:#ffffff;stroke-width:0.0497044"
         d="m 26.927971,35.911934 c -0.08018,-0.03609 -0.320726,-0.172017 -0.534544,-0.302072 -0.524989,-0.319325 -0.995535,-0.473919 -2.08958,-0.686518 -1.013129,-0.196874 -1.712962,-0.470434 -2.235367,-0.873787 -0.380643,-0.293898 -0.360849,-0.295271 0.625076,-0.04331 0.646241,0.165148 1.253642,0.154343 2.791199,-0.04965 1.31416,-0.174357 3.069428,-0.326795 4.310316,-0.374332 l 0.680329,-0.02607 -0.02013,0.390128 c -0.0422,0.818138 -0.784794,1.601229 -1.760649,1.856697 -0.471378,0.123397 -1.582282,0.191889 -1.76665,0.108913 z"
         id="path3804" />
      <path
         style="fill:#ffffff;stroke-width:0.0497044"
         d="m 22.66722,37.6919 c -0.168258,-0.334678 -0.140826,-0.421167 0.187195,-0.590372 0.182188,-0.09398 0.358762,-0.292547 0.452548,-0.508928 l 0.153791,-0.354826 0.202869,0.324321 c 0.416005,0.665054 0.794596,0.607609 0.759879,-0.115301 -0.01085,-0.225237 -0.107766,-0.562706 -0.215444,-0.749934 -0.107677,-0.187226 -0.195781,-0.35901 -0.195781,-0.38174 0,-0.02272 0.135537,-0.04133 0.301179,-0.04133 0.399653,0 0.940256,0.239968 1.129127,0.501208 0.143824,0.198931 0.340556,0.91707 0.269141,0.982446 -0.0182,0.01667 -0.195543,-0.191428 -0.394084,-0.462431 -0.327881,-0.447547 -0.520783,-0.602226 -0.532105,-0.42667 -0.0024,0.03633 -0.01326,0.287892 -0.02431,0.559017 -0.02958,0.727578 -0.329992,0.961038 -0.829031,0.644253 -0.24856,-0.157782 -0.550854,-0.09993 -0.470422,0.09004 0.0302,0.07132 -0.04557,0.183153 -0.176923,0.261157 -0.126361,0.07503 -0.257872,0.216754 -0.292254,0.314934 -0.08393,0.239667 -0.189314,0.224821 -0.325386,-0.04584 z"
         id="path3800" />
      <path
         style="fill:#ffffff;stroke-width:0.0497044"
         d="m 22.278158,38.004331 c -0.125231,-0.218004 -0.305633,-0.475644 -0.400913,-0.572533 -0.4907,-0.499 -0.497216,-0.7626 -0.03958,-1.601973 l 0.352314,-0.646211 -0.258247,-0.353669 -0.258248,-0.35367 0.270395,0.05774 c 0.376826,0.08047 0.862551,0.358098 1.094914,0.625818 0.215783,0.248616 0.268786,0.855511 0.08376,0.959143 -0.06561,0.03675 -0.08596,0.02437 -0.04903,-0.0298 0.156235,-0.229104 -0.236651,-0.991558 -0.510941,-0.991558 -0.0448,0 -0.06072,0.168457 -0.03536,0.374348 0.02536,0.205892 -0.02375,0.617891 -0.109123,0.915553 -0.195877,0.682941 -0.196808,1.083392 -0.0032,1.334034 0.08367,0.108252 0.13834,0.305353 0.121494,0.437987 -0.02932,0.230807 -0.04041,0.224149 -0.258317,-0.155217 z"
         id="path3798" />
      <path
         style="fill:#ffffff;stroke-width:0.0497044"
         d="m 21.436747,38.253443 c -0.374181,-0.135872 -0.869513,-0.289484 -1.100737,-0.341352 -0.333194,-0.07473 -0.448572,-0.152614 -0.55616,-0.375379 -0.211127,-0.437153 -0.415664,-0.615264 -1.355988,-1.180798 -1.440522,-0.866367 -1.609827,-0.903667 -0.913691,-0.201305 0.564501,0.56955 0.670828,0.811005 0.172139,0.3909 -0.381637,-0.321497 -1.17453,-0.831309 -1.292908,-0.831309 -0.130535,0 -1.854025,-0.956861 -2.555763,-1.418928 -0.442552,-0.291404 -1.001345,-0.590567 -1.241761,-0.664809 -0.422508,-0.130475 -0.825519,-0.467737 -0.825519,-0.690845 0,-0.0596 -0.09065,-0.212804 -0.201434,-0.340449 -0.136728,-0.157533 -0.160142,-0.231081 -0.0729,-0.228963 0.191901,0.0046 0.442009,0.151919 1.471114,0.866175 0.586979,0.407396 0.990651,0.629813 1.084088,0.597318 0.243608,-0.08472 0.178166,-0.173732 -0.432217,-0.587886 -0.319598,-0.216853 -0.58201,-0.426022 -0.583138,-0.464821 -0.0024,-0.08477 0.500701,0.248237 1.358604,0.89914 0.56152,0.426034 2.215686,1.24133 2.518553,1.24133 0.191611,0 -0.467305,-0.784896 -0.894189,-1.06515 -0.219822,-0.144318 -0.582435,-0.304099 -0.805804,-0.355075 -0.274004,-0.06253 -0.544351,-0.222261 -0.831018,-0.491 -0.36627,-0.343363 -0.391371,-0.38903 -0.181921,-0.330973 0.579879,0.160729 0.983781,0.217881 1.932792,0.273489 0.845656,0.04955 1.002086,0.03899 0.963878,-0.06507 -0.0291,-0.07924 -0.53543,-0.224413 -1.398248,-0.400895 -2.246451,-0.45949 -3.883546,-1.045375 -4.414117,-1.579725 l -0.242974,-0.244707 0.534983,0.268385 c 0.624948,0.313514 1.840243,0.766422 1.903274,0.709298 0.02393,-0.02168 -0.350337,-0.228971 -0.831686,-0.460642 -0.48135,-0.231674 -1.039745,-0.551209 -1.240877,-0.71008 -0.344011,-0.271727 -0.299423,-0.260025 0.751989,0.197371 2.02918,0.882757 2.81652,1.111619 4.781081,1.389745 0.804603,0.113908 0.766226,0.137365 -0.282214,0.172532 -0.225071,0.0076 -0.435046,0.03714 -0.466612,0.06575 -0.0873,0.07913 0.497622,0.245763 1.346641,0.383658 0.972878,0.158009 1.614219,0.426547 2.356464,0.986681 0.625158,0.471774 1.558439,1.406876 1.477421,1.480301 -0.02635,0.02389 -0.711511,-0.195087 -1.522575,-0.486598 -0.811064,-0.291511 -1.499139,-0.530019 -1.529053,-0.530019 -0.152293,0 0.09145,0.205687 0.885108,0.746927 0.937413,0.63927 1.700823,1.265641 1.700823,1.39551 0,0.04393 -0.107797,0.01586 -0.239556,-0.06239 -0.329159,-0.195463 -0.374806,-0.180248 -0.299942,0.09997 0.10415,0.389869 0.682381,1.117245 1.206614,1.51786 0.417449,0.319012 0.667125,0.605321 0.574342,0.658609 -0.01462,0.0083 -0.332733,-0.09591 -0.706914,-0.231779 z"
         id="path3796" />
      <path
         style="fill:#ffffff;stroke-width:0.0497044"
         d="m 22.892001,38.731009 c 0.0372,-0.181669 0.12963,-0.392981 0.205408,-0.469578 0.07578,-0.0766 0.111428,-0.163146 0.07924,-0.192326 -0.13397,-0.121416 0.07147,-0.240663 0.258391,-0.149994 0.134965,0.06546 0.188482,0.185005 0.188482,0.421049 0,0.421731 -0.228722,0.721156 -0.550872,0.721156 -0.234132,0 -0.244426,-0.01882 -0.180645,-0.330307 z"
         id="path3794" />
      <path
         style="fill:#ffffff;stroke-width:0.0497044"
         d="m 29.238246,39.067451 c -0.722758,-0.286991 -0.865493,-0.318197 -0.963904,-0.210729 -0.205938,0.224886 -0.458039,0.305501 -0.655642,0.209658 -0.223266,-0.108295 -1.468254,-2.053376 -1.468254,-2.2939 0,-0.198558 0.270929,-0.353607 0.617887,-0.353607 0.391212,0 0.790445,0.388055 1.276251,1.240521 0.377237,0.661952 0.532126,0.843103 0.903248,1.056407 0.246364,0.1416 0.48743,0.25745 0.535704,0.25745 0.162725,0 0.748883,0.283626 0.748883,0.362364 0,0.117196 -0.0738,0.09728 -0.994173,-0.268164 z"
         id="path3790" />
      <path
         style="fill:#ffffff;stroke-width:0.0497044"
         d="m 31.57742,39.264817 c -0.167462,-0.368517 -0.141474,-1.20848 0.04539,-1.46694 0.14393,-0.199082 0.145075,-0.29068 0.01296,-1.03116 -0.160987,-0.902089 -0.170853,-0.926115 -0.432313,-1.052932 -0.147381,-0.07147 -0.248838,-0.03866 -0.504833,0.163301 -0.402527,0.317562 -1.220964,0.648278 -1.444907,0.583862 -0.220944,-0.06355 -0.31656,-0.297555 -0.181742,-0.444779 0.0585,-0.06388 0.318173,-0.179897 0.577071,-0.25783 0.272108,-0.08191 0.536449,-0.232608 0.626496,-0.357155 0.309829,-0.428549 1.230177,-0.127302 1.515003,0.495885 0.252459,0.552377 0.335968,0.232163 0.396597,-1.520744 0.06766,-1.956326 0.110344,-2.236604 0.426832,-2.802628 0.204617,-0.365949 0.534172,-0.724513 0.534172,-0.581192 0,0.126411 -0.396391,2.23673 -0.481086,2.561232 -0.05022,0.19242 -0.06948,0.369638 -0.04281,0.393818 0.09479,0.0859 0.229961,-0.224164 0.381807,-0.875796 0.186649,-0.800984 0.566702,-1.831429 0.887863,-2.40728 0.390595,-0.700351 0.312885,-0.88719 -0.617948,-1.485699 -0.907248,-0.583348 -1.29925,-0.983246 -1.882515,-1.92043 -0.226125,-0.363338 -0.712193,-1.086049 -1.080151,-1.606021 -0.367957,-0.519975 -0.866524,-1.300333 -1.107924,-1.734131 -0.588229,-1.057054 -1.129647,-2.981225 -0.861675,-3.062355 0.05702,-0.01725 0.297555,0.08768 0.534544,0.233213 0.401567,0.24659 0.828716,0.358175 0.754856,0.197191 -0.205877,-0.44872 -1.104705,-1.732921 -1.461914,-2.08871 -0.491225,-0.489273 -1.348499,-0.905854 -2.03616,-0.989445 -0.248753,-0.03023 -0.446046,-0.122235 -0.571068,-0.266275 -0.251716,-0.290017 -0.240938,-0.372484 0.04868,-0.372484 h 0.239699 l -0.193052,-0.296529 c -0.238774,-0.366765 -0.191217,-0.487056 0.291565,-0.737489 0.209112,-0.108468 0.409125,-0.279809 0.444473,-0.380744 0.05626,-0.160645 0.114668,-0.176347 0.468539,-0.125953 1.200474,0.170955 2.37465,0.98731 2.957852,2.056468 0.361107,0.662004 0.362243,0.667637 0.410705,2.033859 0.04041,1.139379 0.08049,1.421917 0.238086,1.678304 0.24493,0.398484 0.311906,0.178907 0.125713,-0.412168 -0.227338,-0.721708 -0.101996,-0.822716 0.292434,-0.23566 0.618676,0.920812 1.886856,2.926575 2.49803,3.950902 0.202335,0.339116 0.42824,0.67915 0.502009,0.755631 0.07377,0.07649 0.134121,0.161615 0.134121,0.189183 0,0.02756 0.182233,0.321723 0.404963,0.653679 0.22273,0.331955 0.791291,1.292856 1.263468,2.135335 l 0.858504,1.531777 v 0.78968 c 0,1.649688 -0.726246,3.089693 -2.52117,4.999001 -0.643357,0.684353 -0.776831,0.873221 -1.509083,2.135364 -0.358155,0.61733 -0.691334,1.144905 -0.740397,1.172385 -0.04906,0.02748 -0.139816,-0.06143 -0.201687,-0.19756 z"
         id="path3788" />
      <path
         style="fill:#ffffff;stroke-width:0.0497044"
         d="m 35.470014,27.999023 c -0.144895,-0.273545 -0.144337,-0.30528 0.0077,-0.429939 0.207118,-0.169873 0.662242,-0.172355 1.08524,-0.0059 0.179864,0.07077 0.26555,0.130231 0.190413,0.132126 -0.07513,0.0019 -0.271943,0.09637 -0.437353,0.209921 -0.601012,0.412623 -0.672854,0.420589 -0.845951,0.09381 z"
         id="path3826" />
      <path
         style="fill:#ffffff;stroke-width:0.0497044"
         d="m 19.361422,40.01643 c -0.2327,-0.03751 -0.60445,-0.16487 -0.826114,-0.283026 -0.317635,-0.169313 -2.875215,-2.126366 -3.318718,-2.539473 -0.12178,-0.113434 0.460618,0.150384 0.954771,0.432499 0.698786,0.398945 0.708942,0.201675 0.02581,-0.501251 -0.352228,-0.362431 -0.640414,-0.692107 -0.640414,-0.732612 0,-0.10686 0.331417,-2.64e-4 1.244116,0.399998 0.869575,0.381384 1.58426,0.946129 1.753223,1.385396 0.113523,0.295124 0.0508,0.332113 -0.233151,0.137479 -0.2889,-0.198035 -0.392641,-0.158988 -0.168063,0.06326 0.110147,0.108999 0.402926,0.487198 0.650627,0.840437 0.437405,0.623773 0.459576,0.640688 0.770513,0.587822 0.221104,-0.0376 0.356438,-0.0148 0.437451,0.07367 0.159347,0.174006 -0.08994,0.226087 -0.650048,0.135814 z"
         id="path3786" />
      <path
         style="fill:#ffffff;stroke-width:0.0497044"
         d="m 26.550072,39.886185 -0.629229,-0.584456 -0.334546,0.109631 c -0.417156,0.136704 -0.529761,0.02232 -0.459666,-0.466934 0.06252,-0.436398 -0.166154,-0.399941 -0.244888,0.03905 -0.02998,0.167225 -0.08739,0.352245 -0.127581,0.411156 -0.08422,0.123512 -0.704003,0.145861 -0.784181,0.02829 -0.09273,-0.135987 0.134452,-1.017373 0.289175,-1.121887 0.131258,-0.08867 0.13043,-0.105654 -0.0075,-0.153644 -0.102206,-0.03554 -0.144638,-0.136776 -0.124341,-0.296682 0.04954,-0.390332 0.379001,-0.320529 0.613945,0.130086 0.106908,0.205044 0.223844,0.373501 0.259853,0.374348 0.03601,8.81e-4 0.049,-0.232971 0.02887,-0.519599 -0.04118,-0.586315 0.08586,-0.767489 0.475965,-0.678755 0.318296,0.07241 0.542686,0.53956 0.593447,1.235505 0.02301,0.315378 0.106682,0.687094 0.185965,0.826035 0.188445,0.330259 0.802999,0.829355 1.208791,0.981686 0.231953,0.08708 0.285987,0.141298 0.193666,0.194355 -0.285488,0.164063 -0.532937,0.05353 -1.137673,-0.508173 z"
         id="path3784" />
    </g>
  </g>
</svg>
