<?xml version="1.0" encoding="UTF-8" standalone="no"?>
<svg
   xmlns:inkstitch="http://inkstitch.org/namespace"
   xmlns:dc="http://purl.org/dc/elements/1.1/"
   xmlns:cc="http://creativecommons.org/ns#"
   xmlns:rdf="http://www.w3.org/1999/02/22-rdf-syntax-ns#"
   xmlns:svg="http://www.w3.org/2000/svg"
   xmlns="http://www.w3.org/2000/svg"
   xmlns:sodipodi="http://sodipodi.sourceforge.net/DTD/sodipodi-0.dtd"
   xmlns:inkscape="http://www.inkscape.org/namespaces/inkscape"
   sodipodi:docname="Porte gel 5.svg"
   inkscape:version="1.0.1 (c497b03c, 2020-09-10)"
   id="svg864"
   version="1.1"
   viewBox="0 0 210 297"
   height="29.700001cm"
   width="21cm">
  <defs
     id="defs858">
    <inkscape:path-effect
       effect="bspline"
       id="path-effect1183"
       is_visible="true"
       lpeversion="1"
       weight="33.333333"
       steps="2"
       helper_size="0"
       apply_no_weight="true"
       apply_with_weight="true"
       only_selected="false" />
    <inkscape:path-effect
       effect="bspline"
       id="path-effect1178"
       is_visible="true"
       lpeversion="1"
       weight="33.333333"
       steps="2"
       helper_size="0"
       apply_no_weight="true"
       apply_with_weight="true"
       only_selected="false" />
    <inkscape:path-effect
       effect="bspline"
       id="path-effect1795"
       is_visible="true"
       lpeversion="1"
       weight="33.333333"
       steps="2"
       helper_size="0"
       apply_no_weight="true"
       apply_with_weight="true"
       only_selected="false" />
    <inkscape:path-effect
       effect="bspline"
       id="path-effect1489"
       is_visible="true"
       lpeversion="1"
       weight="33.333333"
       steps="2"
       helper_size="0"
       apply_no_weight="true"
       apply_with_weight="true"
       only_selected="false" />
    <inkscape:path-effect
       effect="bspline"
       id="path-effect1484"
       is_visible="true"
       lpeversion="1"
       weight="33.333333"
       steps="2"
       helper_size="0"
       apply_no_weight="true"
       apply_with_weight="true"
       only_selected="false" />
    <inkscape:path-effect
       effect="bspline"
       id="path-effect1447"
       is_visible="true"
       lpeversion="1"
       weight="33.333333"
       steps="2"
       helper_size="0"
       apply_no_weight="true"
       apply_with_weight="true"
       only_selected="false" />
    <inkscape:path-effect
       effect="bspline"
       id="path-effect1441"
       is_visible="true"
       lpeversion="1"
       weight="33.333333"
       steps="2"
       helper_size="0"
       apply_no_weight="true"
       apply_with_weight="true"
       only_selected="false" />
    <inkscape:path-effect
       effect="bspline"
       id="path-effect1437"
       is_visible="true"
       lpeversion="1"
       weight="33.333333"
       steps="2"
       helper_size="0"
       apply_no_weight="true"
       apply_with_weight="true"
       only_selected="false" />
    <symbol
       id="inkstitch_ignore_layer">
      <title
         id="title9694">Ignore entire layer when generating stitch plan</title>
      <path
         inkscape:connector-curvature="0"
         style="opacity:1;vector-effect:none;fill:#fafafa;fill-opacity:1;fill-rule:evenodd;stroke:#ff0000;stroke-width:1.06501234;stroke-linecap:round;stroke-linejoin:miter;stroke-miterlimit:4;stroke-dasharray:3.19503705, 3.19503705;stroke-dashoffset:0;stroke-opacity:1"
         d="M 9.2465269,-4.9265995e-6 C 9.246525,5.1067241 5.1067028,9.2465451 -2.615882e-5,9.2465451 -5.1067554,9.2465451 -9.2465782,5.1067241 -9.2465801,-4.9265995e-6 -9.24658,-2.4523429 -8.2723922,-4.8042399 -6.538327,-6.5383059 c 1.7340653,-1.734065 4.0859624,-2.708252 6.53830084118,-2.708252 5.10673015882,0 9.24655285882,4.139823 9.24655305882,9.2465529734005 0,0 0,0 0,0"
         id="inkstitch_path25368-7" />
      <path
         sodipodi:nodetypes="ccccc"
         inkscape:connector-curvature="0"
         style="color:#000000;fill:#d5d5d5;fill-opacity:1;fill-rule:evenodd;stroke:#5a5a5a;stroke-width:0.63330007;stroke-linecap:square;stroke-linejoin:round;stroke-miterlimit:0;stroke-opacity:1"
         d="M 4,4.452769 1.46667,1.286102 H -5.5 l 2.53333,3.166667 z"
         id="use5800" />
      <path
         sodipodi:nodetypes="ccccc"
         inkscape:connector-curvature="0"
         style="color:#000000;opacity:0.5;fill:#d5d5d5;fill-opacity:1;fill-rule:evenodd;stroke:#858585;stroke-width:0.63339424;stroke-linecap:square;stroke-linejoin:round;stroke-miterlimit:0;stroke-opacity:1"
         d="M 4,2.552769 1.46667,-0.613898 H -5.5 l 2.53333,3.166667 z"
         id="use5864" />
      <g
         id="g5771">
        <path
           sodipodi:nodetypes="ccccccccc"
           inkscape:connector-curvature="0"
           style="fill:#aa0000;fill-rule:evenodd;stroke:#aa0000;stroke-width:1px"
           d="m -1.0666699,-5.0472339 h 4.4333333 l 0.6333333,0.6333333 V 0.01943274 L 3.3666634,0.65276607 H -1.0666699 L -1.7000032,0.01943274 V -4.4139006 Z"
           id="path8011" />
        <path
           inkscape:connector-curvature="0"
           id="path8023"
           d="m -0.43333658,-3.8755672 c 0,0 3.16666668,3.16666661 3.16666668,3.16666661"
           style="fill:none;stroke:#ffffff;stroke-width:1.70000005" />
        <path
           inkscape:connector-curvature="0"
           id="path8025"
           d="m 2.7333301,-3.8755672 c 0,0 -3.16666668,3.16666661 -3.16666668,3.16666661"
           style="fill:none;stroke:#ffffff;stroke-width:1.79999995;stroke-linejoin:round" />
      </g>
    </symbol>
    <symbol
       id="inkstitch_stop">
      <title
         id="inkstitch_title13328">Stop the machine after sewing this object (for applique, etc)</title>
      <path
         id="inkstitch_circle13330"
         d="m 9.2465269,-2.6e-6 c -1.9e-6,5.106729 -4.1398241,9.24655 -9.246553026709,9.24655 C -5.1067554,9.2465474 -9.2465782,5.1067264 -9.2465801,-2.6e-6 c 10e-8,-2.452338 0.9741879,-4.804235 2.7082531,-6.538301 1.7340653,-1.734065 4.0859624,-2.708252 6.538300873291,-2.708252 C 5.106704,-9.2465556 9.2465267,-5.1067326 9.2465269,-2.6e-6 c 0,0 0,0 0,0"
         style="opacity:1;vector-effect:none;fill:#fafafa;fill-opacity:1;fill-rule:evenodd;stroke:#003399;stroke-width:1.06501234;stroke-linecap:round;stroke-linejoin:miter;stroke-miterlimit:4;stroke-dasharray:3.19503705, 3.19503705;stroke-dashoffset:0;stroke-opacity:1"
         inkscape:connector-curvature="0" />
      <path
         id="inkstitch_path13332"
         d="m -3.1690251,-4.6497026 c 0,0 2.51587797,0 2.51587797,0 0,0 0,9.14087 0,9.14087 0,0 -2.51587797,0 -2.51587797,0 0,0 0,-9.14087 0,-9.14087"
         style="opacity:1;fill:#000000;fill-opacity:1;fill-rule:nonzero;stroke:none;stroke-width:1.60622311;stroke-linecap:round;stroke-linejoin:round;stroke-miterlimit:4;stroke-dasharray:4.81866985, 4.81866985;stroke-dashoffset:0;stroke-opacity:1;paint-order:fill markers stroke"
         inkscape:connector-curvature="0" />
      <path
         id="inkstitch_path13333"
         d="m 0.83097287,-4.6497026 c 0,0 2.51588003,0 2.51588003,0 0,0 0,9.14087 0,9.14087 0,0 -2.51588003,0 -2.51588003,0 0,0 0,-9.14087 0,-9.14087"
         style="display:inline;opacity:1;fill:#000000;fill-opacity:1;fill-rule:nonzero;stroke:none;stroke-width:1.60622311;stroke-linecap:round;stroke-linejoin:round;stroke-miterlimit:4;stroke-dasharray:4.81866985, 4.81866985;stroke-dashoffset:0;stroke-opacity:1;paint-order:fill markers stroke"
         inkscape:connector-curvature="0" />
    </symbol>
    <pattern
       patternUnits="userSpaceOnUse"
       width="17.385025"
       height="17.385026"
       patternTransform="translate(-12.850387,22.945448)"
       id="pattern942">
      <path
         d="M 0,17.385026 H 17.385025 V 0 H 0 Z"
         style="display:inline;fill:#bc0061;stroke:none;stroke-width:4.75431;stroke-linecap:round;stroke-dasharray:2.37716, 2.37716"
         id="rect926_32" />
    </pattern>
  </defs>
  <sodipodi:namedview
     id="base"
     pagecolor="#ffffff"
     bordercolor="#666666"
     borderopacity="1.0"
     inkscape:pageopacity="0.0"
     inkscape:pageshadow="2"
     inkscape:zoom="1.4450552"
     inkscape:cx="398.80771"
     inkscape:cy="430.7941"
     inkscape:document-units="mm"
     inkscape:current-layer="g865"
     inkscape:document-rotation="0"
     showgrid="true"
     units="cm"
     inkscape:snap-global="false"
     inkscape:window-width="2314"
     inkscape:window-height="1313"
     inkscape:window-x="79"
     inkscape:window-y="23"
     inkscape:window-maximized="0">
    <inkscape:grid
       type="xygrid"
       id="grid1429" />
  </sodipodi:namedview>
  <metadata
     id="metadata861">
    <rdf:RDF>
      <cc:Work
         rdf:about="">
        <dc:format>image/svg+xml</dc:format>
        <dc:type
           rdf:resource="http://purl.org/dc/dcmitype/StillImage" />
        <dc:title />
      </cc:Work>
    </rdf:RDF>
  </metadata>
  <g
     inkscape:groupmode="layer"
     id="layer2"
     inkscape:label="Calque 2"
     style="display:inline">
    <g
       id="g865"
       transform="translate(3.790518,-58.03931)"
       style="display:inline">
      <path
         d="m 26.834,63.9058 c 1.46021,0.550193 23.0135,2.30754 30.1664,-1.45853 l 11.019,-4.19819 c 6.7144,-2.55816 13.0085,2.70399 13.0127,4.86928 l 0.183378,93.4702 -0.438001,17.3527 c 0,0 0.527404,45.7295 0.607155,60.1902 -18.9513,-12.0945 -26.7871,0.0176 -32.2049,-1.01356 -10.9608,-7.42921 -19.7562,-1.85928 -26.3687,0.35127 -7.53865,-6.20068 -18.9461,-4.87854 -26.386,1.66415 L -3.7795,175.893 -3.41229,62.1383 c 0,0 7.65805,-4.50109 17.418,-4.02643 9.43757,5.36072 9.05856,4.37358 12.8283,5.79398 z"
         style="display:inline;opacity:1;fill:none;stroke:#000000;stroke-width:0.773314;stroke-linecap:round;stroke-miterlimit:4;stroke-dasharray:0.386657, 0.386657;stroke-dashoffset:0"
         id="rect1443"
         sodipodi:insensitive="true" />
      <path
         style="display:inline;fill:none;stroke:#3b604c;stroke-width:0.266278;stroke-linecap:butt;stroke-linejoin:miter;stroke-miterlimit:4;stroke-dasharray:0.133137, 0.133137;stroke-dashoffset:0;stroke-opacity:1"
         d="M 78.539909,174.56067 H -1.4600908"
         id="path2844"
         inkstitch:running_stitch_length_mm="3"
         inkstitch:ties="False"
         inkscape:label="Positionnement"
         sodipodi:insensitive="true" />
      <path
         d="m 70.102778,135.3742 c -1.105059,-2.28095 -3.203044,-3.10149 -4.479087,-5.00808 -2.818042,-4.21674 -4.242552,-7.90186 -4.242552,-10.95216 0,-0.77419 0.08774,-1.38838 0.361284,-2.52902 0.407744,-1.7187 0.490326,-2.41031 0.490326,-4.07739 0,-0.86192 -0.02581,-1.46579 -0.07227,-1.75482 -0.15483,-0.9858 -0.423215,-1.92515 -0.71225,-2.49288 l -0.123872,-0.24774 -0.149676,0.10839 c -0.0826,0.0619 -0.165155,0.12902 -0.180642,0.15999 -0.06195,0.0929 -0.639993,0.45935 -1.094183,0.68644 -1.20773,0.60388 -2.601272,0.88258 -4.376739,0.87742 -3.205137,-0.0155 -6.611557,-0.99612 -8.505733,-2.46192 -0.216779,-0.17031 -0.39742,-0.31483 -0.39742,-0.32515 0,-0.0155 0.123872,0.0465 0.268385,0.13419 1.037413,0.60386 2.554819,1.08386 4.118679,1.29547 0.722574,0.10322 2.756101,0.0877 3.561258,-0.0207 2.430947,-0.33548 4.516089,-1.02192 7.045106,-2.32772 1.171602,-0.60387 2.962557,-1.68773 2.967719,-1.79612 0,-0.0155 -0.190966,-0.14451 -0.423224,-0.2787 -0.526446,-0.29935 -1.398697,-0.88258 -1.847724,-1.22838 -2.21934,-1.7187 -3.571584,-3.618041 -4.474808,-6.296731 -0.23742,-0.717417 -0.381933,-1.254187 -0.944507,-3.566427 -0.201292,-0.82063 -0.485156,-1.84256 -0.624515,-2.27094 -0.779344,-2.33289 -1.966433,-3.9019 -3.907062,-5.17674 -0.438702,-0.28902 -1.914826,-1.07354 -1.94063,-1.03225 -0.01033,0.0103 -0.21677,0.40774 -0.469676,0.8929 -0.856763,1.65676 -1.837399,3.18449 -2.905778,4.52642 -0.665805,0.83612 -2.162561,2.34836 -2.900623,2.93159 -1.104508,0.87225 -2.301913,1.57933 -3.483839,2.05417 -0.490318,0.20129 -1.357414,0.47483 -1.491603,0.47483 -0.0413,0 -0.108385,-0.23742 -0.180641,-0.62967 -0.175488,-0.98063 -0.505805,-2.48256 -0.815481,-3.73158 -0.283873,-1.15096 -0.665806,-2.61675 -0.722575,-2.76127 -0.07227,-0.20128 -1.156123,4.18061 -1.538056,6.21931 -0.07227,0.39741 -0.144513,0.77419 -0.154829,0.83612 -0.02581,0.10838 -0.03097,0.10838 -0.320001,0.0361 -1.563859,-0.39742 -3.359975,-1.33161 -4.867057,-2.52902 -0.665805,-0.53161 -2.234818,-2.12643 -2.849008,-2.90061 -1.073541,-1.34709 -2.064501,-2.89031 -2.910948,-4.53158 -0.247736,-0.48 -0.454189,-0.87741 -0.464514,-0.88774 -0.02581,-0.0413 -1.501919,0.74322 -1.94063,1.03225 -1.940621,1.27483 -3.127709,2.84385 -3.907062,5.17673 -0.139351,0.42838 -0.423223,1.45032 -0.624506,2.27095 -0.562583,2.31224 -0.707096,2.84901 -0.944516,3.566427 -0.903216,2.67869 -2.255459,4.578031 -4.474799,6.296731 -0.449026,0.3458 -1.321277,0.92902 -1.847723,1.22838 -0.232257,0.13419 -0.423223,0.26322 -0.423223,0.2787 0.0052,0.10838 1.796107,1.19225 2.967718,1.79612 2.529007,1.30579 4.614149,1.99224 7.045105,2.32772 0.805148,0.10839 2.838683,0.12387 3.561258,0.0207 1.563859,-0.21162 3.081265,-0.69161 4.113516,-1.29547 0.149676,-0.0877 0.273548,-0.14968 0.273548,-0.1342 0,0.0103 -0.18065,0.15484 -0.402583,0.32516 -1.889013,1.46579 -5.295442,2.44644 -8.500571,2.46192 -1.775475,0.005 -3.169009,-0.27355 -4.376739,-0.87742 -0.454189,-0.22709 -1.03225,-0.59354 -1.094191,-0.68644 -0.01549,-0.031 -0.09806,-0.0981 -0.180641,-0.16 l -0.149676,-0.10839 -0.123872,0.24775 c -0.289027,0.56773 -0.557412,1.50708 -0.71225,2.49287 -0.04646,0.28904 -0.07227,0.8929 -0.07227,1.75483 0,1.66708 0.0826,2.35869 0.490318,4.07739 0.273548,1.14064 0.361292,1.75483 0.361292,2.52902 0,3.05029 -1.424509,6.73542 -4.2425508,10.95216 -1.2799875,1.92515 -2.8077175,3.88642 -4.3096455,5.54318 -1.267242,1.11812 1.7277347,-0.0494 2.178049,-0.1858 7.1638153,-2.20902 13.8373043,-5.6877 19.2514573,-10.03347 2.286433,-1.83224 4.861894,-4.36641 6.668335,-6.56511 1.016763,-1.22838 2.136758,-2.78708 3.009008,-4.18577 0.294189,-0.46452 0.412899,-0.61936 0.412899,-0.52645 -0.0052,0.82063 -0.206454,3.7161 -0.392258,5.51738 -0.232257,2.3174 -0.443864,3.63352 -0.8516,5.31608 -0.25807,1.05806 -0.769028,2.69934 -0.8929,2.8645 -0.06195,0.0826 -0.07744,0.0826 -0.227095,0.005 -0.09806,-0.0516 -0.289026,-0.0826 -0.505805,-0.0826 -0.443864,0 -0.707087,0.12386 -1.042567,0.49031 -0.485155,0.53161 -0.536771,1.1458 -0.129035,1.62064 0.263223,0.31483 0.536771,0.4387 0.944507,0.4387 0.273548,0.005 0.381933,-0.0258 0.61419,-0.14967 0.371608,-0.20645 0.588387,-0.46968 0.882575,-1.08387 1.274824,-2.63739 2.394819,-9.47604 2.565144,-15.67471 0.01549,-0.67612 0.04646,-1.22837 0.06711,-1.22837 0.02065,0 0.05162,0.56257 0.06711,1.25418 0.165163,6.15221 1.290312,13.01667 2.565144,15.6489 0.294189,0.61419 0.510959,0.87742 0.882567,1.08387 0.722575,0.39741 1.630962,0.005 1.806441,-0.77419 0.05162,-0.23226 0.04646,-0.31484 -0.03098,-0.56774 -0.113547,-0.35612 -0.490317,-0.78967 -0.815481,-0.94967 -0.273547,-0.13419 -0.779344,-0.14451 -1.058054,-0.031 -0.170325,0.0774 -0.196129,0.0723 -0.252898,-0.005 -0.108394,-0.14967 -0.619352,-1.76515 -0.856772,-2.7303 -0.634831,-2.52901 -1.03225,-5.84252 -1.24902,-10.42572 l -0.03614,-0.67096 0.464514,0.73289 c 2.508369,3.96905 5.703181,7.50451 9.630893,10.67351 5.352212,4.3148 12.700693,8.21344 19.256613,10.03863 0.861583,0.23987 2.728989,0.43816 2.347508,-0.34926 z m -8.386159,-5.24549 c -2.183204,-0.67613 -4.211577,-1.50193 -6.29672,-2.55998 -6.203821,-3.15352 -10.797338,-7.14317 -14.678597,-12.75861 -0.655472,-0.94967 -1.507081,-2.32772 -1.729013,-2.80256 -0.402574,-0.84644 -0.71225,-2.06966 -0.810319,-3.17933 -0.149675,-1.78579 0.330317,-3.87093 1.249021,-5.3935 l 0.273548,-0.45935 -0.0052,-1.18709 c -0.01033,-1.15612 -0.09291,-2.436111 -0.247736,-3.638681 -0.113547,-0.87741 -0.154846,-0.78451 0.423215,-0.92386 1.88386,-0.4542 4.072226,-1.212907 5.212861,-1.806447 1.672244,-0.88257 3.989644,-2.90062 6.074795,-5.29545 0.227095,-0.2529 0.438702,-0.49547 0.469668,-0.53676 0.09291,-0.0981 0.454198,0.15484 0.954832,0.6658 1.32644,1.35225 2.178049,3.35481 2.658042,6.21931 0.216778,1.290317 0.454189,2.064497 0.913541,2.993527 0.87225,1.754821 2.544494,3.679961 4.36126,5.021891 l 0.428387,0.30968 -0.392258,0.2116 c -0.51613,0.27872 -1.72386,0.84129 -2.394819,1.11484 -4.061901,1.66192 -7.772843,1.66192 -12.02571,0 -0.820643,-0.32 -1.894176,-0.81032 -2.57546,-1.17677 l -0.480001,-0.25806 0.206453,0.33032 c 2.41546,3.80384 5.976727,6.00253 10.565073,6.52898 0.867088,0.0981 2.663204,0.10839 3.58707,0.0207 0.557412,-0.0516 1.403859,-0.17548 1.940629,-0.28903 0.139351,-0.0258 0.185804,-0.005 0.325155,0.14451 0.211616,0.21677 0.438711,0.65548 0.557421,1.07871 0.07227,0.26322 0.08774,0.51095 0.08774,1.20773 -0.0052,1.00644 -0.0929,1.50192 -0.510959,2.81288 -0.27871,0.8929 -0.371616,1.22838 -0.474839,1.78063 -0.108385,0.58839 -0.144513,2.05418 -0.07227,2.84901 0.227123,2.42574 1.187117,5.43474 2.611618,8.2115 0.268386,0.51612 0.459352,0.93934 0.423224,0.93934 -0.03614,0 -0.319993,-0.0774 -0.629669,-0.17548 z m -48.87702,-0.76387 c 1.4245,-2.77159 2.384494,-5.78575 2.611589,-8.21154 0.07227,-0.81032 0.03614,-2.26579 -0.07744,-2.88514 -0.08774,-0.45419 -0.221932,-0.94967 -0.567736,-2.04902 -0.330317,-1.05805 -0.412899,-1.57934 -0.412899,-2.53418 0,-0.66579 0.01549,-0.92385 0.08774,-1.18192 0.11871,-0.42322 0.345805,-0.86193 0.557412,-1.0787 0.139351,-0.14967 0.185804,-0.17032 0.325155,-0.14451 1.207738,0.2529 2.28128,0.35096 3.695455,0.35096 5.408989,-0.005 9.718634,-2.32773 12.46442,-6.71478 l 0.13935,-0.2271 -0.428385,0.23226 c -0.660635,0.35612 -1.852886,0.90322 -2.627076,1.20257 -4.371577,1.70837 -8.123801,1.66708 -12.361189,-0.13935 -0.598703,-0.25807 -2.363853,-1.09419 -2.451588,-1.16645 -0.01549,-0.0103 0.01549,-0.0413 0.06195,-0.0671 0.289035,-0.15999 1.352251,-1.04773 1.940629,-1.62063 0.856772,-0.83096 1.429671,-1.50192 2.018049,-2.37933 0.975472,-1.455481 1.378055,-2.487731 1.682568,-4.304498 0.45419,-2.71998 1.279987,-4.69157 2.539332,-6.09027 0.242582,-0.26322 0.918704,-0.8258 1.001285,-0.8258 0.01549,0 0.211608,0.21677 0.43354,0.48 2.028373,2.35352 4.45932,4.49028 6.131564,5.37802 1.114833,0.59354 2.869658,1.218047 4.939314,1.754827 0.490317,0.12387 0.898062,0.23742 0.908387,0.24774 0.01033,0.0103 -0.01549,0.28387 -0.05679,0.60903 -0.165163,1.25418 -0.237419,2.239981 -0.268385,3.561261 l -0.03097,1.37289 0.247736,0.40774 c 0.655481,1.07354 1.099345,2.39482 1.264508,3.75223 0.0826,0.62967 0.0413,2.0645 -0.07227,2.66837 -0.11871,0.63999 -0.330317,1.36773 -0.521283,1.78062 -0.211616,0.47483 -1.052901,1.86838 -1.713535,2.84901 -3.267069,4.8619 -7.070909,8.53155 -11.912162,11.48378 -2.978043,1.81676 -6.079949,3.23611 -9.238633,4.22707 -0.340642,0.10322 -0.660643,0.19612 -0.707096,0.19612 -0.06711,0.005 0.02581,-0.21161 0.39742,-0.93418 z"
         id="path861"
         style="display:inline;fill:#7f5482;stroke:#945b80;stroke-width:0.005;stroke-miterlimit:4;stroke-dasharray:0.0025, 0.0025;stroke-dashoffset:0"
         sodipodi:nodetypes="scscsccccccccsccccccccccccccccscccccccccccccccccccccsccscccccscscccccccccscsccccccscccccccccccccssccccccccccccccccccccccccccccccccccsccccccscccccccccccccccsccccccccccccccccc"
         inkscape:label="Papillon" />
      <g
         id="g1234"
         inkscape:label="Cote1 droit haut"
         sodipodi:insensitive="true">
        <path
           d="m 82.550202,200.97384 -0.0365,-2.994 -2.993598,0.037 0.0365,2.993 z"
           style="display:inline;fill:#bc0061;stroke:none;stroke-width:0.216617;stroke-linecap:round;stroke-dasharray:0.108308, 0.108308"
           id="rect926_44-1_84" />
        <path
           d="m 82.8275,228.4728 -0.0365,-2.99399 -2.993497,0.037 0.0365,2.993 z"
           style="display:inline;fill:#bc0061;stroke:none;stroke-width:0.216617;stroke-linecap:round;stroke-dasharray:0.108308, 0.108308"
           id="rect926_44-1_68" />
        <path
           d="m 82.661101,211.97282 -0.0365,-2.99299 -2.993497,0.036 0.0365,2.99399 z"
           style="display:inline;fill:#bc0061;stroke:none;stroke-width:0.216617;stroke-linecap:round;stroke-dasharray:0.108308, 0.108308"
           id="rect926_44-1_67" />
        <path
           d="m 82.328201,178.97486 -0.0365,-2.99399 -2.993497,0.037 0.0365,2.993 z"
           style="display:inline;fill:#bc0061;stroke:none;stroke-width:0.216617;stroke-linecap:round;stroke-dasharray:0.108308, 0.108308"
           id="rect926_44-1_66" />
        <path
           d="m 82.494703,195.47384 -0.0365,-2.99299 -2.993495,0.036 0.0365,2.99399 z"
           style="display:inline;fill:#bc0061;stroke:none;stroke-width:0.216617;stroke-linecap:round;stroke-dasharray:0.108308, 0.108308"
           id="rect926_44-1_65" />
        <path
           d="m 82.383702,184.47486 -0.0365,-2.994 -2.993494,0.037 0.0365,2.99299 z"
           style="display:inline;fill:#bc0061;stroke:none;stroke-width:0.216617;stroke-linecap:round;stroke-dasharray:0.108308, 0.108308"
           id="rect926_44-1_64" />
        <path
           d="m 82.439201,189.97385 -0.0365,-2.993 -2.993498,0.036 0.0365,2.994 z"
           style="display:inline;fill:#bc0061;stroke:none;stroke-width:0.216617;stroke-linecap:round;stroke-dasharray:0.108308, 0.108308"
           id="rect926_44-1_63" />
        <path
           d="m 82.605603,206.47383 -0.0365,-2.994 -2.993495,0.037 0.0365,2.993 z"
           style="display:inline;fill:#bc0061;stroke:none;stroke-width:0.216617;stroke-linecap:round;stroke-dasharray:0.108308, 0.108308"
           id="rect926_44-1_62" />
        <path
           d="m 82.7166,217.47282 -0.0365,-2.993 -2.993497,0.036 0.0365,2.994 z"
           style="display:inline;fill:#bc0061;stroke:none;stroke-width:0.216617;stroke-linecap:round;stroke-dasharray:0.108308, 0.108308"
           id="rect926_44-1_61" />
        <path
           d="m 82.772102,222.97281 -0.0365,-2.994 -2.993495,0.037 0.0365,2.99299 z"
           style="display:inline;fill:#bc0061;stroke:none;stroke-width:0.216617;stroke-linecap:round;stroke-dasharray:0.108308, 0.108308"
           id="rect926_44-1_60" />
        <path
           d="m 82.883002,233.9718 -0.0365,-2.993 -2.993495,0.036 0.0057,0.46577 0.22252,0.11623 -0.21631,0.39328 0.02461,2.01872 z"
           style="display:inline;fill:#bc0061;stroke:none;stroke-width:0.216617;stroke-linecap:round;stroke-dasharray:0.108308, 0.108308"
           id="rect926_44-1_11" />
      </g>
      <g
         id="g1315"
         inkscape:label="Haut 1 vague"
         sodipodi:insensitive="true"
         style="display:inline">
        <path
           d="m 79.864893,231.99008 -0.0062,-0.50951 -2.490175,-1.30077 -1.321799,2.685 2.591797,1.355 z"
           style="display:inline;fill:#bc0061;stroke:none;stroke-width:0.216617;stroke-linecap:round;stroke-dasharray:0.108308, 0.108308"
           id="rect926_44-1_9" />
        <path
           d="m 24.776167,234.3418 2.817198,-1.077 -1.085798,-2.79 -2.775198,1.061 z"
           style="display:inline;fill:#bc0061;stroke:none;stroke-width:0.216617;stroke-linecap:round;stroke-dasharray:0.108308, 0.108308"
           id="rect926_44-1_59" />
        <path
           d="m 56.168932,232.6078 2.696196,-1.131 -1.102099,-2.78299 -2.822995,1.18399 z"
           style="display:inline;fill:#bc0061;stroke:none;stroke-width:0.216617;stroke-linecap:round;stroke-dasharray:0.108308, 0.108308"
           id="rect926_44-1_29" />
        <path
           d="m 29.908461,232.4118 2.744697,-0.834 -0.7772,-2.891 -2.980697,0.908 z"
           style="display:inline;fill:#bc0061;stroke:none;stroke-width:0.216617;stroke-linecap:round;stroke-dasharray:0.108308, 0.108308"
           id="rect926_44-1_28" />
        <path
           d="m 44.846944,232.4098 2.520897,1.317 1.497899,-2.592 -2.782397,-1.451 z"
           style="display:inline;fill:#bc0061;stroke:none;stroke-width:0.216617;stroke-linecap:round;stroke-dasharray:0.108308, 0.108308"
           id="rect926_44-1_24" />
        <path
           d="m 71.205814,231.0208 2.683197,0.896 1.049598,-2.803 -2.993397,-0.99399 z"
           style="display:inline;fill:#bc0061;stroke:none;stroke-width:0.216617;stroke-linecap:round;stroke-dasharray:0.108308, 0.108308"
           id="rect926_44-1_22" />
        <path
           d="m 34.914456,231.1198 2.823997,-0.244 -0.0803,-2.99199 -3.134896,0.268 z"
           style="display:inline;fill:#bc0061;stroke:none;stroke-width:0.216617;stroke-linecap:round;stroke-dasharray:0.108308, 0.108308"
           id="rect926_44-1_20" />
        <path
           d="m 9.4596122,231.0948 2.7966368,-0.133 0.0775,-2.99199 -3.1784265,0.147 z"
           style="display:inline;fill:#bc0061;stroke:none;stroke-width:0.216617;stroke-linecap:round;stroke-dasharray:0.108308, 0.108308"
           id="rect926_44-1_19" />
        <path
           d="m 14.02048,231.1738 2.703296,0.638 0.8907,-2.85799 -3.116497,-0.73501 z"
           style="display:inline;fill:#bc0061;stroke:none;stroke-width:0.216617;stroke-linecap:round;stroke-dasharray:0.108308, 0.108308"
           id="rect926_44-1_18" />
        <path
           d="m 61.079725,230.8018 2.719297,-0.486 -0.292698,-2.97899 -3.167696,0.565 z"
           style="display:inline;fill:#bc0061;stroke:none;stroke-width:0.216617;stroke-linecap:round;stroke-dasharray:0.108308, 0.108308"
           id="rect926_44-1_17" />
        <path
           d="m 40.02285,231.0298 2.697897,0.577 0.801599,-2.88399 -3.151196,-0.666 z"
           style="display:inline;fill:#bc0061;stroke:none;stroke-width:0.216617;stroke-linecap:round;stroke-dasharray:0.108308, 0.108308"
           id="rect926_44-1_16" />
        <path
           d="m 18.832074,232.6798 2.361098,1.423 1.707697,-2.458 -2.762496,-1.658 z"
           style="display:inline;fill:#bc0061;stroke:none;stroke-width:0.216617;stroke-linecap:round;stroke-dasharray:0.108308, 0.108308"
           id="rect926_44-1_15" />
        <path
           d="m 4.5191478,232.3288 2.6256169,-0.823 -0.6071891,-2.93099 -3.0832966,0.95699 z"
           style="display:inline;fill:#bc0061;stroke:none;stroke-width:0.216617;stroke-linecap:round;stroke-dasharray:0.108308, 0.108308"
           id="rect926_44-1_14" />
        <path
           d="m 66.130321,230.2358 2.716296,0.248 0.5726,-2.93799 -3.239697,-0.303 z"
           style="display:inline;fill:#bc0061;stroke:none;stroke-width:0.216617;stroke-linecap:round;stroke-dasharray:0.108308, 0.108308"
           id="rect926_44-1_12" />
        <path
           d="m 50.618536,234.6258 3.227598,-0.999 -1.172999,-2.754 -2.462096,0.789 z"
           style="display:inline;fill:#bc0061;stroke:none;stroke-width:0.216617;stroke-linecap:round;stroke-dasharray:0.108308, 0.108308"
           id="rect926_44-1_8" />
        <path
           d="m -0.02453895,234.7038 2.35603915,-1.423 -1.2819634,-2.705 -2.7677319,1.66 0.089458,0.13036 0.067102,-2.7e-4 -0.046637,0.0302 z"
           style="display:inline;fill:#bc0061;stroke:none;stroke-width:0.216617;stroke-linecap:round;stroke-dasharray:0.108308, 0.108308"
           id="rect926_44-1_13" />
      </g>
      <g
         id="g1135"
         inkscape:label="Haut 1 gauche"
         sodipodi:insensitive="true"
         style="display:inline">
        <path
           d="m -5.2167509,226.41498 0.01664,2.99399 2.9936866,-0.017 -0.01664,-2.99299 z"
           style="display:inline;fill:#bc0061;stroke:none;stroke-width:0.216617;stroke-linecap:round;stroke-dasharray:0.108308, 0.108308"
           id="rect926_44-1_58" />
        <path
           d="m -5.2592005,221.38181 0.01664,2.994 2.9936866,-0.017 -0.01664,-2.993 z"
           style="display:inline;fill:#bc0061;stroke:none;stroke-width:0.216617;stroke-linecap:round;stroke-dasharray:0.108308, 0.108308"
           id="rect926_44-1_57" />
        <path
           d="m -5.1776964,575.78346 0.062891,11.31591 11.3147352,-0.0643 -0.062891,-11.31213 z"
           style="display:inline;fill:#bc0061;stroke:none;stroke-width:0.81871;stroke-linecap:round;stroke-dasharray:0.409353, 0.409353"
           id="rect926_44-1_56"
           transform="matrix(0.264583,0,0,0.264583,-3.790518,58.03931)" />
        <path
           d="m -5.2494696,554.99606 0.062891,11.31591 11.3147351,-0.0643 -0.062891,-11.31212 z"
           style="display:inline;fill:#bc0061;stroke:none;stroke-width:0.81871;stroke-linecap:round;stroke-dasharray:0.409353, 0.409353"
           id="rect926_44-1_55"
           transform="matrix(0.264583,0,0,0.264583,-3.790518,58.03931)" />
        <path
           d="m -5.1059231,596.57087 0.062891,11.3159 11.3147352,-0.0642 -0.062891,-11.31213 z"
           style="display:inline;fill:#bc0061;stroke:none;stroke-width:0.81871;stroke-linecap:round;stroke-dasharray:0.409353, 0.409353"
           id="rect926_44-1_54"
           transform="matrix(0.264583,0,0,0.264583,-3.790518,58.03931)" />
        <path
           d="m -5.3212428,534.20865 0.062891,11.31591 11.3147352,-0.0642 -0.062891,-11.31213 z"
           style="display:inline;fill:#bc0061;stroke:none;stroke-width:0.81871;stroke-linecap:round;stroke-dasharray:0.409353, 0.409353"
           id="rect926_44-1_53"
           transform="matrix(0.264583,0,0,0.264583,-3.790518,58.03931)" />
        <path
           d="m -5.3929783,513.42125 0.062854,11.31591 11.3147352,-0.0643 -0.062854,-11.31213 z"
           style="display:inline;fill:#bc0061;stroke:none;stroke-width:0.81871;stroke-linecap:round;stroke-dasharray:0.409353, 0.409353"
           id="rect926_44-1_52"
           transform="matrix(0.264583,0,0,0.264583,-3.790518,58.03931)" />
        <path
           d="m -5.608298,451.05904 0.062854,11.31591 11.3147352,-0.0643 -0.062854,-11.31212 z"
           style="display:inline;fill:#bc0061;stroke:none;stroke-width:0.81871;stroke-linecap:round;stroke-dasharray:0.409353, 0.409353"
           id="rect926_44-1_51"
           transform="matrix(0.264583,0,0,0.264583,-3.790518,58.03931)" />
        <path
           d="m -5.5365247,471.84644 0.062854,11.31591 11.3147352,-0.0643 -0.062854,-11.31213 z"
           style="display:inline;fill:#bc0061;stroke:none;stroke-width:0.81871;stroke-linecap:round;stroke-dasharray:0.409353, 0.409353"
           id="rect926_44-1_50"
           transform="matrix(0.264583,0,0,0.264583,-3.790518,58.03931)" />
        <path
           d="m -5.4647515,492.63385 0.062854,11.3159 11.3147352,-0.0643 -0.062854,-11.31213 z"
           style="display:inline;fill:#bc0061;stroke:none;stroke-width:0.81871;stroke-linecap:round;stroke-dasharray:0.409353, 0.409353"
           id="rect926_44-1_49"
           transform="matrix(0.264583,0,0,0.264583,-3.790518,58.03931)" />
        <path
           d="m -5.4110336,234.09001 2.7496242,0.12417 0.4351799,-2.9616 -3.2236229,-0.15556 0.00205,0.15809 0.055961,0.0371 -0.055576,-0.001 z"
           style="display:inline;fill:#bc0061;stroke:none;stroke-width:0.216617;stroke-linecap:round;stroke-dasharray:0.108308, 0.108308"
           id="rect926_44-1_13-2" />
      </g>
      <g
         id="g1332"
         inkscape:label="Goulot 1">
        <path
           d="m 51.440837,62.546795 -2.808597,0.374499 0.2906,2.979397 3.123296,-0.4226 z"
           style="display:inline;fill:#bc0061;stroke:none;stroke-width:0.216617;stroke-linecap:round;stroke-dasharray:0.108308, 0.108308"
           id="rect926_44-1_25" />
        <path
           d="m 46.188443,63.118094 -2.928296,0.1222 0.0588,2.992797 3.052396,-0.1269 z"
           style="display:inline;fill:#bc0061;stroke:none;stroke-width:0.216617;stroke-linecap:round;stroke-dasharray:0.108308, 0.108308"
           id="rect926_44-1_31" />
        <path
           d="m 40.754348,63.277994 -2.929095,-0.0258 -0.0684,2.992796 3.056396,0.0258 z"
           style="display:inline;fill:#bc0061;stroke:none;stroke-width:0.216617;stroke-linecap:round;stroke-dasharray:0.108308, 0.108308"
           id="rect926_44-1_30" />
        <path
           d="m 35.849223,63.183294 -2.936098,-0.1662 -0.173599,2.988597 3.041297,0.1704 z"
           style="display:inline;fill:#bc0061;stroke:none;stroke-width:0.216617;stroke-linecap:round;stroke-dasharray:0.108308, 0.108308"
           id="rect926_44-1_32" />
        <path
           d="m 30.966763,62.803209 -2.936099,-0.1662 -0.173598,2.988597 3.041297,0.170399 z"
           style="display:inline;fill:#bc0061;stroke:none;stroke-width:0.216617;stroke-linecap:round;stroke-dasharray:0.108308, 0.108308"
           id="rect926_44-1_32-9" />
        <path
           d="m 26.383811,61.644984 -2.936099,-0.1662 -0.173598,2.988597 3.041297,0.170399 z"
           style="display:inline;fill:#bc0061;stroke:none;stroke-width:0.216617;stroke-linecap:round;stroke-dasharray:0.108308, 0.108308"
           id="rect926_44-1_32-3"
           inkscape:transform-center-x="6.1771967"
           inkscape:transform-center-y="-11.775281" />
      </g>
      <path
         d="m 62.126191,59.090799 -2.795396,1.071699 1.0718,2.795296 2.795295,-1.071698 z"
         style="display:inline;fill:#bc0061;stroke:none;stroke-width:0.216617;stroke-linecap:round;stroke-dasharray:0.108308, 0.108308"
         id="rect926_44-1_73" />
      <path
         d="m 22.053035,60.56663 -2.579896,-1.158899 -1.294999,2.698897 2.882897,1.284198 z"
         style="display:inline;fill:#bc0061;stroke:none;stroke-width:0.216617;stroke-linecap:round;stroke-dasharray:0.108308, 0.108308"
         id="rect926_44-1_21" />
      <path
         d="m 56.878997,61.096096 -2.545595,0.9468 0.777998,2.890596 3.054397,-1.135299 z"
         style="display:inline;fill:#bc0061;stroke:none;stroke-width:0.216617;stroke-linecap:round;stroke-dasharray:0.108308, 0.108308"
         id="rect926_44-1_10" />
      <path
         d="m 79.074973,58.579067 -3.076597,-1.398398 -0.8965,2.851996 2.479997,1.140199 z"
         style="display:inline;fill:#bc0061;stroke:none;stroke-width:0.216617;stroke-linecap:round;stroke-dasharray:0.108308, 0.108308"
         id="rect926_44-1_97" />
      <path
         d="m 67.265787,57.132601 -2.795298,1.071699 1.071699,2.795397 2.795396,-1.071799 z"
         style="display:inline;fill:#bc0061;stroke:none;stroke-width:0.216617;stroke-linecap:round;stroke-dasharray:0.108308, 0.108308"
         id="rect926_44-1_83" />
      <path
         d="m 17.298141,58.801899 -2.594497,-1.421598 -1.450998,2.618497 2.656196,1.454798 z"
         style="display:inline;fill:#bc0061;stroke:none;stroke-width:0.216617;stroke-linecap:round;stroke-dasharray:0.108308, 0.108308"
         id="rect926_44-1_34" />
      <path
         d="M 6.4595209,57.051001 3.4024144,57.7071 4.1020036,60.617697 6.8961906,60.012398 Z"
         style="display:inline;fill:#bc0061;stroke:none;stroke-width:0.216617;stroke-linecap:round;stroke-dasharray:0.108308, 0.108308"
         id="rect926_44-1_27" />
      <path
         d="M 19.682111,1.5234899 8.5603588,5.7894432 13.161673,16.12494 23.158068,12.290609 Z"
         style="display:inline;fill:#bc0061;stroke:none;stroke-width:0.81871;stroke-linecap:round;stroke-dasharray:0.409353, 0.409353"
         id="rect926_44-1_26"
         transform="matrix(0.264583,0,0,0.264583,-3.790518,58.03931)" />
      <path
         d="m 11.647448,56.588002 -3.1562166,0.1459 0.2874197,2.979496 2.8202969,-0.1325 z"
         style="display:inline;fill:#bc0061;stroke:none;stroke-width:0.216617;stroke-linecap:round;stroke-dasharray:0.108308, 0.108308"
         id="rect926_44-1_23" />
      <path
         d="m 73.284278,56.110702 -3.409694,0.2053 0.627699,2.926697 2.544095,-0.1481 z"
         style="display:inline;fill:#bc0061;stroke:none;stroke-width:0.216617;stroke-linecap:round;stroke-dasharray:0.108308, 0.108308"
         id="rect926_44-1_7" />
      <g
         id="g1169"
         inkscape:label="Coté Droit 2">
        <path
           d="m 326.66959,228.48641 -0.0461,-11.3159 -11.31478,0.0453 0.0457,11.31591 z"
           style="display:inline;fill:#bc0061;stroke:none;stroke-width:0.81871;stroke-linecap:round;stroke-dasharray:0.409353, 0.409353"
           id="rect926_44-1_96"
           transform="matrix(0.264583,0,0,0.264583,-3.790518,58.03931)" />
        <path
           d="m 326.79167,290.84863 -0.0457,-11.31591 -11.31515,0.0454 0.0461,11.31591 z"
           style="display:inline;fill:#bc0061;stroke:none;stroke-width:0.81871;stroke-linecap:round;stroke-dasharray:0.409353, 0.409353"
           id="rect926_44-1_95"
           transform="matrix(0.264583,0,0,0.264583,-3.790518,58.03931)" />
        <path
           d="m 326.54713,166.1242 -0.0461,-11.31628 -11.31477,0.0461 0.0461,11.31553 z"
           style="display:inline;fill:#bc0061;stroke:none;stroke-width:0.81871;stroke-linecap:round;stroke-dasharray:0.409353, 0.409353"
           id="rect926_44-1_94"
           transform="matrix(0.264583,0,0,0.264583,-3.790518,58.03931)" />
        <path
           d="m 326.83248,311.63603 -0.0461,-11.31591 -11.31477,0.0454 0.0461,11.3159 z"
           style="display:inline;fill:#bc0061;stroke:none;stroke-width:0.81871;stroke-linecap:round;stroke-dasharray:0.409353, 0.409353"
           id="rect926_44-1_93"
           transform="matrix(0.264583,0,0,0.264583,-3.790518,58.03931)" />
        <path
           d="m 326.62877,207.69901 -0.0461,-11.31591 -11.31478,0.0454 0.0461,11.3159 z"
           style="display:inline;fill:#bc0061;stroke:none;stroke-width:0.81871;stroke-linecap:round;stroke-dasharray:0.409353, 0.409353"
           id="rect926_44-1_92"
           transform="matrix(0.264583,0,0,0.264583,-3.790518,58.03931)" />
        <path
           d="m 326.8733,332.42343 -0.0461,-11.3159 -11.31477,0.0453 0.0461,11.31591 z"
           style="display:inline;fill:#bc0061;stroke:none;stroke-width:0.81871;stroke-linecap:round;stroke-dasharray:0.409353, 0.409353"
           id="rect926_44-1_91"
           transform="matrix(0.264583,0,0,0.264583,-3.790518,58.03931)" />
        <path
           d="m 326.91412,353.21084 -0.0461,-11.31591 -11.31477,0.0454 0.0461,11.3159 z"
           style="display:inline;fill:#bc0061;stroke:none;stroke-width:0.81871;stroke-linecap:round;stroke-dasharray:0.409353, 0.409353"
           id="rect926_44-1_90"
           transform="matrix(0.264583,0,0,0.264583,-3.790518,58.03931)" />
        <path
           d="m 326.58795,186.91161 -0.0461,-11.31591 -11.31477,0.0454 0.0461,11.31591 z"
           style="display:inline;fill:#bc0061;stroke:none;stroke-width:0.81871;stroke-linecap:round;stroke-dasharray:0.409353, 0.409353"
           id="rect926_44-1_89"
           transform="matrix(0.264583,0,0,0.264583,-3.790518,58.03931)" />
        <path
           d="m 326.75085,270.06122 -0.0457,-11.3159 -11.31477,0.0453 0.0457,11.31591 z"
           style="display:inline;fill:#bc0061;stroke:none;stroke-width:0.81871;stroke-linecap:round;stroke-dasharray:0.409353, 0.409353"
           id="rect926_44-1_88"
           transform="matrix(0.264583,0,0,0.264583,-3.790518,58.03931)" />
        <path
           d="m 326.71003,249.27382 -0.0457,-11.31591 -11.31478,0.0454 0.0457,11.3159 z"
           style="display:inline;fill:#bc0061;stroke:none;stroke-width:0.81871;stroke-linecap:round;stroke-dasharray:0.409353, 0.409353"
           id="rect926_44-1_87"
           transform="matrix(0.264583,0,0,0.264583,-3.790518,58.03931)" />
        <path
           d="m 325.86228,415.71289 0.26154,-11.31212 -11.31175,-0.26079 -0.26192,11.31213 z"
           style="display:inline;fill:#bc0061;stroke:none;stroke-width:0.81871;stroke-linecap:round;stroke-dasharray:0.409353, 0.409353"
           id="rect926_44-1_86"
           transform="matrix(0.264583,0,0,0.264583,-3.790518,58.03931)" />
        <path
           d="m 326.38688,394.93305 0.26154,-11.31213 -11.31175,-0.26079 -0.26192,11.31213 z"
           style="display:inline;fill:#bc0061;stroke:none;stroke-width:0.81871;stroke-linecap:round;stroke-dasharray:0.409353, 0.409353"
           id="rect926_44-1_85"
           transform="matrix(0.264583,0,0,0.264583,-3.790518,58.03931)" />
        <path
           d="m 326.46549,124.54788 -0.0461,-11.31477 -11.31477,0.0457 0.0461,11.31515 z"
           style="display:inline;fill:#bc0061;stroke:none;stroke-width:0.81871;stroke-linecap:round;stroke-dasharray:0.409353, 0.409353"
           id="rect926_44-1_82"
           transform="matrix(0.264583,0,0,0.264583,-3.790518,58.03931)" />
        <path
           d="m 326.34304,62.185292 -0.0457,-11.314773 -11.31515,0.04611 0.0461,11.314773 z"
           style="display:inline;fill:#bc0061;stroke:none;stroke-width:0.81871;stroke-linecap:round;stroke-dasharray:0.409353, 0.409353"
           id="rect926_44-1_81"
           transform="matrix(0.264583,0,0,0.264583,-3.790518,58.03931)" />
        <path
           d="m 325.33768,436.49274 0.26154,-11.31213 -11.31175,-0.26079 -0.26154,11.31213 z"
           style="display:inline;fill:#bc0061;stroke:none;stroke-width:0.81871;stroke-linecap:round;stroke-dasharray:0.409353, 0.409353"
           id="rect926_44-1_80"
           transform="matrix(0.264583,0,0,0.264583,-3.790518,58.03931)" />
        <path
           d="m 326.50631,145.33529 -0.0461,-11.31478 -11.31477,0.0461 0.0461,11.31478 z"
           style="display:inline;fill:#bc0061;stroke:none;stroke-width:0.81871;stroke-linecap:round;stroke-dasharray:0.409353, 0.409353"
           id="rect926_44-1_72"
           transform="matrix(0.264583,0,0,0.264583,-3.790518,58.03931)" />
        <path
           d="m 326.38385,82.972696 -0.0461,-11.314773 -11.31477,0.04611 0.0461,11.314773 z"
           style="display:inline;fill:#bc0061;stroke:none;stroke-width:0.81871;stroke-linecap:round;stroke-dasharray:0.409353, 0.409353"
           id="rect926_44-1_71"
           transform="matrix(0.264583,0,0,0.264583,-3.790518,58.03931)" />
        <path
           d="m 326.42467,103.76048 -0.0461,-11.314775 -11.31477,0.04573 0.0461,11.314775 z"
           style="display:inline;fill:#bc0061;stroke:none;stroke-width:0.81871;stroke-linecap:round;stroke-dasharray:0.409353, 0.409353"
           id="rect926_44-1_70"
           transform="matrix(0.264583,0,0,0.264583,-3.790518,58.03931)" />
        <path
           d="m 326.30222,41.397888 -0.0457,-11.314773 -11.31477,0.04611 0.0457,11.314773 z"
           style="display:inline;fill:#bc0061;stroke:none;stroke-width:0.81871;stroke-linecap:round;stroke-dasharray:0.409353, 0.409353"
           id="rect926_44-1_69"
           transform="matrix(0.264583,0,0,0.264583,-3.790518,58.03931)" />
        <path
           d="m 326.9111,374.14942 -0.002,-11.46708 -11.31477,0.0453 0.005,11.16095 z"
           style="display:inline;fill:#bc0061;stroke:none;stroke-width:0.81871;stroke-linecap:round;stroke-dasharray:0.409353, 0.409353"
           id="rect926_44-1_33"
           transform="matrix(0.264583,0,0,0.264583,-3.790518,58.03931)" />
        <path
           d="m 326.26178,20.610484 -6.53594,-13.8153084 -7.93361,8.0613554 3.15439,5.800064 z"
           style="display:inline;fill:#bc0061;stroke:none;stroke-width:0.81871;stroke-linecap:round;stroke-dasharray:0.409353, 0.409353"
           id="rect926_44-1_6"
           transform="matrix(0.264583,0,0,0.264583,-3.790518,58.03931)" />
      </g>
      <g
         id="g1192"
         inkscape:label="Cote 2 Gauche">
        <path
           d="m -4.3708049,56.061323 -0.012737,11.314773 11.3149241,0.01285 0.012699,-11.31515 z"
           style="display:inline;fill:#bc0061;stroke:none;stroke-width:0.81871;stroke-linecap:round;stroke-dasharray:0.409353, 0.409353"
           id="rect926_44-1_79"
           transform="matrix(0.264583,0,0,0.264583,-3.790518,58.03931)" />
        <path
           d="m -4.5721404,118.42354 -0.012699,11.31477 11.3148864,0.0128 0.012737,-11.31515 z"
           style="display:inline;fill:#bc0061;stroke:none;stroke-width:0.81871;stroke-linecap:round;stroke-dasharray:0.409353, 0.409353"
           id="rect926_44-1_78"
           transform="matrix(0.264583,0,0,0.264583,-3.790518,58.03931)" />
        <path
           d="M -4.4379293,76.848727 -4.4506286,88.1635 6.8642578,88.17635 6.8769948,76.8612 Z"
           style="display:inline;fill:#bc0061;stroke:none;stroke-width:0.81871;stroke-linecap:round;stroke-dasharray:0.409353, 0.409353"
           id="rect926_44-1_77"
           transform="matrix(0.264583,0,0,0.264583,-3.790518,58.03931)" />
        <path
           d="m -4.3037183,35.273919 -0.012699,11.314773 11.3148863,0.01285 0.012737,-11.31515 z"
           style="display:inline;fill:#bc0061;stroke:none;stroke-width:0.81871;stroke-linecap:round;stroke-dasharray:0.409353, 0.409353"
           id="rect926_44-1_76"
           transform="matrix(0.264583,0,0,0.264583,-3.790518,58.03931)" />
        <path
           d="M -4.505016,97.636131 -4.517753,108.9509 6.7971712,108.9638 6.8098702,97.648654 Z"
           style="display:inline;fill:#bc0061;stroke:none;stroke-width:0.81871;stroke-linecap:round;stroke-dasharray:0.409353, 0.409353"
           id="rect926_44-1_75"
           transform="matrix(0.264583,0,0,0.264583,-3.790518,58.03931)" />
        <path
           d="m -4.639227,139.21094 -0.012699,11.31477 11.3148863,0.0128 0.012699,-11.31515 z"
           style="display:inline;fill:#bc0061;stroke:none;stroke-width:0.81871;stroke-linecap:round;stroke-dasharray:0.409353, 0.409353"
           id="rect926_44-1_74"
           transform="matrix(0.264583,0,0,0.264583,-3.790518,58.03931)" />
        <path
           d="m -5.3102822,347.08422 -0.012699,11.31591 11.3149241,0.0113 0.012699,-11.31213 z"
           style="display:inline;fill:#bc0061;stroke:none;stroke-width:0.81871;stroke-linecap:round;stroke-dasharray:0.409353, 0.409353"
           id="rect926_44-1_48"
           transform="matrix(0.264583,0,0,0.264583,-3.790518,58.03931)" />
        <path
           d="m -4.7063514,159.99759 -0.012699,11.3159 11.3149241,0.0113 0.012699,-11.31212 z"
           style="display:inline;fill:#bc0061;stroke:none;stroke-width:0.81871;stroke-linecap:round;stroke-dasharray:0.409353, 0.409353"
           id="rect926_44-1_47"
           transform="matrix(0.264583,0,0,0.264583,-3.790518,58.03931)" />
        <path
           d="m -5.5115799,409.44644 -0.012699,11.3159 11.3148864,0.0113 0.012737,-11.31213 z"
           style="display:inline;fill:#bc0061;stroke:none;stroke-width:0.81871;stroke-linecap:round;stroke-dasharray:0.409353, 0.409353"
           id="rect926_44-1_46"
           transform="matrix(0.264583,0,0,0.264583,-3.790518,58.03931)" />
        <path
           d="m -5.1089467,284.72201 -0.012737,11.31591 11.3149241,0.0113 0.012699,-11.31213 z"
           style="display:inline;fill:#bc0061;stroke:none;stroke-width:0.81871;stroke-linecap:round;stroke-dasharray:0.409353, 0.409353"
           id="rect926_44-1_45"
           transform="matrix(0.264583,0,0,0.264583,-3.790518,58.03931)" />
        <path
           d="m -4.9747357,243.1472 -0.012737,11.31591 11.3149241,0.0113 0.012699,-11.31213 z"
           style="display:inline;fill:#bc0061;stroke:none;stroke-width:0.81871;stroke-linecap:round;stroke-dasharray:0.409353, 0.409353"
           id="rect926_44-1_44"
           transform="matrix(0.264583,0,0,0.264583,-3.790518,58.03931)" />
        <path
           d="m -4.773438,180.78499 -0.012699,11.31591 11.3148864,0.0113 0.012737,-11.31213 z"
           style="display:inline;fill:#bc0061;stroke:none;stroke-width:0.81871;stroke-linecap:round;stroke-dasharray:0.409353, 0.409353"
           id="rect926_44-1_43"
           transform="matrix(0.264583,0,0,0.264583,-3.790518,58.03931)" />
        <path
           d="m -5.4444554,388.65903 -0.012737,11.31591 11.3149241,0.0113 0.012699,-11.31213 z"
           style="display:inline;fill:#bc0061;stroke:none;stroke-width:0.81871;stroke-linecap:round;stroke-dasharray:0.409353, 0.409353"
           id="rect926_44-1_42"
           transform="matrix(0.264583,0,0,0.264583,-3.790518,58.03931)" />
        <path
           d="m -5.0418601,263.93461 -0.012699,11.3159 11.3148863,0.0113 0.012737,-11.31212 z"
           style="display:inline;fill:#bc0061;stroke:none;stroke-width:0.81871;stroke-linecap:round;stroke-dasharray:0.409353, 0.409353"
           id="rect926_44-1_41"
           transform="matrix(0.264583,0,0,0.264583,-3.790518,58.03931)" />
        <path
           d="m -4.9076491,222.3598 -0.012699,11.31591 11.3148864,0.0113 0.012737,-11.31212 z"
           style="display:inline;fill:#bc0061;stroke:none;stroke-width:0.81871;stroke-linecap:round;stroke-dasharray:0.409353, 0.409353"
           id="rect926_44-1_40"
           transform="matrix(0.264583,0,0,0.264583,-3.790518,58.03931)" />
        <path
           d="m -4.8405247,201.5724 -0.012737,11.3159 11.3149242,0.0113 0.012699,-11.31213 z"
           style="display:inline;fill:#bc0061;stroke:none;stroke-width:0.81871;stroke-linecap:round;stroke-dasharray:0.409353, 0.409353"
           id="rect926_44-1_39"
           transform="matrix(0.264583,0,0,0.264583,-3.790518,58.03931)" />
        <path
           d="m -5.5786665,430.23384 -0.012737,11.31591 11.3149242,0.0113 0.012699,-11.31212 z"
           style="display:inline;fill:#bc0061;stroke:none;stroke-width:0.81871;stroke-linecap:round;stroke-dasharray:0.409353, 0.409353"
           id="rect926_44-1_38"
           transform="matrix(0.264583,0,0,0.264583,-3.790518,58.03931)" />
        <path
           d="m -5.1760712,305.50942 -0.012699,11.3159 11.3148864,0.0113 0.012737,-11.31213 z"
           style="display:inline;fill:#bc0061;stroke:none;stroke-width:0.81871;stroke-linecap:round;stroke-dasharray:0.409353, 0.409353"
           id="rect926_44-1_37"
           transform="matrix(0.264583,0,0,0.264583,-3.790518,58.03931)" />
        <path
           d="m -5.2431578,326.29682 -0.012699,11.31591 11.3148864,0.0113 0.012699,-11.31212 z"
           style="display:inline;fill:#bc0061;stroke:none;stroke-width:0.81871;stroke-linecap:round;stroke-dasharray:0.409353, 0.409353"
           id="rect926_44-1_36"
           transform="matrix(0.264583,0,0,0.264583,-3.790518,58.03931)" />
        <path
           d="m -5.3773688,367.87163 -0.012699,11.3159 11.3148863,0.0113 0.012699,-11.31212 z"
           style="display:inline;fill:#bc0061;stroke:none;stroke-width:0.81871;stroke-linecap:round;stroke-dasharray:0.409353, 0.409353"
           id="rect926_44-1_35"
           transform="matrix(0.264583,0,0,0.264583,-3.790518,58.03931)" />
        <path
           d="M -0.44931785,10.053507 -4.2493309,25.801288 7.0655933,25.814138 5.0460025,19.94302 Z"
           style="display:inline;fill:#bc0061;stroke:none;stroke-width:0.81871;stroke-linecap:round;stroke-dasharray:0.409353, 0.409353"
           id="rect926_44-1_5"
           transform="matrix(0.264583,0,0,0.264583,-3.790518,58.03931)"
           inkscape:label="Rect 44" />
      </g>
    </g>
  </g>
</svg>
