<?xml version="1.0" encoding="UTF-8" standalone="no"?>
<svg
   xmlns:dc="http://purl.org/dc/elements/1.1/"
   xmlns:cc="http://creativecommons.org/ns#"
   xmlns:rdf="http://www.w3.org/1999/02/22-rdf-syntax-ns#"
   xmlns:svg="http://www.w3.org/2000/svg"
   xmlns="http://www.w3.org/2000/svg"
   xmlns:sodipodi="http://sodipodi.sourceforge.net/DTD/sodipodi-0.dtd"
   xmlns:inkscape="http://www.inkscape.org/namespaces/inkscape"
   width="30mm"
   height="30mm"
   viewBox="0 0 30 30"
   version="1.1"
   id="svg1550"
   inkscape:version="1.0.1 (c497b03c, 2020-09-10)"
   sodipodi:docname="pyramides fond noir.svg">
  <defs
     id="defs1544" />
  <sodipodi:namedview
     id="base"
     pagecolor="#000000"
     bordercolor="#666666"
     borderopacity="1.0"
     inkscape:pageopacity="0"
     inkscape:pageshadow="2"
     inkscape:zoom="2.8134427"
     inkscape:cx="80.136118"
     inkscape:cy="78.76698"
     inkscape:document-units="mm"
     inkscape:current-layer="layer1"
     inkscape:document-rotation="0"
     showgrid="false"
     inkscape:window-width="1280"
     inkscape:window-height="800"
     inkscape:window-x="0"
     inkscape:window-y="0"
     inkscape:window-maximized="0" />
  <metadata
     id="metadata1547">
    <rdf:RDF>
      <cc:Work
         rdf:about="">
        <dc:format>image/svg+xml</dc:format>
        <dc:type
           rdf:resource="http://purl.org/dc/dcmitype/StillImage" />
        <dc:title></dc:title>
      </cc:Work>
    </rdf:RDF>
  </metadata>
  <g
     inkscape:label="Layer 1"
     inkscape:groupmode="layer"
     id="layer1">
    <g
       id="g1763"
       transform="matrix(1.0525567,0,0,1.1831682,-0.39347097,-7.3945613)"
       style="stroke-width:0.896094">
      <path
         style="fill:none;stroke:#fcfcfc;stroke-width:0.179219;stroke-miterlimit:4;stroke-dasharray:none;stroke-opacity:1"
         d="m 2.1142853,27.724404 c 0.51891,-0.533577 2.80186,-3.865806 5.07322,-7.404955 2.27136,-3.539148 4.2325497,-6.436336 4.3582097,-6.438194 0.12566,-0.0019 0.91665,0.951584 1.75775,2.118761 0.8411,1.167178 1.66421,2.033088 1.82914,1.924246 0.16493,-0.108843 1.81734,-2.571931 3.67202,-5.47353 1.85468,-2.9015992 3.48072,-5.2756342 3.61343,-5.2756342 0.13271,0 1.85209,2.375599 3.82086,5.2791092 1.96876,2.90351 3.67002,5.28476 3.78057,5.291667 0.11056,0.0069 0.74393,-0.860567 1.40749,-1.92772 0.66356,-1.067153 1.33314,-1.940278 1.48794,-1.940278 0.15481,0 2.26779,2.897188 4.69552,6.438195 2.42773,3.541007 4.84267,6.874757 5.36654,7.408333 l 0.9525,0.970139 H 22.550135 1.1707953 Z"
         id="path1742" />
      <path
         style="fill:#ffff00;stroke-width:0.896094"
         d="m 41.675145,27.54801 c -0.35754,-0.653744 -7.11702,-10.452942 -7.93737,-11.506771 l -0.70601,-0.906952 -0.67499,2.402454 c -0.78075,2.778842 -0.97377,2.225964 2.57146,7.365441 l 2.12929,3.086805 h 2.4294 c 1.85188,0 2.37206,-0.104826 2.18822,-0.440972 z"
         id="path1748" />
      <path
         style="fill:#ffff00;stroke-width:0.896094"
         d="m 35.719835,27.54801 c -0.25937,-0.458137 -2.30985,-3.466311 -6.07175,-8.907639 -1.20729,-1.74625 -3.28564,-4.756611 -4.61855,-6.68969 -2.05962,-2.9869782 -2.46248,-3.4107212 -2.68318,-2.8222232 -0.25882,0.690177 -3.97478,13.1855912 -4.05103,13.6221572 -0.0221,0.126328 0.70323,1.354801 1.61178,2.729939 l 1.65189,2.500252 7.20525,0.0041 c 5.67787,0.0032 7.15232,-0.08939 6.95559,-0.436884 z"
         id="path1746" />
      <path
         style="fill:#ffff00;stroke-width:0.896094"
         d="m 20.402675,27.778204 c 0,-0.302399 -8.38833,-12.463834 -8.60646,-12.477682 -0.1,-0.0063 -0.97393,2.647523 -1.9421097,5.897488 -0.96818,3.249965 -1.83148,6.107465 -1.91844,6.35 -0.12307,0.343282 1.24035,0.440972 6.1544497,0.440972 3.47191,0 6.31256,-0.09485 6.31256,-0.210778 z"
         id="path1744" />
    </g>
  </g>
</svg>
