<?xml version="1.0" encoding="UTF-8" standalone="no"?>
<svg
   xmlns:inkstitch="http://inkstitch.org/namespace"
   xmlns:dc="http://purl.org/dc/elements/1.1/"
   xmlns:cc="http://creativecommons.org/ns#"
   xmlns:rdf="http://www.w3.org/1999/02/22-rdf-syntax-ns#"
   xmlns:svg="http://www.w3.org/2000/svg"
   xmlns="http://www.w3.org/2000/svg"
   xmlns:sodipodi="http://sodipodi.sourceforge.net/DTD/sodipodi-0.dtd"
   xmlns:inkscape="http://www.inkscape.org/namespaces/inkscape"
   width="210mm"
   height="297mm"
   viewBox="0 0 210 297"
   version="1.1"
   id="svg8"
   sodipodi:docname="Rouge bourgeois 50.svg"
   inkscape:version="1.0.1 (c497b03c, 2020-09-10)"
   inkscape:label="Manche fond">
  <defs
     id="defs2">
    <symbol
       id="inkstitch_ignore_layer">
      <title
         id="title9694">Ignore entire layer when generating stitch plan</title>
      <path
         inkscape:connector-curvature="0"
         style="opacity:1;vector-effect:none;fill:#fafafa;fill-opacity:1;fill-rule:evenodd;stroke:#ff0000;stroke-width:1.06501234;stroke-linecap:round;stroke-linejoin:miter;stroke-miterlimit:4;stroke-dasharray:3.19503705, 3.19503705;stroke-dashoffset:0;stroke-opacity:1"
         d="M 9.2465269,-4.9265995e-6 C 9.246525,5.1067241 5.1067028,9.2465451 -2.615882e-5,9.2465451 -5.1067554,9.2465451 -9.2465782,5.1067241 -9.2465801,-4.9265995e-6 -9.24658,-2.4523429 -8.2723922,-4.8042399 -6.538327,-6.5383059 c 1.7340653,-1.734065 4.0859624,-2.708252 6.53830084118,-2.708252 5.10673015882,0 9.24655285882,4.139823 9.24655305882,9.2465529734005 0,0 0,0 0,0"
         id="inkstitch_path25368-7" />
      <path
         sodipodi:nodetypes="ccccc"
         inkscape:connector-curvature="0"
         style="color:#000000;fill:#d5d5d5;fill-opacity:1;fill-rule:evenodd;stroke:#5a5a5a;stroke-width:0.63330007;stroke-linecap:square;stroke-linejoin:round;stroke-miterlimit:0;stroke-opacity:1"
         d="M 4,4.452769 1.46667,1.286102 H -5.5 l 2.53333,3.166667 z"
         id="use5800" />
      <path
         sodipodi:nodetypes="ccccc"
         inkscape:connector-curvature="0"
         style="color:#000000;opacity:0.5;fill:#d5d5d5;fill-opacity:1;fill-rule:evenodd;stroke:#858585;stroke-width:0.63339424;stroke-linecap:square;stroke-linejoin:round;stroke-miterlimit:0;stroke-opacity:1"
         d="M 4,2.552769 1.46667,-0.613898 H -5.5 l 2.53333,3.166667 z"
         id="use5864" />
      <g
         id="g5771">
        <path
           sodipodi:nodetypes="ccccccccc"
           inkscape:connector-curvature="0"
           style="fill:#aa0000;fill-rule:evenodd;stroke:#aa0000;stroke-width:1px"
           d="m -1.0666699,-5.0472339 h 4.4333333 l 0.6333333,0.6333333 V 0.01943274 L 3.3666634,0.65276607 H -1.0666699 L -1.7000032,0.01943274 V -4.4139006 Z"
           id="path8011" />
        <path
           inkscape:connector-curvature="0"
           id="path8023"
           d="m -0.43333658,-3.8755672 c 0,0 3.16666668,3.16666661 3.16666668,3.16666661"
           style="fill:none;stroke:#ffffff;stroke-width:1.70000005" />
        <path
           inkscape:connector-curvature="0"
           id="path8025"
           d="m 2.7333301,-3.8755672 c 0,0 -3.16666668,3.16666661 -3.16666668,3.16666661"
           style="fill:none;stroke:#ffffff;stroke-width:1.79999995;stroke-linejoin:round" />
      </g>
    </symbol>
  </defs>
  <sodipodi:namedview
     id="base"
     pagecolor="#ffffff"
     bordercolor="#666666"
     borderopacity="1.0"
     inkscape:pageopacity="0.0"
     inkscape:pageshadow="2"
     inkscape:zoom="1.3341879"
     inkscape:cx="321.7165"
     inkscape:cy="411.85058"
     inkscape:document-units="mm"
     inkscape:current-layer="layer1"
     inkscape:document-rotation="0"
     showgrid="false"
     inkscape:snap-global="false"
     inkscape:window-width="1407"
     inkscape:window-height="1225"
     inkscape:window-x="0"
     inkscape:window-y="23"
     inkscape:window-maximized="0" />
  <metadata
     id="metadata5">
    <rdf:RDF>
      <cc:Work
         rdf:about="">
        <dc:format>image/svg+xml</dc:format>
        <dc:type
           rdf:resource="http://purl.org/dc/dcmitype/StillImage" />
        <dc:title></dc:title>
      </cc:Work>
    </rdf:RDF>
  </metadata>
  <g
     inkscape:label="Calque 1"
     inkscape:groupmode="layer"
     id="layer1"
     style="display:inline">
    <path
       style="display:none;fill:#c22443;stroke:none;stroke-width:0.111513px;stroke-linecap:butt;stroke-linejoin:miter;stroke-opacity:1"
       d="m 97.710851,43.838031 c -2.246053,-0.175543 0.304181,4.178614 -1.381638,5.576717 -3.31509,3.172146 7.521317,8.088871 3.829927,10.813931 -2.538242,1.873783 -4.95638,-3.905031 -7.434573,-5.857546 -10.792923,-8.503519 8.893403,17.839412 26.809533,17.572638 10.21703,4.2761 17.20143,6.92535 27.7107,-0.450581 6.09104,-4.274992 -9.12339,0.50165 -8.56103,-1.351741 0.63214,-2.083358 9.91277,-6.134884 9.91277,-7.209287 l 0.22529,-6.082837 c 0,0 -5.22354,3.624334 -4.5058,1.802322 4.64391,-11.788743 0.90619,-14.198319 0.90116,-14.193284 l -2.47819,5.406966 -1.57704,-6.758708 c 0,0 -10.59819,-0.0059 -22.16609,0.317978 -7.39356,0.206975 -6.24805,0.173637 -16.53689,0.464887 -1.73187,0.04903 -4.601075,-0.03996 -4.748129,-0.05145 z"
       id="path4215"
       sodipodi:nodetypes="scsscssccscccsss"
       inkscape:label="Fleur"
       inkstitch:repeats="2"
       sodipodi:insensitive="true" />
    <path
       style="display:none;fill:none;stroke:#c22443;stroke-width:0.111513px;stroke-linecap:butt;stroke-linejoin:miter;stroke-opacity:1"
       d="m 97.710851,43.838031 c -2.223159,0.364875 0.304181,4.178614 -1.381638,5.576717 -3.31509,3.172146 7.521317,8.088871 3.829927,10.813931 -2.538242,1.873783 -4.95638,-3.905031 -7.434573,-5.857546 -10.792923,-8.503519 8.893403,17.839412 26.809533,17.572638 10.21703,4.2761 17.20143,6.92535 27.7107,-0.450581 6.09104,-4.274992 -9.12339,0.50165 -8.56103,-1.351741 0.63214,-2.083358 9.91277,-6.134884 9.91277,-7.209287 l 0.22529,-6.082837 c 0,0 -5.22354,3.624334 -4.5058,1.802322 4.64391,-11.788743 0.90619,-14.198319 0.90116,-14.193284 l -2.47819,5.406966 -1.57704,-6.758708 c 0,0 -10.59819,-0.0059 -22.16609,0.317978 -7.39356,0.206975 -6.24805,0.173637 -16.53689,0.464887 -1.73187,0.04903 -1.71531,-0.549217 -4.748129,-0.05145 z"
       id="path1066"
       sodipodi:nodetypes="scsscssccscccsss"
       inkscape:label="Fleur contour"
       inkstitch:repeats="2"
       sodipodi:insensitive="true" />
    <g
       id="g3889"
       style="display:none;stroke:#000000;stroke-width:1;stroke-miterlimit:4;stroke-dasharray:0.5, 0.5;stroke-dashoffset:0;stroke-opacity:1"
       inkscape:label="dessin fleur"
       transform="matrix(0.42146636,0,0,0.42146636,37.52846,61.12984)"
       sodipodi:insensitive="true">
      <path
         style="display:none;fill:none;stroke:#000000;stroke-width:1;stroke-linecap:butt;stroke-linejoin:miter;stroke-miterlimit:4;stroke-dasharray:0.5, 0.5;stroke-dashoffset:0;stroke-opacity:1"
         d="M 169.44888,6.9490076 C 179.7762,18.537784 197.74464,22.485444 216.48831,25.657874"
         id="path1493"
         sodipodi:nodetypes="cc"
         inkstitch:bean_stitch_repeats="2"
         sodipodi:insensitive="true" />
      <path
         style="display:none;fill:none;stroke:#000000;stroke-width:1;stroke-linecap:butt;stroke-linejoin:miter;stroke-miterlimit:4;stroke-dasharray:0.5, 0.5;stroke-dashoffset:0;stroke-opacity:1"
         d="M 232.67441,-0.30855237 C 219.22217,14.960133 202.08347,7.3076371 182.96228,1.8296038"
         id="path1487"
         sodipodi:nodetypes="cc"
         inkstitch:bean_stitch_repeats="2"
         sodipodi:insensitive="true" />
      <path
         style="display:none;fill:none;stroke:#000000;stroke-width:1;stroke-linecap:butt;stroke-linejoin:miter;stroke-miterlimit:4;stroke-dasharray:0.5, 0.5;stroke-dashoffset:0;stroke-opacity:1"
         d="m 154.58917,-33.109187 c 17.18288,-0.04882 10.38828,8.225371 20.84702,20.847022 l 7.48355,4.2763124"
         id="path1485"
         sodipodi:nodetypes="ccc"
         inkstitch:bean_stitch_repeats="2"
         sodipodi:insensitive="true" />
      <path
         style="display:none;fill:none;stroke:#000000;stroke-width:1;stroke-linecap:butt;stroke-linejoin:miter;stroke-miterlimit:4;stroke-dasharray:0.5, 0.5;stroke-dashoffset:0;stroke-opacity:1"
         d="m 224.52128,-33.148857 c -1.65304,11.359144 -11.45425,18.170256 -22.98518,13.898015"
         id="path1489"
         sodipodi:nodetypes="cc"
         inkstitch:bean_stitch_repeats="2"
         sodipodi:insensitive="true" />
      <path
         style="display:none;fill:none;stroke:#000000;stroke-width:1;stroke-linecap:butt;stroke-linejoin:miter;stroke-miterlimit:4;stroke-dasharray:0.5, 0.5;stroke-dashoffset:0;stroke-opacity:1"
         d="m 244.81888,-31.003266 c 2.7844,10.65621 6.43931,21.5058691 -3.20723,29.3996488"
         id="path1495"
         sodipodi:nodetypes="cc"
         inkstitch:bean_stitch_repeats="2" />
    </g>
    <g
       id="g4231"
       inkscape:label="Chapeau"
       style="display:inline"
       transform="matrix(0.42146636,0,0,0.42146636,37.52846,61.12984)">
      <path
         id="path3893_7"
         style="display:inline;fill:#000000;stroke:none;stroke-width:0.264583px;stroke-linecap:butt;stroke-linejoin:miter;stroke-opacity:1"
         inkscape:label="Chapeau fd 1"
         d="M 243.75469,17.868836 C 227.96409,0.47681836 195.60734,-2.947855 65.354156,-34.289734 76.157584,-8.0680024 -70.062273,-22.471692 1.714704,34.176222 c 39.129348,27.46 87.039027,37.925224 128.615386,60.887242 33.10248,17.698536 66.22661,37.908806 104.17974,43.277436 3.30463,-0.1295 10.24335,3.50645 8.59851,-2.34829 z"
         sodipodi:nodetypes="ccccccc" />
    </g>
  </g>
  <path
     style="display:inline;fill:#ff0000;stroke:none;stroke-width:0.111513;stroke-linecap:butt;stroke-linejoin:miter;stroke-miterlimit:4;stroke-dasharray:0.0557562, 0.0557562;stroke-dashoffset:0;stroke-opacity:1"
     d="m 69.707919,99.362859 c 5.041334,1.536041 12.096729,5.014221 10.195473,6.372171 -3.008285,2.14864 -9.000688,5.89426 -10.514082,4.77913 -2.07201,-3.00496 1.20739,-5.09774 1.433738,-5.09774 0.666044,0 -2.659731,-1.75179 -2.867476,-3.50469 -0.163018,-1.37552 0.928299,-2.79995 1.752347,-2.548871 z"
     id="path1387"
     sodipodi:nodetypes="sscsss"
     inkstitch:zigzag_underlay="True"
     inkstitch:fill_underlay_angle="0"
     inkstitch:satin_column="False"
     inkstitch:repeats=""
     inkstitch:bean_stitch_repeats="2"
     inkscape:label="Bouche fond"
     inkstitch:fill_underlay_row_spacing_mm="0.25"
     sodipodi:insensitive="true" />
  <path
     style="display:inline;fill:none;stroke:#ff0000;stroke-width:0.111513;stroke-linecap:butt;stroke-linejoin:miter;stroke-miterlimit:4;stroke-dasharray:0.0557562, 0.0557562;stroke-dashoffset:0;stroke-opacity:1"
     d="m 69.707919,99.362859 c 5.041334,1.536041 12.096729,5.014221 10.195473,6.372171 -3.008285,2.14864 -9.000688,5.89426 -10.514082,4.77913 -2.07201,-3.00496 1.20739,-5.09774 1.433738,-5.09774 0.666044,0 -2.659731,-1.75179 -2.867476,-3.50469 -0.163018,-1.37552 0.928299,-2.79995 1.752347,-2.548871 z"
     id="path1458"
     sodipodi:nodetypes="sscsss"
     inkstitch:zigzag_underlay="True"
     inkstitch:fill_underlay_angle="0"
     inkstitch:satin_column="False"
     inkstitch:repeats=""
     inkstitch:bean_stitch_repeats="2"
     inkscape:label="Bouche Contour"
     inkstitch:fill_underlay_row_spacing_mm="0.25"
     sodipodi:insensitive="true" />
  <path
     id="path1"
     style="display:inline;fill:none;stroke:#000000;stroke-width:0.75"
     d="m 71.005884,113.54816 c -1.027936,1.98523 -3.058985,5.01368 -1.819935,7.87254 0.654918,1.51109 1.976995,2.01534 2.970703,2.19439 7.014244,1.26383 13.370083,-0.28681 20.251946,0.9125 1.701915,0.26628 3.261707,1.36207 4.436646,2.51584 4.908396,5.82189 8.695216,12.51493 13.820276,18.16917 1.70375,2.02909 3.68918,4.18195 5.57579,6.01775 4.17834,4.69278 8.93011,9.02835 11.27299,14.94823 0.074,0.2076 -0.17063,0.4152 -0.0966,0.6228 M 71.436658,113.69291 c -0.507289,2.25692 -3.53855,6.86804 -0.504664,7.91353 7.47256,2.57507 16.098537,0.37439 21.317526,1.65728 2.399876,0.45405 4.279691,1.76533 5.743676,3.1728 5.317874,6.48655 9.128604,14.02537 15.437694,19.8748 2.35778,2.18601 3.87184,4.3382 5.04228,5.44894 3.68173,4.26267 7.83505,9.12759 9.8169,14.77595 m -44.879151,-41.66864 0.258047,-3.09129 m 4.127172,3.0881 c -0.0042,-0.63219 0.708438,-3.17602 0.704181,-3.80821 m 10.758776,9.52241 c 0.507379,-0.37715 1.014755,-0.7543 1.522135,-1.13146 m 1.51896,5.37366 c 0.51655,-0.3645 1.03309,-0.729 1.54963,-1.09351 m 2.03592,6.0709 c 0.50976,-0.37392 1.01952,-0.74784 1.52929,-1.12176 m 1.75447,5.2871 1.45317,-1.21876 m 6.92748,10.89632 c 0.47598,-0.41608 1.66883,-1.07111 2.1448,-1.48719 m -1.66096,2.61684 c 0.48133,-0.40987 1.75918,-1.5366 2.24051,-1.94648 m 2.33243,5.95408 c 0.50917,-0.37474 1.01833,-0.74949 1.52749,-1.12422 m 0.39622,3.95055 c 0.5374,-0.33298 1.0748,-0.66595 1.61221,-0.99892 m 0.028,3.96157 c 0.57145,-0.27041 1.1429,-0.54082 1.71434,-0.81123"
     sodipodi:nodetypes="csscccccccsccscccccccccccccccccccccccc"
     inkstitch:satin_column="True"
     inkstitch:zigzag_underlay="True"
     inkstitch:center_walk_underlay="True"
     inkstitch:contour_underlay="True" />
  <path
     style="display:inline;fill:#000000;stroke:none;stroke-width:0.6322;stroke-linecap:butt;stroke-linejoin:miter;stroke-miterlimit:4;stroke-dasharray:0.3161, 0.3161;stroke-dashoffset:0;stroke-opacity:1"
     d="m 99.147344,130.58649 c -8.331834,2.08974 -13.135948,5.18116 -14.54448,9.79721 -1.898618,6.22216 -0.857435,13.88131 5.734952,23.81599 10.249654,6.95347 20.449944,14.36608 23.099114,27.40034 l 11.31061,-0.0797 c 0,0 -0.50282,-18.91648 -4.44775,-28.59705 -4.61946,-13.82625 -4.49917,-11.84934 -11.41992,-18.8356 -1.65137,-2.41489 -1.90303,-2.09819 -9.732526,-13.50119 z"
     id="path1412"
     sodipodi:nodetypes="cscccccc"
     inkstitch:satin_column="False"
     inkstitch:angle="45"
     inkstitch:fill_underlay_angle="45"
     inkstitch:repeats="2"
     inkscape:label="Manche fond" />
  <path
     style="display:inline;fill:none;stroke:#000000;stroke-width:0.6322;stroke-linecap:butt;stroke-linejoin:miter;stroke-miterlimit:4;stroke-dasharray:0.3161, 0.3161;stroke-dashoffset:0;stroke-opacity:1"
     d="m 99.147344,130.58649 c -8.331834,2.08974 -13.135948,5.18116 -14.54448,9.79721 -1.898618,6.22216 -0.857435,13.88131 5.734952,23.81599 10.249654,6.95347 20.449944,14.36608 23.099114,27.40034 l 11.31061,-0.0797 c 0,0 -0.50282,-18.91648 -4.44775,-28.59705 -4.61946,-13.82625 -4.49917,-11.84934 -11.41992,-18.8356 -1.65137,-2.41489 -1.90303,-2.09819 -9.732526,-13.50119 z"
     id="path1435"
     sodipodi:nodetypes="cscccccc"
     inkstitch:satin_column="False"
     inkstitch:angle="45"
     inkstitch:fill_underlay_angle="45"
     inkstitch:repeats="2"
     inkscape:label="Manche contour" />
  <g
     id="layer2"
     inkscape:label="Calque 2"
     style="display:inline"
     transform="matrix(0.42146636,0,0,0.42146636,37.52846,61.12984)" />
</svg>
